<?xml version="1.0" encoding="UTF-8" standalone="no"?>
<!-- Generator: Adobe Illustrator 22.0.1, SVG Export Plug-In . SVG Version: 6.00 Build 0)  -->

<svg
   xmlns:dc="http://purl.org/dc/elements/1.1/"
   xmlns:cc="http://creativecommons.org/ns#"
   xmlns:rdf="http://www.w3.org/1999/02/22-rdf-syntax-ns#"
   xmlns:svg="http://www.w3.org/2000/svg"
   xmlns="http://www.w3.org/2000/svg"
   xmlns:sodipodi="http://sodipodi.sourceforge.net/DTD/sodipodi-0.dtd"
   xmlns:inkscape="http://www.inkscape.org/namespaces/inkscape"
   version="1.1"
   id="Layer_1"
   x="0px"
   y="0px"
   viewBox="0 0 140.2 141.8"
   xml:space="preserve"
   sodipodi:docname="received.svg"
   width="140.2"
   height="141.8"
   inkscape:version="0.92.3 (2405546, 2018-03-11)"><metadata
   id="metadata490"><rdf:RDF><cc:Work
       rdf:about=""><dc:format>image/svg+xml</dc:format><dc:type
         rdf:resource="http://purl.org/dc/dcmitype/StillImage" /></cc:Work></rdf:RDF></metadata><defs
   id="defs488" /><sodipodi:namedview
   pagecolor="#ffffff"
   bordercolor="#666666"
   borderopacity="1"
   objecttolerance="10"
   gridtolerance="10"
   guidetolerance="10"
   inkscape:pageopacity="0"
   inkscape:pageshadow="2"
   inkscape:window-width="640"
   inkscape:window-height="480"
   id="namedview486"
   showgrid="false"
   inkscape:zoom="0.8324515"
   inkscape:cx="70.049995"
   inkscape:cy="70.950005"
   inkscape:window-x="0"
   inkscape:window-y="0"
   inkscape:window-maximized="0"
   inkscape:current-layer="Layer_1" />
<style
   type="text/css"
   id="style465">
	.st0{fill-rule:evenodd;clip-rule:evenodd;fill:#72C16A;}
	.st1{fill:#FFFFFF;}
</style>
<g
   id="g483"
   transform="translate(-71.700005,-70.900002)">
	<g
   id="g475">
		<g
   id="g473">
			<g
   id="g471">
				<g
   id="g469">
					<ellipse
   class="st0"
   cx="141.8"
   cy="141.8"
   rx="70.099998"
   ry="70.900002"
   id="ellipse467"
   style="clip-rule:evenodd;fill:#72c16a;fill-rule:evenodd" />
				</g>
			</g>
		</g>
	</g>
	<g
   id="g481">
		<path
   class="st1"
   d="m 146.9,80 h 1.2 c 4,0.4 7.4,2.9 9.7,6 4,5.4 6,12.3 5.3,19 -0.6,3.8 -1.2,7.5 -1.7,11.3 8.4,0 16.7,0 25.1,0 4.9,0.1 9.6,3.6 10.9,8.3 1,3.5 0.2,7.3 -2,10.2 2,2 3.2,4.8 3.5,7.7 v 1.1 c -0.3,3.7 -2.3,7.2 -5.5,9.2 1.2,3.3 1.1,7.1 -0.6,10.1 -1.2,2.2 -3.2,3.8 -5.4,4.9 1.1,4.4 -0.8,9.4 -4.5,12 -1.9,1.3 -4.3,2.1 -6.6,2.1 -13.1,0 -26.2,0 -39.2,0 -4,-0.1 -8,-1.6 -11.2,-4.2 -0.1,1.6 0.3,3.4 -0.6,4.8 -0.7,1.4 -2.2,2.2 -3.8,2.5 h -27 c -2.3,-0.2 -4.1,-2.1 -4.4,-4.4 v -50.3 c 0.2,-2.3 2.1,-4.3 4.5,-4.3 8.8,0 17.7,0 26.5,0 1.3,-0.1 2.6,0.5 3.5,1.4 0.8,0.7 1,1.8 1.5,2.7 0.3,-0.5 0.6,-0.9 0.9,-1.4 4.4,-8.2 8.9,-16.5 13.3,-24.7 1,-1.6 0.7,-3.6 0.6,-5.4 -0.4,-5.1 -0.8,-10.1 -1.2,-15.2 1.9,-1.9 4.5,-3.1 7.2,-3.4 m -2.6,5.5 c 0.4,4.8 0.8,9.6 1.1,14.3 0.2,2.1 -0.2,4.3 -1.2,6.2 -4.5,8.3 -8.9,16.6 -13.4,24.9 -0.9,2.3 -3.3,3.4 -4.9,5.1 0,12.2 0,24.3 0,36.5 2.2,0.8 3.6,2.7 5.7,3.5 2,0.9 4.2,1.4 6.3,1.3 12.7,0 25.3,0 38,0 4.1,0.4 7.9,-3.7 7.2,-7.8 -0.3,-1.8 -1.4,-3.3 -2.1,-4.9 1.8,-0.5 3.8,-0.4 5.4,-1.4 2.3,-1.3 3.7,-4 3.4,-6.6 -0.1,-2.4 -1.9,-4.2 -3.3,-6 1.9,-0.7 4.1,-1 5.6,-2.4 2.5,-2.1 3,-6.1 1.2,-8.8 -1.2,-2 -3.5,-2.8 -5.4,-4 1,-0.8 2.1,-1.6 3.1,-2.4 1.9,-1.6 2.8,-4.3 2.2,-6.7 -0.6,-2.5 -2.7,-4.4 -5.1,-5.1 -1.1,-0.4 -2.3,-0.3 -3.5,-0.3 -9.5,0 -19,0 -28.5,0 0.8,-5.5 1.7,-11 2.5,-16.6 0.5,-4.6 -0.7,-9.3 -2.9,-13.3 -1.4,-2.4 -3.2,-4.8 -5.9,-5.9 -1.7,-0.8 -3.8,-0.6 -5.5,0.4 m -49.6,45.1 c 0,16.6 0,33.2 0,49.8 8.8,0 17.7,0 26.5,0 0,-16.6 0,-33.2 0,-49.8 -8.8,-0.1 -17.6,-0.1 -26.5,0 z"
   id="path477"
   inkscape:connector-curvature="0"
   style="fill:#ffffff" />
		<path
   class="st1"
   d="m 94.7,130.6 c 8.8,-0.1 17.7,0 26.5,0 0,16.6 0,33.2 0,49.8 -8.8,0 -17.7,0 -26.5,0 0,-16.6 0,-33.2 0,-49.8 z"
   id="path479"
   inkscape:connector-curvature="0"
   style="fill:#ffffff" />
	</g>
</g>
</svg>