<?xml version="1.0" encoding="utf-8"?>
<!-- Generator: Adobe Illustrator 22.0.1, SVG Export Plug-In . SVG Version: 6.00 Build 0)  -->
<svg version="1.1" id="Layer_1" xmlns="http://www.w3.org/2000/svg" xmlns:xlink="http://www.w3.org/1999/xlink" x="0px" y="0px"
	 viewBox="0 0 155.9 155.9" style="enable-background:new 0 0 155.9 155.9;" xml:space="preserve">
<style type="text/css">
	.st0{fill-rule:evenodd;clip-rule:evenodd;fill:#72C169;}
	.st1{fill:#FFFFFF;stroke:#FFFFFF;stroke-miterlimit:10;}
</style>
<g>
	<g>
		<g>
			<circle class="st0" cx="77.6" cy="77.1" r="70.9"/>
		</g>
	</g>
	<g>
		<path class="st1" d="M67.9,71.3V55.5h4.3c0.7,0,1.2,0.1,1.8,0.3c0.5,0.2,1,0.4,1.3,0.7c0.4,0.3,0.7,0.7,0.9,1.1
			c0.2,0.4,0.3,0.9,0.3,1.5c0,0.5-0.1,0.9-0.2,1.3c-0.1,0.4-0.3,0.8-0.5,1.1c-0.2,0.3-0.5,0.6-0.9,0.8c-0.3,0.2-0.7,0.4-1.2,0.6v0
			c0.5,0.1,1,0.2,1.4,0.4c0.4,0.2,0.8,0.5,1.1,0.8c0.3,0.3,0.5,0.7,0.7,1.2c0.2,0.4,0.3,0.9,0.3,1.5c0,0.7-0.1,1.3-0.4,1.8
			s-0.6,1-1,1.4c-0.4,0.4-1,0.7-1.6,0.9c-0.6,0.2-1.3,0.3-2,0.3H67.9z M69.3,56.9v5.6h2c0.5,0,1-0.1,1.5-0.2
			c0.4-0.1,0.8-0.3,1.1-0.6s0.5-0.6,0.7-1c0.2-0.4,0.2-0.8,0.2-1.3c0-1.7-1.1-2.6-3.2-2.6H69.3z M69.3,63.8V70H72
			c1.2,0,2.1-0.3,2.7-0.8c0.6-0.5,0.9-1.3,0.9-2.3c0-2-1.4-3-4.1-3H69.3z"/>
		<path class="st1" d="M80.9,65.9c0,0.7,0.1,1.3,0.3,1.9c0.2,0.5,0.4,1,0.8,1.4c0.3,0.4,0.7,0.7,1.2,0.9c0.5,0.2,1,0.3,1.6,0.3
			c1.3,0,2.5-0.4,3.6-1.3v1.4c-1.1,0.8-2.4,1.2-3.9,1.2c-0.8,0-1.4-0.1-2.1-0.4s-1.1-0.6-1.6-1.1c-0.4-0.5-0.8-1.1-1-1.9
			c-0.2-0.7-0.4-1.6-0.4-2.5c0-0.8,0.1-1.6,0.4-2.3c0.3-0.7,0.6-1.3,1.1-1.9c0.5-0.5,1-0.9,1.6-1.2c0.6-0.3,1.3-0.4,2-0.4
			c0.7,0,1.4,0.1,1.9,0.4c0.6,0.3,1,0.6,1.4,1.1c0.4,0.5,0.7,1,0.9,1.7c0.2,0.7,0.3,1.4,0.3,2.3v0.7H80.9z M87.6,64.7
			c0-1.2-0.3-2.1-0.8-2.7c-0.5-0.6-1.3-1-2.2-1c-0.5,0-0.9,0.1-1.3,0.3c-0.4,0.2-0.8,0.4-1.1,0.7c-0.3,0.3-0.6,0.7-0.8,1.2
			c-0.2,0.5-0.3,1-0.4,1.5H87.6z"/>
		<path class="st1" d="M29.9,98.3l-1.7-4.7h-6.8l-1.7,4.7h-1.6l6-15.8h1.5l6,15.8H29.9z M25.1,85.3C25.1,85.2,25,85,25,84.8
			c-0.1-0.2-0.1-0.4-0.1-0.6h0c0,0.2-0.1,0.4-0.1,0.6c-0.1,0.2-0.1,0.3-0.2,0.5l-2.6,7h5.8L25.1,85.3z"/>
		<path class="st1" d="M41.3,97.8c-0.8,0.5-1.8,0.8-3,0.8c-0.8,0-1.5-0.1-2.2-0.4c-0.6-0.3-1.2-0.7-1.6-1.2c-0.5-0.5-0.8-1.1-1-1.8
			c-0.2-0.7-0.4-1.4-0.4-2.3c0-0.8,0.1-1.6,0.4-2.4c0.3-0.7,0.6-1.4,1.1-1.9c0.5-0.6,1.1-1,1.8-1.3c0.7-0.3,1.5-0.5,2.4-0.5
			c0.9,0,1.8,0.2,2.6,0.5v1.5c-0.8-0.5-1.7-0.8-2.7-0.8c-0.7,0-1.3,0.1-1.8,0.4c-0.5,0.3-1,0.6-1.3,1c-0.4,0.4-0.6,0.9-0.8,1.5
			c-0.2,0.6-0.3,1.2-0.3,1.9c0,0.6,0.1,1.2,0.2,1.7c0.2,0.5,0.4,1,0.7,1.5c0.3,0.4,0.7,0.8,1.2,1c0.5,0.2,1.1,0.4,1.8,0.4
			c1.1,0,2-0.3,2.9-0.9V97.8z"/>
		<path class="st1" d="M51.5,97.8c-0.8,0.5-1.8,0.8-3,0.8c-0.8,0-1.5-0.1-2.2-0.4c-0.6-0.3-1.2-0.7-1.6-1.2c-0.5-0.5-0.8-1.1-1-1.8
			c-0.2-0.7-0.4-1.4-0.4-2.3c0-0.8,0.1-1.6,0.4-2.4c0.3-0.7,0.6-1.4,1.1-1.9c0.5-0.6,1.1-1,1.8-1.3c0.7-0.3,1.5-0.5,2.4-0.5
			c0.9,0,1.8,0.2,2.6,0.5v1.5c-0.8-0.5-1.7-0.8-2.7-0.8c-0.7,0-1.3,0.1-1.8,0.4c-0.5,0.3-1,0.6-1.3,1c-0.4,0.4-0.6,0.9-0.8,1.5
			c-0.2,0.6-0.3,1.2-0.3,1.9c0,0.6,0.1,1.2,0.2,1.7c0.2,0.5,0.4,1,0.7,1.5c0.3,0.4,0.7,0.8,1.2,1c0.5,0.2,1.1,0.4,1.8,0.4
			c1.1,0,2-0.3,2.9-0.9V97.8z"/>
		<path class="st1" d="M58.8,98.6c-0.8,0-1.6-0.1-2.2-0.4c-0.7-0.3-1.2-0.7-1.7-1.2c-0.5-0.5-0.8-1.1-1.1-1.8
			c-0.2-0.7-0.4-1.5-0.4-2.4c0-0.9,0.1-1.8,0.4-2.5c0.3-0.7,0.6-1.4,1.1-1.9c0.5-0.5,1.1-0.9,1.8-1.2c0.7-0.3,1.5-0.4,2.3-0.4
			c0.8,0,1.5,0.1,2.2,0.4c0.7,0.3,1.2,0.7,1.7,1.2c0.5,0.5,0.8,1.1,1,1.8c0.2,0.7,0.4,1.6,0.4,2.5c0,0.9-0.1,1.7-0.4,2.4
			c-0.3,0.7-0.6,1.3-1.1,1.9c-0.5,0.5-1,0.9-1.7,1.2C60.4,98.4,59.7,98.6,58.8,98.6z M58.9,88c-0.6,0-1.2,0.1-1.7,0.3
			c-0.5,0.2-0.9,0.5-1.3,0.9c-0.4,0.4-0.6,0.9-0.8,1.5c-0.2,0.6-0.3,1.3-0.3,2c0,0.7,0.1,1.3,0.3,1.9c0.2,0.6,0.5,1,0.8,1.5
			c0.3,0.4,0.8,0.7,1.3,0.9c0.5,0.2,1.1,0.3,1.7,0.3c0.6,0,1.2-0.1,1.7-0.3c0.5-0.2,0.9-0.5,1.2-0.9c0.3-0.4,0.6-0.9,0.8-1.5
			c0.2-0.6,0.3-1.2,0.3-2c0-1.5-0.3-2.7-1-3.5C61.2,88.4,60.2,88,58.9,88z"/>
		<path class="st1" d="M74.5,98.3v-1.9h0c-0.8,1.5-1.9,2.2-3.6,2.2c-2.7,0-4-1.6-4-4.9v-6.6h1.4v6.4c0,1.3,0.2,2.3,0.7,3
			c0.5,0.6,1.2,1,2.2,1c0.5,0,0.9-0.1,1.3-0.3c0.4-0.2,0.7-0.5,1-0.8c0.3-0.3,0.5-0.7,0.7-1.2c0.2-0.5,0.2-1,0.2-1.6v-6.4h1.4v11.3
			H74.5z"/>
		<path class="st1" d="M87.1,98.3v-6.5c0-2.5-0.9-3.8-2.8-3.8c-0.5,0-0.9,0.1-1.4,0.3c-0.4,0.2-0.8,0.5-1.1,0.8
			c-0.3,0.3-0.5,0.8-0.7,1.2c-0.2,0.5-0.3,1-0.3,1.5v6.4h-1.4V87.1h1.4v2h0c0.8-1.5,2.1-2.2,3.8-2.2c1.2,0,2.2,0.4,2.8,1.2
			c0.6,0.8,1,2,1,3.5v6.9H87.1z"/>
		<path class="st1" d="M96.8,98.2c-0.5,0.2-1,0.4-1.6,0.4c-1.8,0-2.7-1-2.7-3.1v-7.1h-2v-1.2h2v-2.8l1.4-0.5v3.3h2.9v1.2h-2.9v6.9
			c0,0.8,0.1,1.3,0.4,1.6c0.2,0.3,0.7,0.5,1.3,0.5c0.4,0,0.9-0.1,1.3-0.4V98.2z"/>
		<path class="st1" d="M105.6,98.3v-2h0c-0.4,0.7-0.9,1.3-1.5,1.7c-0.6,0.4-1.4,0.6-2.1,0.6c-0.5,0-1-0.1-1.5-0.2
			c-0.4-0.2-0.8-0.4-1.1-0.7c-0.3-0.3-0.5-0.6-0.7-1c-0.2-0.4-0.2-0.8-0.2-1.3c0-1,0.3-1.8,0.9-2.4c0.6-0.6,1.6-1,2.9-1.2l3.4-0.5
			c0-2.2-0.8-3.2-2.5-3.2c-1.3,0-2.5,0.5-3.7,1.4v-1.5c0.2-0.2,0.5-0.3,0.8-0.5c0.3-0.1,0.6-0.3,0.9-0.4c0.3-0.1,0.7-0.2,1-0.2
			c0.3-0.1,0.7-0.1,1-0.1c1.3,0,2.2,0.4,2.8,1.1c0.6,0.7,1,1.8,1,3.1v7.3H105.6z M102.7,92.9c-0.5,0.1-0.9,0.2-1.3,0.3
			c-0.4,0.1-0.7,0.3-0.9,0.4c-0.2,0.2-0.4,0.4-0.5,0.7c-0.1,0.3-0.2,0.6-0.2,1c0,0.3,0.1,0.6,0.2,0.8c0.1,0.3,0.3,0.5,0.5,0.7
			c0.2,0.2,0.4,0.3,0.7,0.4c0.3,0.1,0.6,0.2,1,0.2c0.5,0,1-0.1,1.4-0.3c0.4-0.2,0.8-0.5,1.1-0.8c0.3-0.3,0.5-0.7,0.7-1.2
			c0.2-0.5,0.3-1,0.3-1.5v-1.1L102.7,92.9z"/>
		<path class="st1" d="M111.8,96.5v1.8h-1.4V81.7h1.4v7.6h0c0.4-0.8,1-1.4,1.7-1.8c0.7-0.4,1.5-0.6,2.4-0.6c0.7,0,1.4,0.1,1.9,0.4
			c0.6,0.3,1,0.6,1.4,1.1c0.4,0.5,0.7,1.1,0.9,1.7c0.2,0.7,0.3,1.4,0.3,2.3c0,0.9-0.1,1.8-0.4,2.5c-0.2,0.8-0.6,1.4-1,2
			s-1,1-1.6,1.3c-0.6,0.3-1.3,0.5-2.1,0.5C113.8,98.6,112.6,97.9,111.8,96.5L111.8,96.5z M111.8,93.6c0,0.5,0.1,1,0.3,1.4
			c0.2,0.5,0.4,0.8,0.7,1.2c0.3,0.3,0.7,0.6,1.1,0.8c0.4,0.2,0.9,0.3,1.4,0.3c0.6,0,1.1-0.1,1.5-0.4c0.5-0.2,0.8-0.6,1.2-1
			c0.3-0.4,0.6-1,0.7-1.6c0.2-0.6,0.3-1.3,0.3-2.1c0-0.7-0.1-1.3-0.2-1.8c-0.2-0.5-0.4-1-0.7-1.4c-0.3-0.4-0.7-0.7-1.1-0.9
			c-0.4-0.2-0.9-0.3-1.4-0.3c-0.6,0-1.1,0.1-1.6,0.3c-0.5,0.2-0.9,0.5-1.2,0.9c-0.3,0.4-0.6,0.8-0.8,1.3c-0.2,0.5-0.3,1-0.3,1.6
			V93.6z"/>
		<path class="st1" d="M123.3,98.3V81.7h1.4v16.7H123.3z"/>
		<path class="st1" d="M129,92.9c0,0.7,0.1,1.3,0.3,1.9s0.4,1,0.8,1.4c0.3,0.4,0.7,0.7,1.2,0.9c0.5,0.2,1,0.3,1.6,0.3
			c1.3,0,2.5-0.4,3.6-1.3v1.4c-1.1,0.8-2.4,1.2-3.9,1.2c-0.8,0-1.4-0.1-2.1-0.4s-1.1-0.6-1.6-1.1c-0.4-0.5-0.8-1.1-1-1.9
			c-0.2-0.7-0.4-1.6-0.4-2.5c0-0.8,0.1-1.6,0.4-2.3c0.3-0.7,0.6-1.3,1.1-1.9c0.5-0.5,1-0.9,1.6-1.2c0.6-0.3,1.3-0.4,2-0.4
			c0.7,0,1.4,0.1,1.9,0.4c0.6,0.3,1,0.6,1.4,1.1c0.4,0.5,0.7,1,0.9,1.7c0.2,0.7,0.3,1.4,0.3,2.3v0.7H129z M135.7,91.7
			c0-1.2-0.3-2.1-0.8-2.7c-0.5-0.6-1.3-1-2.2-1c-0.5,0-0.9,0.1-1.3,0.3c-0.4,0.2-0.8,0.4-1.1,0.7c-0.3,0.3-0.6,0.7-0.8,1.2
			c-0.2,0.5-0.3,1-0.4,1.5H135.7z"/>
	</g>
</g>
</svg>
