<?xml version="1.0" encoding="utf-8"?>
<!-- Generator: Adobe Illustrator 22.0.1, SVG Export Plug-In . SVG Version: 6.00 Build 0)  -->
<svg version="1.1" id="Layer_1" xmlns="http://www.w3.org/2000/svg" xmlns:xlink="http://www.w3.org/1999/xlink" x="0px" y="0px"
	 viewBox="0 0 155.9 155.9" style="enable-background:new 0 0 155.9 155.9;" xml:space="preserve">
<style type="text/css">
	.st0{fill-rule:evenodd;clip-rule:evenodd;fill:#F78F3D;}
	.st1{fill:#FFFFFF;stroke:#FFFFFF;stroke-miterlimit:10;}
</style>
<g>
	<g>
		<g>
			<circle class="st0" cx="77.5" cy="77.1" r="70.9"/>
		</g>
	</g>
	<g>
		<path class="st1" d="M64.7,71.3V55.5H69c0.7,0,1.2,0.1,1.8,0.3c0.5,0.2,1,0.4,1.3,0.7c0.4,0.3,0.7,0.7,0.9,1.1
			c0.2,0.4,0.3,0.9,0.3,1.5c0,0.5-0.1,0.9-0.2,1.3c-0.1,0.4-0.3,0.8-0.5,1.1c-0.2,0.3-0.5,0.6-0.9,0.8c-0.3,0.2-0.7,0.4-1.2,0.6v0
			c0.5,0.1,1,0.2,1.4,0.4c0.4,0.2,0.8,0.5,1.1,0.8c0.3,0.3,0.5,0.7,0.7,1.2c0.2,0.4,0.3,0.9,0.3,1.5c0,0.7-0.1,1.3-0.4,1.8
			s-0.6,1-1,1.4c-0.4,0.4-1,0.7-1.6,0.9c-0.6,0.2-1.3,0.3-2,0.3H64.7z M66.1,56.9v5.6h2c0.5,0,1-0.1,1.5-0.2
			c0.4-0.1,0.8-0.3,1.1-0.6c0.3-0.3,0.5-0.6,0.7-1c0.2-0.4,0.2-0.8,0.2-1.3c0-1.7-1.1-2.6-3.2-2.6H66.1z M66.1,63.8V70h2.7
			c1.2,0,2.1-0.3,2.7-0.8c0.6-0.5,0.9-1.3,0.9-2.3c0-2-1.4-3-4.1-3H66.1z"/>
		<path class="st1" d="M77.7,65.9c0,0.7,0.1,1.3,0.3,1.9c0.2,0.5,0.4,1,0.8,1.4s0.7,0.7,1.2,0.9c0.5,0.2,1,0.3,1.6,0.3
			c1.3,0,2.5-0.4,3.6-1.3v1.4c-1.1,0.8-2.4,1.2-3.9,1.2c-0.8,0-1.4-0.1-2.1-0.4c-0.6-0.3-1.1-0.6-1.6-1.1c-0.4-0.5-0.8-1.1-1-1.9
			c-0.2-0.7-0.4-1.6-0.4-2.5c0-0.8,0.1-1.6,0.4-2.3c0.3-0.7,0.6-1.3,1.1-1.9c0.5-0.5,1-0.9,1.6-1.2c0.6-0.3,1.3-0.4,2-0.4
			c0.7,0,1.4,0.1,1.9,0.4c0.6,0.3,1,0.6,1.4,1.1c0.4,0.5,0.7,1,0.9,1.7c0.2,0.7,0.3,1.4,0.3,2.3v0.7H77.7z M84.4,64.7
			c0-1.2-0.3-2.1-0.8-2.7c-0.5-0.6-1.3-1-2.2-1c-0.5,0-0.9,0.1-1.3,0.3c-0.4,0.2-0.8,0.4-1.1,0.7c-0.3,0.3-0.6,0.7-0.8,1.2
			c-0.2,0.5-0.3,1-0.4,1.5H84.4z"/>
		<path class="st1" d="M43.7,98.3L42,93.7h-6.8l-1.7,4.7h-1.6l6-15.8h1.5l6,15.8H43.7z M38.9,85.3c-0.1-0.1-0.1-0.3-0.2-0.5
			c-0.1-0.2-0.1-0.4-0.1-0.6h0c0,0.2-0.1,0.4-0.1,0.6c-0.1,0.2-0.1,0.3-0.2,0.5l-2.6,7h5.8L38.9,85.3z"/>
		<path class="st1" d="M55,98.3v-1.9h0c-0.8,1.5-1.9,2.2-3.6,2.2c-2.7,0-4-1.6-4-4.9v-6.6h1.4v6.4c0,1.3,0.2,2.3,0.7,3
			c0.5,0.6,1.2,1,2.2,1c0.5,0,0.9-0.1,1.3-0.3c0.4-0.2,0.7-0.5,1-0.8c0.3-0.3,0.5-0.7,0.7-1.2c0.2-0.5,0.2-1,0.2-1.6v-6.4h1.4v11.3
			H55z"/>
		<path class="st1" d="M64.9,98.2c-0.5,0.2-1,0.4-1.6,0.4c-1.8,0-2.7-1-2.7-3.1v-7.1h-2v-1.2h2v-2.8l1.4-0.5v3.3h2.9v1.2h-2.9v6.9
			c0,0.8,0.1,1.3,0.4,1.6c0.2,0.3,0.7,0.5,1.3,0.5c0.4,0,0.9-0.1,1.3-0.4V98.2z"/>
		<path class="st1" d="M74.8,98.3v-6.6c0-1.3-0.2-2.2-0.7-2.8C73.6,88.3,72.9,88,72,88c-0.5,0-0.9,0.1-1.3,0.3
			c-0.4,0.2-0.8,0.4-1.1,0.8c-0.3,0.3-0.6,0.8-0.7,1.3c-0.2,0.5-0.3,1.1-0.3,1.7v6.3h-1.4V81.7h1.4V89h0c0.9-1.5,2.1-2.2,3.8-2.2
			c1.3,0,2.2,0.4,2.8,1.2c0.6,0.8,0.9,1.9,0.9,3.4v7H74.8z"/>
		<path class="st1" d="M80.2,92.9c0,0.7,0.1,1.3,0.3,1.9c0.2,0.5,0.4,1,0.8,1.4c0.3,0.4,0.7,0.7,1.2,0.9c0.5,0.2,1,0.3,1.6,0.3
			c1.3,0,2.5-0.4,3.6-1.3v1.4c-1.1,0.8-2.4,1.2-3.9,1.2c-0.8,0-1.4-0.1-2.1-0.4c-0.6-0.3-1.1-0.6-1.6-1.1c-0.4-0.5-0.8-1.1-1-1.9
			c-0.2-0.7-0.4-1.6-0.4-2.5c0-0.8,0.1-1.6,0.4-2.3c0.3-0.7,0.6-1.3,1.1-1.9c0.5-0.5,1-0.9,1.6-1.2c0.6-0.3,1.3-0.4,2-0.4
			c0.7,0,1.4,0.1,1.9,0.4c0.6,0.3,1,0.6,1.4,1.1c0.4,0.5,0.7,1,0.9,1.7c0.2,0.7,0.3,1.4,0.3,2.3v0.7H80.2z M86.9,91.7
			c0-1.2-0.3-2.1-0.8-2.7c-0.5-0.6-1.3-1-2.2-1c-0.5,0-0.9,0.1-1.3,0.3c-0.4,0.2-0.8,0.4-1.1,0.7c-0.3,0.3-0.6,0.7-0.8,1.2
			c-0.2,0.5-0.3,1-0.4,1.5H86.9z"/>
		<path class="st1" d="M98.7,98.3v-6.5c0-2.5-0.9-3.8-2.8-3.8c-0.5,0-0.9,0.1-1.4,0.3c-0.4,0.2-0.8,0.5-1.1,0.8
			c-0.3,0.3-0.5,0.8-0.7,1.2c-0.2,0.5-0.3,1-0.3,1.5v6.4h-1.4V87.1h1.4v2h0c0.8-1.5,2.1-2.2,3.8-2.2c1.2,0,2.2,0.4,2.8,1.2
			c0.6,0.8,1,2,1,3.5v6.9H98.7z"/>
		<path class="st1" d="M108.4,98.2c-0.5,0.2-1,0.4-1.6,0.4c-1.8,0-2.7-1-2.7-3.1v-7.1h-2v-1.2h2v-2.8l1.4-0.5v3.3h2.9v1.2h-2.9v6.9
			c0,0.8,0.1,1.3,0.4,1.6c0.2,0.3,0.7,0.5,1.3,0.5c0.4,0,0.9-0.1,1.3-0.4V98.2z"/>
		<path class="st1" d="M111.4,84.2c-0.3,0-0.5-0.1-0.7-0.3c-0.2-0.2-0.3-0.4-0.3-0.7c0-0.3,0.1-0.5,0.3-0.7c0.2-0.2,0.4-0.3,0.7-0.3
			c0.1,0,0.3,0,0.4,0.1c0.1,0,0.2,0.1,0.3,0.2s0.2,0.2,0.2,0.3c0.1,0.1,0.1,0.3,0.1,0.4c0,0.1,0,0.3-0.1,0.4
			c-0.1,0.1-0.1,0.2-0.2,0.3c-0.1,0.1-0.2,0.2-0.3,0.2C111.7,84.2,111.5,84.2,111.4,84.2z M110.7,98.3V87.1h1.4v11.3H110.7z"/>
		<path class="st1" d="M123.2,97.8c-0.8,0.5-1.8,0.8-3,0.8c-0.8,0-1.5-0.1-2.2-0.4c-0.6-0.3-1.2-0.7-1.6-1.2c-0.5-0.5-0.8-1.1-1-1.8
			c-0.2-0.7-0.4-1.4-0.4-2.3c0-0.8,0.1-1.6,0.4-2.4c0.3-0.7,0.6-1.4,1.1-1.9c0.5-0.6,1.1-1,1.8-1.3c0.7-0.3,1.5-0.5,2.4-0.5
			c0.9,0,1.8,0.2,2.6,0.5v1.5c-0.8-0.5-1.7-0.8-2.7-0.8c-0.7,0-1.3,0.1-1.8,0.4c-0.5,0.3-1,0.6-1.3,1c-0.4,0.4-0.6,0.9-0.8,1.5
			c-0.2,0.6-0.3,1.2-0.3,1.9c0,0.6,0.1,1.2,0.2,1.7c0.2,0.5,0.4,1,0.7,1.5c0.3,0.4,0.7,0.8,1.2,1c0.5,0.2,1.1,0.4,1.8,0.4
			c1.1,0,2-0.3,2.9-0.9V97.8z"/>
	</g>
</g>
</svg>
