<?xml version="1.0" encoding="utf-8"?>
<!-- Generator: Adobe Illustrator 22.0.1, SVG Export Plug-In . SVG Version: 6.00 Build 0)  -->
<svg version="1.1" id="Layer_1" xmlns="http://www.w3.org/2000/svg" xmlns:xlink="http://www.w3.org/1999/xlink" x="0px" y="0px"
	 viewBox="0 0 155.9 155.9" style="enable-background:new 0 0 155.9 155.9;" xml:space="preserve">
<style type="text/css">
	.st0{fill-rule:evenodd;clip-rule:evenodd;fill:#7563AC;}
	.st1{fill:#FFFFFF;stroke:#FFFFFF;stroke-miterlimit:10;}
</style>
<g>
	<g>
		<g>
			<circle class="st0" cx="77.9" cy="77.1" r="70.9"/>
		</g>
	</g>
	<g>
		<path class="st1" d="M66.4,57.8V42h4.3c0.7,0,1.2,0.1,1.8,0.3c0.5,0.2,1,0.4,1.3,0.7c0.4,0.3,0.7,0.7,0.9,1.1
			c0.2,0.4,0.3,0.9,0.3,1.5c0,0.5-0.1,0.9-0.2,1.3c-0.1,0.4-0.3,0.8-0.5,1.1c-0.2,0.3-0.5,0.6-0.9,0.8c-0.3,0.2-0.7,0.4-1.2,0.6v0
			c0.5,0.1,1,0.2,1.4,0.4c0.4,0.2,0.8,0.5,1.1,0.8s0.5,0.7,0.7,1.2c0.2,0.4,0.3,0.9,0.3,1.5c0,0.7-0.1,1.3-0.4,1.8s-0.6,1-1,1.4
			c-0.4,0.4-1,0.7-1.6,0.9c-0.6,0.2-1.3,0.3-2,0.3H66.4z M67.9,43.4V49h2c0.5,0,1-0.1,1.5-0.2c0.4-0.1,0.8-0.3,1.1-0.6
			c0.3-0.3,0.5-0.6,0.7-1c0.2-0.4,0.2-0.8,0.2-1.3c0-1.7-1.1-2.6-3.2-2.6H67.9z M67.9,50.3v6.2h2.7c1.2,0,2.1-0.3,2.7-0.8
			c0.6-0.5,0.9-1.3,0.9-2.3c0-2-1.4-3-4.1-3H67.9z"/>
		<path class="st1" d="M79.4,52.4c0,0.7,0.1,1.3,0.3,1.9c0.2,0.5,0.4,1,0.8,1.4c0.3,0.4,0.7,0.7,1.2,0.9c0.5,0.2,1,0.3,1.6,0.3
			c1.3,0,2.5-0.4,3.6-1.3v1.4C85.8,57.7,84.5,58,83,58c-0.8,0-1.4-0.1-2.1-0.4c-0.6-0.3-1.1-0.6-1.6-1.1c-0.4-0.5-0.8-1.1-1-1.9
			c-0.2-0.7-0.4-1.6-0.4-2.5c0-0.8,0.1-1.6,0.4-2.3c0.3-0.7,0.6-1.3,1.1-1.9c0.5-0.5,1-0.9,1.6-1.2c0.6-0.3,1.3-0.4,2-0.4
			c0.7,0,1.4,0.1,1.9,0.4c0.6,0.3,1,0.6,1.4,1.1c0.4,0.5,0.7,1,0.9,1.7c0.2,0.7,0.3,1.4,0.3,2.3v0.7H79.4z M86.1,51.2
			c0-1.2-0.3-2.1-0.8-2.7c-0.5-0.6-1.3-1-2.2-1c-0.5,0-0.9,0.1-1.3,0.3c-0.4,0.2-0.8,0.4-1.1,0.7c-0.3,0.3-0.6,0.7-0.8,1.2
			c-0.2,0.5-0.3,1-0.4,1.5H86.1z"/>
		<path class="st1" d="M32.7,70.7c-0.3,0-0.5-0.1-0.7-0.3c-0.2-0.2-0.3-0.4-0.3-0.7c0-0.3,0.1-0.5,0.3-0.7c0.2-0.2,0.4-0.3,0.7-0.3
			c0.1,0,0.3,0,0.4,0.1c0.1,0,0.2,0.1,0.3,0.2c0.1,0.1,0.2,0.2,0.2,0.3c0.1,0.1,0.1,0.3,0.1,0.4c0,0.1,0,0.3-0.1,0.4
			c-0.1,0.1-0.1,0.2-0.2,0.3c-0.1,0.1-0.2,0.2-0.3,0.2C32.9,70.7,32.8,70.7,32.7,70.7z M32,84.8V73.6h1.4v11.3H32z"/>
		<path class="st1" d="M44.6,84.8v-6.5c0-2.5-0.9-3.8-2.8-3.8c-0.5,0-0.9,0.1-1.4,0.3c-0.4,0.2-0.8,0.5-1.1,0.8
			c-0.3,0.3-0.5,0.8-0.7,1.2c-0.2,0.5-0.3,1-0.3,1.5v6.4H37V73.6h1.4v2h0c0.8-1.5,2.1-2.2,3.8-2.2c1.2,0,2.2,0.4,2.8,1.2
			c0.6,0.8,1,2,1,3.5v6.9H44.6z"/>
		<path class="st1" d="M55.2,82.5c0.3,0.2,0.6,0.4,0.9,0.5c0.3,0.2,0.6,0.3,1,0.4c0.3,0.1,0.7,0.2,1,0.2c0.3,0.1,0.7,0.1,1,0.1
			c1.2,0,2.1-0.2,2.7-0.7c0.6-0.5,0.9-1.1,0.9-2c0-0.4-0.1-0.8-0.2-1.1c-0.1-0.3-0.4-0.6-0.6-0.9c-0.3-0.3-0.7-0.5-1.1-0.8
			c-0.4-0.3-1-0.6-1.6-0.9c-0.7-0.4-1.3-0.7-1.7-1c-0.5-0.3-0.9-0.7-1.2-1c-0.3-0.3-0.5-0.7-0.7-1.1c-0.1-0.4-0.2-0.8-0.2-1.4
			c0-0.6,0.1-1.2,0.4-1.7c0.3-0.5,0.6-0.9,1.1-1.3c0.5-0.4,1-0.6,1.6-0.8c0.6-0.2,1.3-0.3,2-0.3c1.2,0,2.3,0.2,3.1,0.5v1.6
			c-0.9-0.5-2-0.8-3.3-0.8c-0.5,0-0.9,0.1-1.3,0.2c-0.4,0.1-0.8,0.3-1.1,0.5c-0.3,0.2-0.6,0.5-0.7,0.8c-0.2,0.3-0.3,0.7-0.3,1.1
			c0,0.4,0.1,0.8,0.2,1.1c0.1,0.3,0.3,0.6,0.6,0.8c0.3,0.3,0.6,0.5,1.1,0.8c0.4,0.3,1,0.6,1.6,0.9c0.7,0.4,1.2,0.7,1.7,1
			c0.5,0.3,0.9,0.7,1.2,1c0.3,0.4,0.6,0.7,0.7,1.2c0.2,0.4,0.2,0.9,0.2,1.4c0,0.7-0.1,1.3-0.4,1.8c-0.3,0.5-0.6,1-1.1,1.3
			c-0.5,0.3-1,0.6-1.6,0.8c-0.6,0.2-1.3,0.3-2.1,0.3c-0.2,0-0.5,0-0.9-0.1c-0.3,0-0.7-0.1-1-0.2c-0.4-0.1-0.7-0.2-1-0.3
			c-0.3-0.1-0.6-0.2-0.8-0.3V82.5z"/>
		<path class="st1" d="M67.8,79.4c0,0.7,0.1,1.3,0.3,1.9s0.4,1,0.8,1.4c0.3,0.4,0.7,0.7,1.2,0.9c0.5,0.2,1,0.3,1.6,0.3
			c1.3,0,2.5-0.4,3.6-1.3v1.4c-1.1,0.8-2.4,1.2-3.9,1.2c-0.8,0-1.4-0.1-2.1-0.4c-0.6-0.3-1.1-0.6-1.6-1.1c-0.4-0.5-0.8-1.1-1-1.9
			c-0.2-0.7-0.4-1.6-0.4-2.5c0-0.8,0.1-1.6,0.4-2.3c0.3-0.7,0.6-1.3,1.1-1.9c0.5-0.5,1-0.9,1.6-1.2c0.6-0.3,1.3-0.4,2-0.4
			c0.7,0,1.4,0.1,1.9,0.4c0.6,0.3,1,0.6,1.4,1.1c0.4,0.5,0.7,1,0.9,1.7c0.2,0.7,0.3,1.4,0.3,2.3v0.7H67.8z M74.5,78.2
			c0-1.2-0.3-2.1-0.8-2.7c-0.5-0.6-1.3-1-2.2-1c-0.5,0-0.9,0.1-1.3,0.3c-0.4,0.2-0.8,0.4-1.1,0.7c-0.3,0.3-0.6,0.7-0.8,1.2
			c-0.2,0.5-0.3,1-0.4,1.5H74.5z"/>
		<path class="st1" d="M84.3,75c-0.3-0.2-0.8-0.4-1.3-0.4c-0.4,0-0.7,0.1-1,0.2c-0.3,0.1-0.5,0.3-0.8,0.6s-0.4,0.5-0.5,0.8
			c-0.2,0.3-0.3,0.7-0.4,1c-0.1,0.3-0.2,0.7-0.2,1c0,0.4-0.1,0.7-0.1,1v5.5h-1.4V73.6h1.4V76h0c0.1-0.4,0.3-0.8,0.5-1.1
			c0.2-0.3,0.4-0.6,0.7-0.8c0.3-0.2,0.6-0.4,0.9-0.5c0.3-0.1,0.6-0.2,1-0.2c0.2,0,0.4,0,0.6,0c0.2,0,0.3,0.1,0.5,0.1V75z"/>
		<path class="st1" d="M91.3,84.8h-1.3l-4.3-11.3h1.6l3.1,8.6c0.2,0.5,0.3,1,0.4,1.4h0c0.1-0.5,0.2-1,0.3-1.3l3.2-8.6h1.5L91.3,84.8
			z"/>
		<path class="st1" d="M98.4,70.7c-0.3,0-0.5-0.1-0.7-0.3c-0.2-0.2-0.3-0.4-0.3-0.7c0-0.3,0.1-0.5,0.3-0.7c0.2-0.2,0.4-0.3,0.7-0.3
			c0.1,0,0.3,0,0.4,0.1c0.1,0,0.2,0.1,0.3,0.2c0.1,0.1,0.2,0.2,0.2,0.3c0.1,0.1,0.1,0.3,0.1,0.4c0,0.1,0,0.3-0.1,0.4
			c-0.1,0.1-0.1,0.2-0.2,0.3c-0.1,0.1-0.2,0.2-0.3,0.2C98.7,70.7,98.6,70.7,98.4,70.7z M97.7,84.8V73.6h1.4v11.3H97.7z"/>
		<path class="st1" d="M110.3,84.3c-0.8,0.5-1.8,0.8-3,0.8c-0.8,0-1.5-0.1-2.2-0.4c-0.6-0.3-1.2-0.7-1.6-1.2c-0.5-0.5-0.8-1.1-1-1.8
			c-0.2-0.7-0.4-1.4-0.4-2.3c0-0.8,0.1-1.6,0.4-2.4c0.3-0.7,0.6-1.4,1.1-1.9c0.5-0.6,1.1-1,1.8-1.3c0.7-0.3,1.5-0.5,2.4-0.5
			c0.9,0,1.8,0.2,2.6,0.5v1.5c-0.8-0.5-1.7-0.8-2.7-0.8c-0.7,0-1.3,0.1-1.8,0.4c-0.5,0.3-1,0.6-1.3,1c-0.4,0.4-0.6,0.9-0.8,1.5
			c-0.2,0.6-0.3,1.2-0.3,1.9c0,0.6,0.1,1.2,0.2,1.7c0.2,0.5,0.4,1,0.7,1.5c0.3,0.4,0.7,0.8,1.2,1c0.5,0.2,1.1,0.4,1.8,0.4
			c1.1,0,2-0.3,2.9-0.9V84.3z"/>
		<path class="st1" d="M113.6,79.4c0,0.7,0.1,1.3,0.3,1.9s0.4,1,0.8,1.4c0.3,0.4,0.7,0.7,1.2,0.9c0.5,0.2,1,0.3,1.6,0.3
			c1.3,0,2.5-0.4,3.6-1.3v1.4c-1.1,0.8-2.4,1.2-3.9,1.2c-0.8,0-1.4-0.1-2.1-0.4c-0.6-0.3-1.1-0.6-1.6-1.1c-0.4-0.5-0.8-1.1-1-1.9
			c-0.2-0.7-0.4-1.6-0.4-2.5c0-0.8,0.1-1.6,0.4-2.3c0.3-0.7,0.6-1.3,1.1-1.9c0.5-0.5,1-0.9,1.6-1.2c0.6-0.3,1.3-0.4,2-0.4
			c0.7,0,1.4,0.1,1.9,0.4c0.6,0.3,1,0.6,1.4,1.1c0.4,0.5,0.7,1,0.9,1.7c0.2,0.7,0.3,1.4,0.3,2.3v0.7H113.6z M120.3,78.2
			c0-1.2-0.3-2.1-0.8-2.7c-0.5-0.6-1.3-1-2.2-1c-0.5,0-0.9,0.1-1.3,0.3c-0.4,0.2-0.8,0.4-1.1,0.7c-0.3,0.3-0.6,0.7-0.8,1.2
			c-0.2,0.5-0.3,1-0.4,1.5H120.3z"/>
		<path class="st1" d="M40.6,111.7c-0.5,0.2-1,0.4-1.6,0.4c-1.8,0-2.7-1-2.7-3.1v-7.1h-2v-1.2h2v-2.8l1.4-0.5v3.3h2.9v1.2h-2.9v6.9
			c0,0.8,0.1,1.3,0.4,1.6c0.2,0.3,0.7,0.5,1.3,0.5c0.4,0,0.9-0.1,1.3-0.4V111.7z"/>
		<path class="st1" d="M47.3,112.1c-0.8,0-1.6-0.1-2.2-0.4c-0.7-0.3-1.2-0.7-1.7-1.2c-0.5-0.5-0.8-1.1-1.1-1.8
			c-0.2-0.7-0.4-1.5-0.4-2.4c0-0.9,0.1-1.8,0.4-2.5c0.3-0.7,0.6-1.4,1.1-1.9c0.5-0.5,1.1-0.9,1.8-1.2c0.7-0.3,1.5-0.4,2.3-0.4
			c0.8,0,1.5,0.1,2.2,0.4c0.7,0.3,1.2,0.7,1.7,1.2c0.5,0.5,0.8,1.1,1,1.8c0.2,0.7,0.4,1.6,0.4,2.5c0,0.9-0.1,1.7-0.4,2.4
			c-0.3,0.7-0.6,1.3-1.1,1.9c-0.5,0.5-1,0.9-1.7,1.2C49,112,48.2,112.1,47.3,112.1z M47.4,101.5c-0.6,0-1.2,0.1-1.7,0.3
			c-0.5,0.2-0.9,0.5-1.3,0.9c-0.4,0.4-0.6,0.9-0.8,1.5c-0.2,0.6-0.3,1.3-0.3,2c0,0.7,0.1,1.3,0.3,1.9c0.2,0.6,0.5,1,0.8,1.5
			c0.3,0.4,0.8,0.7,1.3,0.9c0.5,0.2,1.1,0.3,1.7,0.3c0.6,0,1.2-0.1,1.7-0.3c0.5-0.2,0.9-0.5,1.2-0.9c0.3-0.4,0.6-0.9,0.8-1.5
			c0.2-0.6,0.3-1.2,0.3-2c0-1.5-0.3-2.7-1-3.5C49.7,101.9,48.7,101.5,47.4,101.5z"/>
		<path class="st1" d="M68.5,112.1c-1.1,0-2.2-0.2-3.1-0.6c-0.9-0.4-1.7-1-2.3-1.7c-0.6-0.7-1.1-1.6-1.5-2.5c-0.3-1-0.5-2-0.5-3.1
			c0-1.2,0.2-2.4,0.5-3.4c0.3-1,0.8-1.9,1.5-2.6c0.7-0.7,1.5-1.3,2.4-1.7c0.9-0.4,2-0.6,3.2-0.6c1.1,0,2.1,0.2,3,0.6
			c0.9,0.4,1.6,1,2.3,1.7c0.6,0.7,1.1,1.5,1.4,2.5c0.3,1,0.5,2,0.5,3.2c0,1.2-0.2,2.3-0.5,3.3c-0.3,1-0.8,1.9-1.4,2.7
			c-0.6,0.7-1.4,1.3-2.3,1.8C70.7,111.9,69.7,112.1,68.5,112.1z M68.6,97.1c-1,0-1.8,0.2-2.5,0.5c-0.7,0.4-1.4,0.9-1.9,1.5
			c-0.5,0.6-0.9,1.3-1.1,2.2c-0.3,0.8-0.4,1.7-0.4,2.7c0,0.9,0.1,1.8,0.3,2.6c0.2,0.8,0.6,1.5,1.1,2.2c0.5,0.6,1.1,1.1,1.8,1.5
			c0.7,0.4,1.6,0.6,2.6,0.6c1,0,1.8-0.2,2.6-0.5c0.7-0.3,1.4-0.8,1.9-1.4c0.5-0.6,0.9-1.3,1.1-2.2c0.3-0.8,0.4-1.7,0.4-2.7
			c0-0.9-0.1-1.8-0.3-2.6c-0.2-0.8-0.6-1.6-1-2.2c-0.5-0.6-1.1-1.1-1.8-1.5C70.5,97.3,69.6,97.1,68.6,97.1z"/>
		<path class="st1" d="M83.7,111.7c-0.5,0.2-1,0.4-1.6,0.4c-1.8,0-2.7-1-2.7-3.1v-7.1h-2v-1.2h2v-2.8l1.4-0.5v3.3h2.9v1.2h-2.9v6.9
			c0,0.8,0.1,1.3,0.4,1.6c0.2,0.3,0.7,0.5,1.3,0.5c0.4,0,0.9-0.1,1.3-0.4V111.7z"/>
		<path class="st1" d="M93.6,111.8v-6.6c0-1.3-0.2-2.2-0.7-2.8c-0.5-0.6-1.2-0.9-2.1-0.9c-0.5,0-0.9,0.1-1.3,0.3
			c-0.4,0.2-0.8,0.4-1.1,0.8c-0.3,0.3-0.6,0.8-0.7,1.3c-0.2,0.5-0.3,1.1-0.3,1.7v6.3H86V95.2h1.4v7.4h0c0.9-1.5,2.1-2.2,3.8-2.2
			c1.3,0,2.2,0.4,2.8,1.2c0.6,0.8,0.9,1.9,0.9,3.4v7H93.6z"/>
		<path class="st1" d="M99.1,106.5c0,0.7,0.1,1.3,0.3,1.9s0.4,1,0.8,1.4c0.3,0.4,0.7,0.7,1.2,0.9c0.5,0.2,1,0.3,1.6,0.3
			c1.3,0,2.5-0.4,3.6-1.3v1.4c-1.1,0.8-2.4,1.2-3.9,1.2c-0.8,0-1.4-0.1-2.1-0.4c-0.6-0.3-1.1-0.6-1.6-1.1c-0.4-0.5-0.8-1.1-1-1.9
			c-0.2-0.7-0.4-1.6-0.4-2.5c0-0.8,0.1-1.6,0.4-2.3c0.3-0.7,0.6-1.3,1.1-1.9c0.5-0.5,1-0.9,1.6-1.2c0.6-0.3,1.3-0.4,2-0.4
			c0.7,0,1.4,0.1,1.9,0.4c0.6,0.3,1,0.6,1.4,1.1c0.4,0.5,0.7,1,0.9,1.7c0.2,0.7,0.3,1.4,0.3,2.3v0.7H99.1z M105.8,105.2
			c0-1.2-0.3-2.1-0.8-2.7c-0.5-0.6-1.3-1-2.2-1c-0.5,0-0.9,0.1-1.3,0.3c-0.4,0.2-0.8,0.4-1.1,0.7c-0.3,0.3-0.6,0.7-0.8,1.2
			c-0.2,0.5-0.3,1-0.4,1.5H105.8z"/>
		<path class="st1" d="M115.6,102c-0.3-0.2-0.8-0.4-1.3-0.4c-0.4,0-0.7,0.1-1,0.2c-0.3,0.1-0.5,0.3-0.8,0.6
			c-0.2,0.2-0.4,0.5-0.5,0.8c-0.2,0.3-0.3,0.7-0.4,1c-0.1,0.3-0.2,0.7-0.2,1c0,0.4-0.1,0.7-0.1,1v5.5H110v-11.3h1.4v2.4h0
			c0.1-0.4,0.3-0.8,0.5-1.1c0.2-0.3,0.4-0.6,0.7-0.8s0.6-0.4,0.9-0.5c0.3-0.1,0.6-0.2,1-0.2c0.2,0,0.4,0,0.6,0
			c0.2,0,0.3,0.1,0.5,0.1V102z"/>
		<path class="st1" d="M117.1,109.8c0.2,0.2,0.4,0.3,0.7,0.5c0.2,0.1,0.5,0.2,0.8,0.3c0.3,0.1,0.5,0.2,0.8,0.2
			c0.3,0,0.5,0.1,0.8,0.1c1.7,0,2.5-0.6,2.5-1.9c0-0.3-0.1-0.5-0.2-0.7c-0.1-0.2-0.3-0.4-0.5-0.6c-0.2-0.2-0.5-0.3-0.8-0.5
			c-0.3-0.1-0.7-0.3-1-0.5c-0.5-0.2-1-0.4-1.3-0.6s-0.7-0.5-0.9-0.7c-0.2-0.3-0.4-0.5-0.5-0.9c-0.1-0.3-0.2-0.7-0.2-1.1
			c0-0.5,0.1-0.9,0.3-1.3c0.2-0.4,0.5-0.7,0.9-1c0.4-0.3,0.8-0.5,1.3-0.6c0.5-0.1,1-0.2,1.5-0.2c1,0,1.8,0.2,2.6,0.5v1.5
			c-0.8-0.5-1.8-0.8-2.7-0.8c-0.4,0-0.7,0-1,0.1s-0.5,0.2-0.7,0.4c-0.2,0.2-0.4,0.4-0.5,0.6c-0.1,0.2-0.2,0.5-0.2,0.7
			c0,0.3,0,0.5,0.1,0.7c0.1,0.2,0.2,0.4,0.4,0.6c0.2,0.2,0.4,0.3,0.7,0.5c0.3,0.2,0.7,0.3,1.1,0.5c0.5,0.2,1,0.4,1.4,0.7
			c0.4,0.2,0.7,0.5,1,0.7c0.3,0.3,0.4,0.5,0.6,0.8c0.1,0.3,0.2,0.7,0.2,1.1c0,0.5-0.1,1-0.3,1.4c-0.2,0.4-0.5,0.7-0.9,1
			c-0.4,0.3-0.8,0.5-1.3,0.6c-0.5,0.1-1,0.2-1.6,0.2c-1.1,0-2.1-0.2-2.9-0.7V109.8z"/>
	</g>
</g>
</svg>
