<?xml version="1.0" encoding="UTF-8" standalone="no"?>
<!-- Generator: Adobe Illustrator 22.0.1, SVG Export Plug-In . SVG Version: 6.00 Build 0)  -->

<svg
   xmlns:dc="http://purl.org/dc/elements/1.1/"
   xmlns:cc="http://creativecommons.org/ns#"
   xmlns:rdf="http://www.w3.org/1999/02/22-rdf-syntax-ns#"
   xmlns:svg="http://www.w3.org/2000/svg"
   xmlns="http://www.w3.org/2000/svg"
   xmlns:sodipodi="http://sodipodi.sourceforge.net/DTD/sodipodi-0.dtd"
   xmlns:inkscape="http://www.inkscape.org/namespaces/inkscape"
   version="1.1"
   id="Layer_1"
   x="0px"
   y="0px"
   viewBox="0 0 290 230.00001"
   xml:space="preserve"
   sodipodi:docname="blue.svg"
   width="290"
   height="230"
   inkscape:version="0.92.3 (2405546, 2018-03-11)"><metadata
   id="metadata236"><rdf:RDF><cc:Work
       rdf:about=""><dc:format>image/svg+xml</dc:format><dc:type
         rdf:resource="http://purl.org/dc/dcmitype/StillImage" /><dc:title></dc:title></cc:Work></rdf:RDF></metadata><defs
   id="defs234" /><sodipodi:namedview
   pagecolor="#ffffff"
   bordercolor="#666666"
   borderopacity="1"
   objecttolerance="10"
   gridtolerance="10"
   guidetolerance="10"
   inkscape:pageopacity="0"
   inkscape:pageshadow="2"
   inkscape:window-width="1366"
   inkscape:window-height="731"
   id="namedview232"
   showgrid="false"
   inkscape:zoom="2.0527297"
   inkscape:cx="142.63168"
   inkscape:cy="112.94286"
   inkscape:window-x="1920"
   inkscape:window-y="0"
   inkscape:window-maximized="1"
   inkscape:current-layer="Layer_1" />
<style
   type="text/css"
   id="style191">
	.st0{fill:#FFF0E5;}
	.st1{fill:#106DB4;}
	.st2{fill:#414042;}
	.st3{fill:#BCBEC0;}
	.st4{fill:#6D6E71;}
	.st5{fill:#FFFFFF;}
	.st6{fill:#FFFFFF;stroke:#FFFFFF;stroke-miterlimit:10;}
	.st7{font-family:'SegoeUI-Light';}
	.st8{font-size:30px;}
</style>
<g
   id="g209"
   transform="matrix(1.1643837,0,0,1.1643837,-20.736672,-40.517166)">
	<g
   id="g203">
		<path
   class="st0"
   d="m 82.9,74.4 c 32.8,-32.8 86,-32.8 118.9,0 32.8,32.8 32.8,86 0,118.9 -32.8,32.8 -86,32.8 -118.9,0 -32.8,-32.9 -32.8,-86.1 0,-118.9 z"
   id="path193"
   inkscape:connector-curvature="0"
   style="fill:#fff0e5" />
		
			<circle
   transform="matrix(0.08876105,-0.9961,0.9961,0.08876105,-3.6041,263.7334)"
   class="st1"
   cx="142.3"
   cy="133.8"
   id="ellipse195"
   r="78.900002"
   style="fill:#106db4" />
		<g
   id="g199">
			<path
   class="st2"
   d="m 200.7,75.5 0.1,0.1 -0.9,0.9 -0.1,-0.1 C 199.4,76 199,75.6 198.6,75.2 l 0.9,-0.9 c 0.4,0.4 0.8,0.8 1.2,1.2 z m 1.4,1.4 c 0.4,0.5 0.9,0.9 1.3,1.4 l -0.9,0.8 c -0.4,-0.5 -0.8,-0.9 -1.3,-1.4 z m -4,-3.9 -0.8,0.9 c -0.5,-0.4 -0.9,-0.8 -1.4,-1.2 l 0.8,-0.9 c 0.5,0.3 0.9,0.8 1.4,1.2 z m 6.6,6.7 c 0.4,0.5 0.8,1 1.2,1.4 l -1,0.8 c -0.4,-0.5 -0.8,-0.9 -1.2,-1.4 z m -9.4,-9.2 -0.8,1 c -0.5,-0.4 -1,-0.8 -1.4,-1.2 l 0.8,-1 c 0.4,0.4 0.9,0.8 1.4,1.2 z m 11.8,12.1 c 0.4,0.5 0.8,1 1.2,1.5 l -1,0.8 c -0.4,-0.5 -0.8,-1 -1.1,-1.5 z m -14.8,-14.4 -0.8,1 c -0.5,-0.4 -1,-0.7 -1.5,-1.1 l 0.7,-1 c 0.6,0.3 1.1,0.7 1.6,1.1 z m 17,17.4 c 0.4,0.5 0.7,1 1.1,1.5 l -1,0.7 c -0.3,-0.5 -0.7,-1 -1.1,-1.5 z m -20,-19.7 -0.7,1 c -0.5,-0.4 -1,-0.7 -1.5,-1 l 0.7,-1 c 0.5,0.3 1,0.7 1.5,1 z m 22.2,22.8 c 0.3,0.5 0.7,1.1 1,1.6 l -1.1,0.7 c -0.3,-0.5 -0.7,-1 -1,-1.6 z M 186.2,63.9 185.5,65 c -0.5,-0.3 -1,-0.7 -1.6,-1 l 0.6,-1.1 c 0.6,0.3 1.1,0.6 1.7,1 z m 27.3,28 c 0.3,0.5 0.6,1.1 0.9,1.6 l -1.1,0.6 C 213,93.6 212.7,93 212.4,92.5 Z m -30.6,-30 -0.6,1.1 c -0.5,-0.3 -1.1,-0.6 -1.6,-0.9 l 0.6,-1.1 c 0.5,0.3 1.1,0.6 1.6,0.9 z m 32.4,33.3 c 0.3,0.6 0.6,1.1 0.9,1.7 l -1.1,0.6 c -0.3,-0.6 -0.6,-1.1 -0.9,-1.7 z m -35.7,-35 -0.6,1.1 c -0.6,-0.3 -1.1,-0.6 -1.7,-0.8 l 0.5,-1.1 c 0.7,0.2 1.2,0.5 1.8,0.8 z M 217,98.6 c 0.3,0.6 0.5,1.1 0.8,1.7 l -1.1,0.5 c -0.3,-0.6 -0.5,-1.1 -0.8,-1.7 z m -40.8,-40.1 -0.5,1.1 c -0.6,-0.3 -1.1,-0.5 -1.7,-0.7 l 0.5,-1.1 c 0.6,0.2 1.1,0.5 1.7,0.7 z m 42.3,43.5 c 0.2,0.6 0.5,1.2 0.7,1.7 l -1.2,0.5 c -0.2,-0.6 -0.5,-1.2 -0.7,-1.7 z m -45.8,-44.9 -0.5,1.2 c -0.6,-0.2 -1.1,-0.4 -1.7,-0.7 l 0.4,-1.2 c 0.7,0.2 1.3,0.5 1.8,0.7 z m 47.2,48.4 c 0.2,0.6 0.4,1.2 0.6,1.8 l -1.2,0.4 c -0.2,-0.6 -0.4,-1.2 -0.6,-1.8 z M 169.2,55.8 168.8,57 c -0.6,-0.2 -1.2,-0.4 -1.8,-0.6 l 0.4,-1.2 c 0.6,0.2 1.2,0.4 1.8,0.6 z m 51.9,53.3 c 0.2,0.6 0.4,1.2 0.5,1.8 l -1.2,0.3 c -0.2,-0.6 -0.3,-1.2 -0.5,-1.8 z m -55.4,-54.5 -0.3,1.2 c -0.6,-0.2 -1.2,-0.3 -1.8,-0.5 l 0.3,-1.2 c 0.6,0.2 1.2,0.4 1.8,0.5 z m 56.4,58.1 c 0.2,0.6 0.3,1.2 0.5,1.8 l -1.2,0.3 c -0.1,-0.6 -0.3,-1.2 -0.5,-1.8 z m -60.1,-59 -0.3,1.2 c -0.6,-0.1 -1.2,-0.3 -1.8,-0.4 l 0.3,-1.2 c 0.6,0.1 1.2,0.2 1.8,0.4 z m 61,62.7 c 0.1,0.6 0.3,1.2 0.4,1.8 l -1.2,0.2 c -0.1,-0.6 -0.2,-1.2 -0.4,-1.8 z m -64.6,-63.5 -0.2,1.2 C 157.6,54 157,53.9 156.4,53.8 l 0.2,-1.2 c 0.5,0 1.1,0.1 1.8,0.3 z m 65.3,67.2 c 0.1,0.6 0.2,1.2 0.3,1.9 l -1.2,0.2 c -0.1,-0.6 -0.2,-1.2 -0.3,-1.8 z m -69,-67.9 -0.2,1.2 c -0.6,-0.1 -1.2,-0.2 -1.8,-0.3 l 0.2,-1.2 c 0.5,0.1 1.1,0.2 1.8,0.3 z m 69.6,71.6 c 0.1,0.6 0.1,1.2 0.2,1.9 l -1.2,0.1 c -0.1,-0.6 -0.1,-1.2 -0.2,-1.8 z m -73.4,-72.1 -0.1,1.2 c -0.6,-0.1 -1.2,-0.1 -1.8,-0.2 l 0.1,-1.2 c 0.6,0.1 1.2,0.2 1.8,0.2 z m 73.7,75.9 c 0,0.6 0.1,1.3 0.1,1.9 l -1.2,0.1 c 0,-0.6 -0.1,-1.2 -0.1,-1.8 z m -77.4,-76.2 -0.1,1.2 c -0.6,0 -1.2,-0.1 -1.8,-0.1 v -1.2 c 0.6,0.1 1.3,0.1 1.9,0.1 z m 77.6,79.9 c 0,0.6 0,1.3 0,1.9 h -1.2 c 0,-0.6 0,-1.2 0,-1.9 z m -81.4,-80 v 1.2 c -0.6,0 -1.2,0 -1.9,0 v -1.2 c 0.7,0 1.3,0 1.9,0 z m 81.5,83.8 c 0,0.6 0,1.3 0,1.9 h -1.2 c 0,-0.6 0,-1.2 0,-1.9 z M 139.7,51.3 v 1.2 c -0.6,0 -1.2,0 -1.9,0.1 l -0.1,-1.2 c 0.7,0 1.3,0 2,-0.1 z m 85,87.5 c 0,0.6 -0.1,1.2 -0.1,1.9 l -1.2,-0.1 c 0.1,-0.6 0.1,-1.2 0.1,-1.8 z m -88.8,-87.3 0.1,1.2 c -0.6,0 -1.2,0.1 -1.8,0.2 l -0.1,-1.2 c 0.6,0 1.2,-0.1 1.8,-0.2 z m 88.5,91.1 c -0.1,0.6 -0.1,1.2 -0.2,1.9 l -1.2,-0.2 c 0.1,-0.6 0.2,-1.2 0.2,-1.8 z m -92.2,-90.7 0.2,1.2 c -0.6,0.1 -1.2,0.2 -1.8,0.2 l -0.2,-1.2 c 0.5,0 1.1,-0.1 1.8,-0.2 z m 91.7,94.4 c -0.1,0.6 -0.2,1.2 -0.3,1.9 l -1.2,-0.2 c 0.1,-0.6 0.2,-1.2 0.3,-1.8 z m -95.5,-93.8 0.2,1.2 c -0.6,0.1 -1.2,0.2 -1.8,0.3 l -0.2,-1.2 c 0.6,-0.1 1.2,-0.2 1.8,-0.3 z m 94.9,97.5 c -0.1,0.6 -0.3,1.2 -0.4,1.8 l -1.2,-0.3 c 0.1,-0.6 0.3,-1.2 0.4,-1.8 z m -98.6,-96.8 0.3,1.2 c -0.6,0.1 -1.2,0.3 -1.8,0.4 l -0.3,-1.2 c 0.6,-0.1 1.2,-0.3 1.8,-0.4 z m 97.8,100.5 c -0.2,0.6 -0.3,1.2 -0.5,1.8 l -1.2,-0.3 c 0.2,-0.6 0.3,-1.2 0.5,-1.8 z m -101.4,-99.6 0.3,1.2 c -0.6,0.2 -1.2,0.3 -1.8,0.5 l -0.3,-1.2 c 0.6,-0.2 1.2,-0.4 1.8,-0.5 z m 100.4,103.2 c -0.2,0.6 -0.4,1.2 -0.6,1.8 l -1.2,-0.4 c 0.2,-0.6 0.4,-1.2 0.5,-1.8 z m -104,-102.2 0.4,1.2 c -0.6,0.2 -1.2,0.4 -1.8,0.6 l -0.4,-1.2 c 0.6,-0.2 1.2,-0.4 1.8,-0.6 z m 102.8,105.8 c -0.2,0.6 -0.4,1.2 -0.6,1.8 l -1.2,-0.4 c 0.2,-0.6 0.4,-1.2 0.6,-1.7 z M 113.9,56.3 l 0.4,1.2 c -0.6,0.2 -1.2,0.4 -1.7,0.7 L 112.1,57 c 0.6,-0.2 1.2,-0.4 1.8,-0.7 z M 219,164.4 c -0.2,0.6 -0.5,1.2 -0.7,1.7 l -1.1,-0.5 c 0.2,-0.6 0.5,-1.1 0.7,-1.7 z M 110.4,57.7 l 0.5,1.1 c -0.6,0.2 -1.1,0.5 -1.7,0.7 l -0.5,-1.1 c 0.5,-0.2 1.1,-0.4 1.7,-0.7 z m 107.2,110.2 c -0.3,0.6 -0.5,1.1 -0.8,1.7 l -1.1,-0.5 c 0.3,-0.6 0.5,-1.1 0.8,-1.7 z M 106.9,59.3 l 0.5,1.1 c -0.6,0.3 -1.1,0.5 -1.7,0.8 l -0.6,-1.1 c 0.7,-0.3 1.3,-0.6 1.8,-0.8 z m 109,111.9 c -0.3,0.6 -0.6,1.1 -0.9,1.7 l -1.1,-0.6 c 0.3,-0.5 0.6,-1.1 0.9,-1.6 z M 103.5,61 l 0.6,1.1 c -0.5,0.3 -1.1,0.6 -1.6,0.9 l -0.6,-1.1 c 0.5,-0.3 1.1,-0.6 1.6,-0.9 z m 110.7,113.6 c -0.3,0.5 -0.6,1.1 -0.9,1.6 l -1.1,-0.6 c 0.3,-0.5 0.6,-1.1 0.9,-1.6 z M 100.3,62.8 l 0.6,1.1 c -0.5,0.3 -1.1,0.6 -1.6,1 l -0.7,-1.1 c 0.6,-0.4 1.1,-0.7 1.7,-1 z m 111.9,115 c -0.3,0.5 -0.7,1.1 -1,1.6 l -1,-0.7 c 0.3,-0.5 0.7,-1 1,-1.6 z m -115.1,-113 0.7,1 c -0.5,0.3 -1,0.7 -1.5,1 l -0.7,-1 c 0.4,-0.3 1,-0.7 1.5,-1 z m 113,116.1 c -0.4,0.5 -0.7,1 -1.1,1.5 l -1,-0.7 c 0.4,-0.5 0.7,-1 1.1,-1.5 z M 94,66.9 l 0.7,1 c -0.5,0.4 -1,0.7 -1.5,1.1 L 92.4,68 C 93,67.7 93.5,67.3 94,66.9 Z M 207.9,184 c -0.4,0.5 -0.8,1 -1.2,1.5 l -1,-0.8 c 0.4,-0.5 0.8,-1 1.1,-1.5 z M 91,69.2 l 0.8,1 c -0.5,0.4 -1,0.8 -1.4,1.2 l -0.8,-1 C 90,70 90.5,69.6 91,69.2 Z m 114.6,117.7 c -0.4,0.5 -0.8,1 -1.2,1.4 l -0.9,-0.8 c 0.4,-0.5 0.8,-0.9 1.2,-1.4 z M 88.1,71.6 l 0.8,0.9 c -0.5,0.4 -0.9,0.8 -1.4,1.2 l -0.8,-0.9 c 0.5,-0.4 0.9,-0.8 1.4,-1.2 z m 115,118.1 c -0.4,0.5 -0.9,0.9 -1.3,1.4 l -0.9,-0.9 c 0.4,-0.4 0.9,-0.9 1.3,-1.3 z M 85.3,74.2 l 0.9,0.9 c -0.4,0.4 -0.9,0.9 -1.3,1.3 L 84,75.5 c 0.4,-0.5 0.9,-0.9 1.3,-1.3 z m 114.3,117.3 0.9,0.9 c -0.4,0.4 -0.9,0.9 -1.3,1.3 l -0.9,-0.9 c 0.4,-0.4 0.9,-0.8 1.3,-1.3 z M 84,77.2 c -0.4,0.4 -0.9,0.9 -1.3,1.3 l -0.9,-0.8 c 0.4,-0.5 0.9,-0.9 1.3,-1.4 z m 112.9,116.9 0.8,0.9 c -0.5,0.4 -0.9,0.8 -1.4,1.2 l -0.8,-0.9 c 0.5,-0.4 0.9,-0.8 1.4,-1.2 z M 81.5,79.9 c -0.4,0.5 -0.8,0.9 -1.2,1.4 l -1,-0.8 c 0.4,-0.5 0.8,-1 1.2,-1.4 z m 112.6,116.6 0.8,1 c -0.5,0.4 -1,0.8 -1.5,1.2 l -0.8,-1 c 0.6,-0.4 1,-0.8 1.5,-1.2 z M 79.1,82.8 c -0.4,0.5 -0.8,1 -1.1,1.5 l -1,-0.8 c 0.4,-0.5 0.8,-1 1.2,-1.5 z m 112.1,116 0.8,1 c -0.5,0.4 -1,0.7 -1.5,1.1 l -0.7,-1 c 0.4,-0.3 0.9,-0.7 1.4,-1.1 z M 76.8,85.7 c -0.4,0.5 -0.7,1 -1.1,1.5 l -1,-0.7 c 0.4,-0.5 0.7,-1 1.1,-1.5 z m 111.4,115.3 0.7,1 c -0.5,0.4 -1,0.7 -1.6,1 l -0.7,-1 c 0.6,-0.3 1.1,-0.7 1.6,-1 z M 74.7,88.7 c -0.3,0.5 -0.7,1 -1,1.6 l -1.1,-0.7 c 0.3,-0.5 0.7,-1.1 1,-1.6 z m 110.4,114.3 0.7,1.1 c -0.5,0.3 -1.1,0.7 -1.6,1 l -0.6,-1.1 c 0.4,-0.4 1,-0.7 1.5,-1 z M 72.7,91.9 c -0.3,0.5 -0.6,1.1 -0.9,1.6 l -1.1,-0.6 c 0.3,-0.5 0.6,-1.1 1,-1.6 z m 109.2,113 0.6,1.1 c -0.5,0.3 -1.1,0.6 -1.7,0.9 l -0.6,-1.1 c 0.6,-0.3 1.2,-0.6 1.7,-0.9 z M 70.9,95.1 c -0.3,0.5 -0.6,1.1 -0.9,1.6 l -1.1,-0.6 c 0.3,-0.6 0.6,-1.1 0.9,-1.7 z m 107.7,111.5 0.6,1.1 c -0.6,0.3 -1.1,0.6 -1.7,0.8 l -0.5,-1.1 c 0.5,-0.2 1.1,-0.5 1.6,-0.8 z M 69.2,98.4 c -0.3,0.6 -0.5,1.1 -0.8,1.7 l -1.1,-0.5 c 0.3,-0.6 0.5,-1.1 0.8,-1.7 z m 106,109.8 0.5,1.1 c -0.6,0.3 -1.2,0.5 -1.7,0.7 l -0.5,-1.1 c 0.6,-0.2 1.2,-0.5 1.7,-0.7 z M 67.6,101.7 c -0.2,0.6 -0.5,1.1 -0.7,1.7 l -1.2,-0.5 c 0.2,-0.6 0.5,-1.2 0.7,-1.7 z m 104.2,107.9 0.5,1.2 c -0.6,0.2 -1.2,0.4 -1.8,0.7 l -0.4,-1.2 c 0.6,-0.2 1.1,-0.5 1.7,-0.7 z M 66.2,105.2 c -0.2,0.6 -0.4,1.2 -0.6,1.7 l -1.2,-0.4 c 0.2,-0.6 0.4,-1.2 0.6,-1.8 z m 102.1,105.7 0.4,1.2 c -0.6,0.2 -1.2,0.4 -1.8,0.6 l -0.4,-1.2 c 0.6,-0.2 1.2,-0.4 1.8,-0.6 z M 65,108.7 c -0.2,0.6 -0.4,1.2 -0.5,1.8 l -1.2,-0.4 c 0.2,-0.6 0.4,-1.2 0.6,-1.8 z m 99.8,103.3 0.3,1.2 c -0.6,0.2 -1.2,0.3 -1.8,0.5 l -0.3,-1.2 c 0.6,-0.2 1.2,-0.3 1.8,-0.5 z M 64,112.2 c -0.2,0.6 -0.3,1.2 -0.5,1.8 l -1.2,-0.3 c 0.2,-0.6 0.3,-1.2 0.5,-1.8 z m 97.2,100.7 0.3,1.2 c -0.6,0.1 -1.2,0.3 -1.8,0.4 l -0.3,-1.2 c 0.6,-0.1 1.2,-0.2 1.8,-0.4 z M 63.1,115.8 c -0.1,0.6 -0.3,1.2 -0.4,1.8 l -1.2,-0.2 c 0.1,-0.6 0.3,-1.2 0.4,-1.8 z m 94.4,97.9 0.2,1.2 c -0.6,0.1 -1.2,0.2 -1.9,0.3 l -0.2,-1.2 c 0.7,-0.1 1.3,-0.2 1.9,-0.3 z M 62.3,119.4 c -0.1,0.6 -0.2,1.2 -0.3,1.8 L 60.8,121 c 0.1,-0.6 0.2,-1.2 0.3,-1.9 z m 91.6,94.9 0.2,1.2 c -0.6,0.1 -1.2,0.2 -1.9,0.2 l -0.1,-1.2 c 0.6,0 1.2,-0.1 1.8,-0.2 z M 61.8,123.1 c -0.1,0.6 -0.2,1.2 -0.2,1.8 l -1.2,-0.1 c 0.1,-0.6 0.1,-1.2 0.2,-1.9 z m 88.4,91.7 0.1,1.2 c -0.6,0.1 -1.2,0.1 -1.9,0.2 l -0.1,-1.2 c 0.7,-0.1 1.3,-0.2 1.9,-0.2 z M 61.4,126.7 c -0.1,0.6 -0.1,1.2 -0.1,1.8 l -1.2,-0.1 c 0,-0.6 0.1,-1.2 0.1,-1.9 z m 85.1,88.3 0.1,1.2 c -0.6,0 -1.3,0.1 -1.9,0.1 v -1.2 c 0.6,0 1.2,0 1.8,-0.1 z M 61.1,130.4 c 0,0.6 0,1.2 -0.1,1.9 h -1.2 c 0,-0.6 0,-1.3 0.1,-1.9 z m 81.7,84.7 v 1.2 c -0.6,0 -1.3,0 -1.9,0 v -1.2 c 0.7,0 1.3,0 1.9,0 z M 61,134.1 c 0,0.6 0,1.2 0,1.9 h -1.2 c 0,-0.6 0,-1.3 0,-1.9 z m 78.1,81 v 1.2 c -0.6,0 -1.3,-0.1 -1.9,-0.1 l 0.1,-1.2 c 0.6,0 1.2,0 1.8,0.1 z m -78,-77.2 c 0,0.6 0.1,1.2 0.1,1.9 l -1.2,0.1 c 0,-0.6 -0.1,-1.3 -0.1,-1.9 z m 74.3,76.9 -0.1,1.2 c -0.6,-0.1 -1.2,-0.1 -1.9,-0.2 l 0.1,-1.2 c 0.7,0.1 1.3,0.2 1.9,0.2 z m -74,-73.2 c 0.1,0.6 0.1,1.2 0.2,1.8 l -1.2,0.1 c -0.1,-0.6 -0.1,-1.2 -0.2,-1.9 z m 70.3,72.8 -0.2,1.2 c -0.6,-0.1 -1.2,-0.2 -1.9,-0.3 l 0.2,-1.2 c 0.7,0.2 1.3,0.3 1.9,0.3 z M 61.8,145.2 c 0.1,0.6 0.2,1.2 0.3,1.8 l -1.2,0.2 c -0.1,-0.6 -0.2,-1.2 -0.3,-1.9 z m 66.3,68.7 -0.2,1.2 c -0.6,-0.1 -1.2,-0.2 -1.8,-0.3 l 0.2,-1.2 c 0.6,0.1 1.2,0.2 1.8,0.3 z m -65.7,-65 c 0.1,0.6 0.2,1.2 0.4,1.8 l -1.2,0.3 c -0.1,-0.6 -0.3,-1.2 -0.4,-1.8 z m 62,64.2 -0.3,1.2 c -0.6,-0.1 -1.2,-0.3 -1.8,-0.4 l 0.3,-1.2 c 0.6,0.2 1.2,0.3 1.8,0.4 z M 63.2,152.5 c 0.1,0.6 0.3,1.2 0.4,1.8 l -1.2,0.3 c -0.2,-0.6 -0.3,-1.2 -0.5,-1.8 z m 57.6,59.8 -0.3,1.2 c -0.6,-0.2 -1.2,-0.3 -1.8,-0.5 l 0.4,-1.2 c 0.6,0.1 1.2,0.3 1.7,0.5 z M 64.1,156.1 c 0.2,0.6 0.3,1.2 0.5,1.8 l -1.2,0.4 c -0.2,-0.6 -0.4,-1.2 -0.5,-1.8 z m 53.2,55.1 -0.4,1.2 c -0.6,-0.2 -1.2,-0.4 -1.8,-0.6 l 0.4,-1.2 c 0.6,0.2 1.2,0.4 1.8,0.6 z M 65.2,159.7 c 0.2,0.6 0.4,1.2 0.6,1.8 l -1.2,0.4 c -0.2,-0.6 -0.4,-1.2 -0.6,-1.8 z m 48.6,50.3 -0.4,1.2 c -0.6,-0.2 -1.2,-0.4 -1.7,-0.7 l 0.5,-1.2 c 0.5,0.2 1,0.5 1.6,0.7 z M 66.5,163.2 c 0.2,0.6 0.5,1.2 0.7,1.7 l -1.2,0.5 c -0.2,-0.6 -0.5,-1.2 -0.7,-1.8 z m 43.9,45.4 -0.5,1.1 c -0.6,-0.2 -1.1,-0.5 -1.7,-0.8 l 0.5,-1.1 c 0.6,0.3 1.1,0.6 1.7,0.8 z m -42.5,-42 c 0.2,0.6 0.5,1.1 0.8,1.7 l -1.1,0.5 c -0.3,-0.6 -0.5,-1.1 -0.8,-1.7 z m 39.1,40.5 -0.5,1.1 c -0.6,-0.3 -1.1,-0.6 -1.7,-0.8 l 0.6,-1.1 c 0.5,0.2 1.1,0.5 1.6,0.8 z M 69.5,170 c 0.3,0.6 0.6,1.1 0.8,1.7 l -1.1,0.6 c -0.3,-0.6 -0.6,-1.1 -0.9,-1.7 z m 34.2,35.4 -0.6,1.1 c -0.6,-0.3 -1.1,-0.6 -1.6,-0.9 l 0.6,-1.1 c 0.5,0.3 1.1,0.6 1.6,0.9 z M 71.2,173.3 c 0.3,0.5 0.6,1.1 0.9,1.6 l -1.1,0.6 c -0.3,-0.5 -0.6,-1.1 -0.9,-1.6 z m 29.3,30.3 -0.6,1.1 c -0.5,-0.3 -1.1,-0.7 -1.6,-1 l 0.7,-1.1 c 0.4,0.3 1,0.6 1.5,1 z M 73.1,176.4 c 0.3,0.5 0.7,1 1,1.6 l -1,0.7 c -0.3,-0.5 -0.7,-1.1 -1,-1.6 z m 24.3,25.2 -0.7,1 c -0.5,-0.3 -1,-0.7 -1.6,-1.1 l 0.7,-1 c 0.5,0.4 1.1,0.7 1.6,1.1 z m -22.3,-22 c 0.3,0.5 0.7,1 1.1,1.5 l -1,0.7 c -0.4,-0.5 -0.7,-1 -1.1,-1.5 z m 19.2,19.9 -0.7,1 c -0.5,-0.4 -1,-0.7 -1.5,-1.1 l 0.8,-1 c 0.4,0.3 0.9,0.7 1.4,1.1 z m -17,-16.9 c 0.4,0.5 0.7,1 1.1,1.5 l -1,0.8 c -0.4,-0.5 -0.8,-1 -1.1,-1.5 z m 14.1,14.6 -0.8,1 c -0.5,-0.4 -1,-0.8 -1.5,-1.2 l 0.8,-1 c 0.5,0.4 1,0.8 1.5,1.2 z M 79.6,185.5 c 0.4,0.5 0.8,0.9 1.2,1.4 l -0.9,0.8 c -0.4,-0.5 -0.8,-1 -1.2,-1.4 z m 9,9.3 -0.8,0.9 c -0.5,-0.4 -0.9,-0.8 -1.4,-1.3 l 0.8,-0.9 c 0.4,0.5 0.9,0.9 1.4,1.3 z M 82,188.3 c 0.4,0.5 0.8,0.9 1.3,1.4 l -0.9,0.9 c -0.4,-0.5 -0.9,-0.9 -1.3,-1.4 z m 3.8,4 -0.9,0.9 c -0.3,-0.3 -0.7,-0.7 -1,-1 l -0.3,-0.3 0.9,-0.9 0.3,0.3 c 0.4,0.3 0.7,0.7 1,1 z"
   id="path197"
   inkscape:connector-curvature="0"
   style="fill:#414042" />
		</g>
		<polygon
   class="st3"
   points="82.4,141.4 103,136.3 81.9,133.8 103,131.4 82.4,126.3 103.6,126.4 83.8,118.8 104.9,121.7 86.1,111.6 106.7,117.1 89.4,104.7 109.1,112.7 93.4,98.3 112,108.7 98.3,92.5 115.4,105.1 103.8,87.3 119.2,102 109.9,82.8 123.4,99.3 116.6,79.1 127.8,97.2 123.7,76.3 132.5,95.7 131,74.5 137.4,94.8 138.6,73.5 142.3,94.5 146.1,73.5 147.3,94.8 153.7,74.5 152.1,95.7 161,76.3 156.8,97.2 168.1,79.1 161.3,99.3 174.7,82.8 165.5,102 180.9,87.3 169.3,105.1 186.4,92.5 172.7,108.7 191.2,98.3 175.6,112.7 195.3,104.7 178,117.1 198.5,111.6 179.8,121.7 200.9,118.8 181,126.4 202.3,126.3 181.6,131.4 202.8,133.8 181.6,136.3 202.3,141.4 181,141.2 200.9,148.9 179.8,146 198.5,156.1 178,150.6 195.3,163 175.6,154.9 191.2,169.4 172.7,158.9 186.4,175.2 169.3,162.6 180.9,180.4 165.5,165.7 174.7,184.9 161.3,168.4 168.1,188.5 156.8,170.5 161,191.3 152.1,172 153.7,193.2 147.3,172.9 146.1,194.2 142.3,173.2 138.6,194.2 137.4,172.9 131,193.2 132.5,172 123.7,191.3 127.8,170.5 116.6,188.5 123.4,168.4 109.9,184.9 119.2,165.7 103.8,180.4 115.4,162.5 98.3,175.2 112,158.9 93.4,169.4 109.1,154.9 89.4,163 106.7,150.6 86.1,156.1 104.9,146 83.8,148.9 103.6,141.2 "
   id="polygon201"
   style="fill:#bcbec0" />
	</g>
	<g
   id="g207">
		<path
   class="st4"
   d="M 231.5,133.8 252,115.1 H 189.5 C 182,95.9 163.3,82.3 141.4,82.3 c -21.9,0 -40.6,13.6 -48.1,32.8 H 30.8 l 20.5,18.7 -20.5,18.7 h 62.5 c 7.5,19.2 26.2,32.8 48.1,32.8 21.9,0 40.6,-13.6 48.1,-32.8 H 252 Z"
   id="path205"
   inkscape:connector-curvature="0"
   style="fill:#6d6e71" />
	</g>
</g>
<path
   class="st5"
   d="m 145.30444,172.33217 c -23.63699,0 -44.59589,-14.20548 -53.21233,-36.32877 l -1.047946,-2.79452 H 24.90717 L 44.468816,115.27737 24.90717,97.34586 h 66.136994 l 1.164384,-2.794524 c 8.616432,-22.123289 29.458902,-36.328765 53.212332,-36.328765 23.637,0 44.5959,14.205476 53.21233,36.328765 l 1.04795,2.794524 h 66.02056 l -19.56165,17.93151 19.56165,17.93151 h -66.13699 l -1.04795,2.79452 c -8.61645,22.00685 -29.4589,36.32877 -53.21234,36.32877 z M 28.167444,131.92805 h 63.808227 l 1.39726,3.6096 c 8.383569,21.5411 28.876719,35.5137 52.047949,35.5137 23.17124,0 43.54796,-13.9726 52.04795,-35.5137 l 1.39726,-3.6096 h 63.80824 l -18.28084,-16.65068 18.28084,-16.650688 h -63.80824 l -1.39726,-3.609588 c -8.38356,-21.541101 -28.87671,-35.513701 -52.04795,-35.513701 -23.17123,0 -43.54795,13.9726 -52.047949,35.513701 l -1.39726,3.609588 H 28.167444 l 18.280824,16.650688 z"
   id="path211"
   inkscape:connector-curvature="0"
   style="fill:#ffffff;stroke-width:1.16438377" />
<text
   class="st6 st7 st8"
   id="text213"
   style="font-size:34.93151093px;font-family:SegoeUI-Light;fill:#ffffff;stroke:#ffffff;stroke-width:1.16438377;stroke-miterlimit:10"
   x="114.3709"
   y="127.56345"><tspan
     style="font-style:normal;font-variant:normal;font-weight:normal;font-stretch:normal;font-family:Dosis;-inkscape-font-specification:Dosis;stroke-width:1.16438377"
     id="tspan11843">Blue</tspan></text>




<g
   id="g229"
   transform="matrix(1.1643837,0,0,1.1643837,-20.736672,-40.517166)">
	<g
   id="g227">
		<g
   id="g217">
			<polygon
   class="st5"
   points="143.3,164 143.9,164.7 149.1,164.7 143.6,159 138.4,159 "
   id="polygon215"
   style="fill:#ffffff" />
		</g>
		<g
   id="g221">
			<polygon
   class="st5"
   points="143.6,170.4 149.1,164.7 143.9,164.7 143.3,165.4 138.4,170.4 "
   id="polygon219"
   style="fill:#ffffff" />
		</g>
		<g
   id="g225">
			<polygon
   class="st5"
   points="137.3,169.8 142.2,164.7 137.3,159.6 132.4,164.7 "
   id="polygon223"
   style="fill:#ffffff" />
		</g>
	</g>
</g>
</svg>