<?xml version="1.0" encoding="utf-8"?>
<!-- Generator: Adobe Illustrator 22.0.1, SVG Export Plug-In . SVG Version: 6.00 Build 0)  -->
<svg version="1.1" id="Layer_1" xmlns="http://www.w3.org/2000/svg" xmlns:xlink="http://www.w3.org/1999/xlink" x="0px" y="0px"
	 viewBox="0 0 155.9 155.9" style="enable-background:new 0 0 155.9 155.9;" xml:space="preserve">
<style type="text/css">
	.st0{fill-rule:evenodd;clip-rule:evenodd;fill:#106DB4;}
	.st1{fill:#FFFFFF;stroke:#FFFFFF;stroke-miterlimit:10;}
</style>
<g>
	<g>
		<g>
			<circle class="st0" cx="77.6" cy="77.1" r="70.9"/>
		</g>
	</g>
	<g>
		<path class="st1" d="M50.7,71.5V55.7h4.3c0.7,0,1.2,0.1,1.8,0.3s1,0.4,1.3,0.7c0.4,0.3,0.7,0.7,0.9,1.1c0.2,0.4,0.3,0.9,0.3,1.5
			c0,0.5-0.1,0.9-0.2,1.3c-0.1,0.4-0.3,0.8-0.5,1.1c-0.2,0.3-0.5,0.6-0.9,0.8c-0.3,0.2-0.7,0.4-1.2,0.6v0c0.5,0.1,1,0.2,1.4,0.4
			c0.4,0.2,0.8,0.5,1.1,0.8c0.3,0.3,0.5,0.7,0.7,1.2c0.2,0.4,0.3,0.9,0.3,1.5c0,0.7-0.1,1.3-0.4,1.8s-0.6,1-1,1.4
			c-0.4,0.4-1,0.7-1.6,0.9c-0.6,0.2-1.3,0.3-2,0.3H50.7z M52.2,57v5.6h2c0.5,0,1-0.1,1.5-0.2c0.4-0.1,0.8-0.3,1.1-0.6
			c0.3-0.3,0.5-0.6,0.7-1c0.2-0.4,0.2-0.8,0.2-1.3c0-1.7-1.1-2.6-3.2-2.6H52.2z M52.2,64v6.2h2.7c1.2,0,2.1-0.3,2.7-0.8
			c0.6-0.5,0.9-1.3,0.9-2.3c0-2-1.4-3-4.1-3H52.2z"/>
		<path class="st1" d="M68.7,61.6c-0.3-0.2-0.8-0.4-1.3-0.4c-0.4,0-0.7,0.1-1,0.2c-0.3,0.1-0.5,0.3-0.8,0.6s-0.4,0.5-0.5,0.8
			c-0.2,0.3-0.3,0.7-0.4,1c-0.1,0.3-0.2,0.7-0.2,1c0,0.4-0.1,0.7-0.1,1v5.5h-1.4V60.2h1.4v2.4h0c0.1-0.4,0.3-0.8,0.5-1.1
			c0.2-0.3,0.4-0.6,0.7-0.8c0.3-0.2,0.6-0.4,0.9-0.5c0.3-0.1,0.6-0.2,1-0.2c0.2,0,0.4,0,0.6,0s0.3,0.1,0.5,0.1V61.6z"/>
		<path class="st1" d="M71.4,57.4c-0.3,0-0.5-0.1-0.7-0.3s-0.3-0.4-0.3-0.7c0-0.3,0.1-0.5,0.3-0.7c0.2-0.2,0.4-0.3,0.7-0.3
			c0.1,0,0.3,0,0.4,0.1c0.1,0,0.2,0.1,0.3,0.2c0.1,0.1,0.2,0.2,0.2,0.3c0.1,0.1,0.1,0.3,0.1,0.4c0,0.1,0,0.3-0.1,0.4
			c-0.1,0.1-0.1,0.2-0.2,0.3c-0.1,0.1-0.2,0.2-0.3,0.2C71.7,57.3,71.6,57.4,71.4,57.4z M70.7,71.5V60.2h1.4v11.3H70.7z"/>
		<path class="st1" d="M83.4,71.5V65c0-2.5-0.9-3.8-2.8-3.8c-0.5,0-0.9,0.1-1.4,0.3c-0.4,0.2-0.8,0.5-1.1,0.8
			c-0.3,0.3-0.5,0.8-0.7,1.2c-0.2,0.5-0.3,1-0.3,1.5v6.4h-1.4V60.2h1.4v2h0c0.8-1.5,2.1-2.2,3.8-2.2c1.2,0,2.2,0.4,2.8,1.2
			c0.6,0.8,1,2,1,3.5v6.9H83.4z"/>
		<path class="st1" d="M97.5,70.6c0,2.1-0.5,3.6-1.4,4.6c-0.9,1-2.4,1.5-4.4,1.5c-1.2,0-2.4-0.3-3.5-0.8v-1.4c1.2,0.7,2.4,1,3.5,1
			c2.9,0,4.4-1.6,4.4-4.7v-1.4h0c-0.9,1.5-2.2,2.2-4,2.2c-0.7,0-1.3-0.1-1.9-0.4c-0.6-0.3-1.1-0.6-1.5-1.1c-0.4-0.5-0.7-1.1-1-1.8
			c-0.2-0.7-0.3-1.5-0.3-2.3c0-0.9,0.1-1.8,0.4-2.5c0.2-0.8,0.6-1.4,1-2c0.4-0.5,1-1,1.6-1.3c0.6-0.3,1.3-0.4,2.1-0.4
			c1.6,0,2.8,0.6,3.5,1.9h0v-1.7h1.4V70.6z M96.1,64.6c0-0.5-0.1-0.9-0.3-1.3c-0.2-0.4-0.4-0.8-0.7-1.1c-0.3-0.3-0.7-0.6-1.1-0.8
			c-0.4-0.2-0.9-0.3-1.4-0.3c-0.6,0-1.1,0.1-1.6,0.3c-0.5,0.2-0.9,0.5-1.2,1c-0.3,0.4-0.6,0.9-0.8,1.5c-0.2,0.6-0.3,1.3-0.3,2
			c0,0.7,0.1,1.3,0.3,1.9c0.2,0.6,0.4,1,0.7,1.4c0.3,0.4,0.7,0.7,1.1,0.9c0.4,0.2,0.9,0.3,1.5,0.3c0.6,0,1.1-0.1,1.5-0.3
			c0.5-0.2,0.8-0.5,1.2-0.8c0.3-0.4,0.6-0.8,0.7-1.3c0.2-0.5,0.3-1,0.3-1.6V64.6z"/>
		<path class="st1" d="M29.8,98.5V82.7h7.7v1.3h-6.2v5.8H37v1.3h-5.8v6h6.6v1.3H29.8z"/>
		<path class="st1" d="M44.9,93l3.7,5.5h-1.7l-2.3-3.7c-0.1-0.1-0.2-0.3-0.3-0.4c-0.1-0.1-0.2-0.3-0.3-0.5h0c0,0.1-0.1,0.2-0.2,0.3
			c-0.1,0.1-0.2,0.3-0.3,0.5l-2.5,3.9h-1.7l3.8-5.5l-3.7-5.8h1.6l2.3,3.9c0.1,0.2,0.2,0.4,0.3,0.5c0.1,0.2,0.2,0.3,0.2,0.4h0
			c0.1-0.1,0.2-0.3,0.3-0.4c0.1-0.1,0.2-0.3,0.3-0.4l2.5-4h1.6L44.9,93z"/>
		<path class="st1" d="M58.1,98c-0.8,0.5-1.8,0.8-3,0.8c-0.8,0-1.5-0.1-2.2-0.4c-0.6-0.3-1.2-0.7-1.6-1.2c-0.5-0.5-0.8-1.1-1-1.8
			c-0.2-0.7-0.4-1.4-0.4-2.3c0-0.8,0.1-1.6,0.4-2.4c0.3-0.7,0.6-1.4,1.1-1.9c0.5-0.6,1.1-1,1.8-1.3c0.7-0.3,1.5-0.5,2.4-0.5
			c0.9,0,1.8,0.2,2.6,0.5V89c-0.8-0.5-1.7-0.8-2.7-0.8c-0.7,0-1.3,0.1-1.8,0.4c-0.5,0.3-1,0.6-1.3,1c-0.4,0.4-0.6,0.9-0.8,1.5
			c-0.2,0.6-0.3,1.2-0.3,1.9c0,0.6,0.1,1.2,0.2,1.7c0.2,0.5,0.4,1,0.7,1.5c0.3,0.4,0.7,0.8,1.2,1c0.5,0.2,1.1,0.4,1.8,0.4
			c1.1,0,2-0.3,2.9-0.9V98z"/>
		<path class="st1" d="M61.5,93.1c0,0.7,0.1,1.3,0.3,1.9c0.2,0.5,0.4,1,0.8,1.4c0.3,0.4,0.7,0.7,1.2,0.9c0.5,0.2,1,0.3,1.6,0.3
			c1.3,0,2.5-0.4,3.6-1.3v1.4c-1.1,0.8-2.4,1.2-3.9,1.2c-0.8,0-1.4-0.1-2.1-0.4c-0.6-0.3-1.1-0.6-1.6-1.1c-0.4-0.5-0.8-1.1-1-1.9
			c-0.2-0.7-0.4-1.6-0.4-2.5c0-0.8,0.1-1.6,0.4-2.3c0.3-0.7,0.6-1.3,1.1-1.9c0.5-0.5,1-0.9,1.6-1.2c0.6-0.3,1.3-0.4,2-0.4
			c0.7,0,1.4,0.1,1.9,0.4c0.6,0.3,1,0.6,1.4,1.1s0.7,1,0.9,1.7c0.2,0.7,0.3,1.4,0.3,2.3v0.7H61.5z M68.2,91.9c0-1.2-0.3-2.1-0.8-2.7
			c-0.5-0.6-1.3-1-2.2-1c-0.5,0-0.9,0.1-1.3,0.3c-0.4,0.2-0.8,0.4-1.1,0.7c-0.3,0.3-0.6,0.7-0.8,1.2c-0.2,0.5-0.3,1-0.4,1.5H68.2z"
			/>
		<path class="st1" d="M72.4,98.5V81.8h1.4v16.7H72.4z"/>
		<path class="st1" d="M77.4,98.5V81.8h1.4v16.7H77.4z"/>
		<path class="st1" d="M83.1,93.1c0,0.7,0.1,1.3,0.3,1.9c0.2,0.5,0.4,1,0.8,1.4c0.3,0.4,0.7,0.7,1.2,0.9c0.5,0.2,1,0.3,1.6,0.3
			c1.3,0,2.5-0.4,3.6-1.3v1.4c-1.1,0.8-2.4,1.2-3.9,1.2c-0.8,0-1.4-0.1-2.1-0.4s-1.1-0.6-1.6-1.1c-0.4-0.5-0.8-1.1-1-1.9
			c-0.2-0.7-0.4-1.6-0.4-2.5c0-0.8,0.1-1.6,0.4-2.3c0.3-0.7,0.6-1.3,1.1-1.9c0.5-0.5,1-0.9,1.6-1.2c0.6-0.3,1.3-0.4,2-0.4
			c0.7,0,1.4,0.1,1.9,0.4c0.6,0.3,1,0.6,1.4,1.1s0.7,1,0.9,1.7c0.2,0.7,0.3,1.4,0.3,2.3v0.7H83.1z M89.8,91.9c0-1.2-0.3-2.1-0.8-2.7
			c-0.5-0.6-1.3-1-2.2-1c-0.5,0-0.9,0.1-1.3,0.3c-0.4,0.2-0.8,0.4-1.1,0.7c-0.3,0.3-0.6,0.7-0.8,1.2c-0.2,0.5-0.3,1-0.4,1.5H89.8z"
			/>
		<path class="st1" d="M101.6,98.5V92c0-2.5-0.9-3.8-2.8-3.8c-0.5,0-0.9,0.1-1.4,0.3c-0.4,0.2-0.8,0.5-1.1,0.8
			c-0.3,0.3-0.5,0.8-0.7,1.2c-0.2,0.5-0.3,1-0.3,1.5v6.4H94V87.2h1.4v2h0c0.8-1.5,2.1-2.2,3.8-2.2c1.2,0,2.2,0.4,2.8,1.2
			c0.6,0.8,1,2,1,3.5v6.9H101.6z"/>
		<path class="st1" d="M113.9,98c-0.8,0.5-1.8,0.8-3,0.8c-0.8,0-1.5-0.1-2.2-0.4c-0.6-0.3-1.2-0.7-1.6-1.2c-0.5-0.5-0.8-1.1-1-1.8
			c-0.2-0.7-0.4-1.4-0.4-2.3c0-0.8,0.1-1.6,0.4-2.4c0.3-0.7,0.6-1.4,1.1-1.9c0.5-0.6,1.1-1,1.8-1.3c0.7-0.3,1.5-0.5,2.4-0.5
			c0.9,0,1.8,0.2,2.6,0.5V89c-0.8-0.5-1.7-0.8-2.7-0.8c-0.7,0-1.3,0.1-1.8,0.4c-0.5,0.3-1,0.6-1.3,1c-0.4,0.4-0.6,0.9-0.8,1.5
			c-0.2,0.6-0.3,1.2-0.3,1.9c0,0.6,0.1,1.2,0.2,1.7c0.2,0.5,0.4,1,0.7,1.5c0.3,0.4,0.7,0.8,1.2,1c0.5,0.2,1.1,0.4,1.8,0.4
			c1.1,0,2-0.3,2.9-0.9V98z"/>
		<path class="st1" d="M117.3,93.1c0,0.7,0.1,1.3,0.3,1.9c0.2,0.5,0.4,1,0.8,1.4c0.3,0.4,0.7,0.7,1.2,0.9c0.5,0.2,1,0.3,1.6,0.3
			c1.3,0,2.5-0.4,3.6-1.3v1.4c-1.1,0.8-2.4,1.2-3.9,1.2c-0.8,0-1.4-0.1-2.1-0.4s-1.1-0.6-1.6-1.1c-0.4-0.5-0.8-1.1-1-1.9
			c-0.2-0.7-0.4-1.6-0.4-2.5c0-0.8,0.1-1.6,0.4-2.3c0.3-0.7,0.6-1.3,1.1-1.9c0.5-0.5,1-0.9,1.6-1.2c0.6-0.3,1.3-0.4,2-0.4
			c0.7,0,1.4,0.1,1.9,0.4c0.6,0.3,1,0.6,1.4,1.1s0.7,1,0.9,1.7c0.2,0.7,0.3,1.4,0.3,2.3v0.7H117.3z M124,91.9c0-1.2-0.3-2.1-0.8-2.7
			c-0.5-0.6-1.3-1-2.2-1c-0.5,0-0.9,0.1-1.3,0.3c-0.4,0.2-0.8,0.4-1.1,0.7c-0.3,0.3-0.6,0.7-0.8,1.2c-0.2,0.5-0.3,1-0.4,1.5H124z"/>
	</g>
</g>
</svg>
