<?xml version="1.0" encoding="UTF-8" standalone="no"?>
<!-- Generator: Adobe Illustrator 22.0.1, SVG Export Plug-In . SVG Version: 6.00 Build 0)  -->

<svg
   xmlns:dc="http://purl.org/dc/elements/1.1/"
   xmlns:cc="http://creativecommons.org/ns#"
   xmlns:rdf="http://www.w3.org/1999/02/22-rdf-syntax-ns#"
   xmlns:svg="http://www.w3.org/2000/svg"
   xmlns="http://www.w3.org/2000/svg"
   xmlns:sodipodi="http://sodipodi.sourceforge.net/DTD/sodipodi-0.dtd"
   xmlns:inkscape="http://www.inkscape.org/namespaces/inkscape"
   version="1.1"
   id="Layer_1"
   x="0px"
   y="0px"
   viewBox="0 0 230 230"
   xml:space="preserve"
   sodipodi:docname="captain.svg"
   width="230"
   height="230"
   inkscape:version="0.92.3 (2405546, 2018-03-11)"><metadata
   id="metadata913"><rdf:RDF><cc:Work
       rdf:about=""><dc:format>image/svg+xml</dc:format><dc:type
         rdf:resource="http://purl.org/dc/dcmitype/StillImage" /><dc:title></dc:title></cc:Work></rdf:RDF></metadata><defs
   id="defs911" /><sodipodi:namedview
   pagecolor="#ffffff"
   bordercolor="#666666"
   borderopacity="1"
   objecttolerance="10"
   gridtolerance="10"
   guidetolerance="10"
   inkscape:pageopacity="0"
   inkscape:pageshadow="2"
   inkscape:window-width="1366"
   inkscape:window-height="731"
   id="namedview909"
   showgrid="false"
   inkscape:zoom="1.664903"
   inkscape:cx="163.9167"
   inkscape:cy="76.847101"
   inkscape:window-x="0"
   inkscape:window-y="0"
   inkscape:window-maximized="1"
   inkscape:current-layer="Layer_1" />
<style
   type="text/css"
   id="style731">
	.st0{fill:#1B75BC;}
	.st1{fill:#FFF0E5;}
	.st2{fill:#FFFFFF;}
	.st3{fill:#69472E;}
	.st4{fill:url(#SVGID_1_);}
	.st5{fill:#6D6E71;}
	.st6{fill:none;}
	.st7{font-family:'SegoeUIHistoric';}
	.st8{font-size:24.7306px;}
</style>
<g
   id="g735"
   transform="translate(-28.2,-19.8)"
   style="fill:#808080">
	<polygon
   class="st0"
   points="50,192.2 142.6,241.8 234,191 234,70.3 142.9,27.3 50,71.3 "
   id="polygon733"
   style="fill:#808080" />
</g>
<g
   id="g745"
   transform="translate(-28.2,-19.8)">
	<g
   id="g739">
		<polygon
   class="st1"
   points="53.8,189.8 142.5,237.3 230.2,188.6 230.2,73 142.9,31.7 53.8,73.9 "
   id="polygon737"
   style="fill:#fff0e5" />
	</g>
	<g
   id="g743">
		<path
   class="st2"
   d="M 142.5,237.7 142.3,237.6 53.4,190 V 73.7 l 89.4,-42.4 87.7,41.5 v 116 l -0.2,0.1 z m -88.4,-48.1 88.4,47.3 87.3,-48.5 V 73.2 l -87,-41.1 -88.7,42.1 z"
   id="path741"
   inkscape:connector-curvature="0"
   style="fill:#ffffff" />
	</g>
</g>
<g
   id="g749"
   transform="translate(-28.2,-19.8)">
	<polygon
   class="st3"
   points="57,187.9 142.5,233.6 227,186.7 227,75.2 142.9,35.4 57,76.1 "
   id="polygon747"
   style="fill:#69472e" />
</g>
<g
   id="g774"
   transform="translate(-28.2,-19.8)">
	<g
   id="g772">
		<linearGradient
   id="SVGID_1_"
   gradientUnits="userSpaceOnUse"
   x1="52.9879"
   y1="182.748"
   x2="230.86501"
   y2="80.050598">
			<stop
   offset="0"
   style="stop-color:#000000"
   id="stop751" />
			<stop
   offset="0.1281"
   style="stop-color:#7B6330"
   id="stop753" />
			<stop
   offset="0.2739"
   style="stop-color:#997D3D"
   id="stop755" />
			<stop
   offset="0.4001"
   style="stop-color:#D3B059"
   id="stop757" />
			<stop
   offset="0.5142"
   style="stop-color:#E3C062"
   id="stop759" />
			<stop
   offset="0.6239"
   style="stop-color:#E6C263"
   id="stop761" />
			<stop
   offset="0.7412"
   style="stop-color:#EED77D"
   id="stop763" />
			<stop
   offset="0.9271"
   style="stop-color:#FAF39B"
   id="stop765" />
			<stop
   offset="1"
   style="stop-color:#FFFFFF"
   id="stop767" />
		</linearGradient>
		<polygon
   class="st4"
   points="56.2,188.3 142.5,234.5 227.8,187.1 227.8,74.7 142.9,34.5 56.2,75.6 "
   id="polygon770"
   style="fill:url(#SVGID_1_)" />
	</g>
</g>
<g
   id="g782"
   transform="translate(-28.2,-19.8)">
	<g
   id="g778">
		<path
   class="st5"
   d="m 238.6,156.1 8.6,-17.8 h -71.3 c -5,-14.5 -18.3,-24.8 -33.9,-24.8 -15.6,0 -28.9,10.3 -33.9,24.8 H 36.8 l 8.6,17.8 -8.6,17.8 h 76.6 c 6.6,9.1 17,15 28.7,15 11.7,0 22.2,-5.9 28.7,-15 h 76.4 z"
   id="path776"
   inkscape:connector-curvature="0"
   style="fill:#6d6e71" />
	</g>
	<path
   class="st6"
   d="m 142.1,189.2 c -11.4,0 -22,-5.5 -28.9,-15 h -77 L 45,156.1 36.2,138 h 71.7 c 5.3,-14.9 18.9,-24.8 34.1,-24.8 15.2,0 28.9,10 34.1,24.8 h 71.6 l -8.8,18.1 8.8,18.1 H 171 c -7,9.6 -17.5,15 -28.9,15 z M 37.3,173.5 h 76.2 l 0.1,0.1 c 6.8,9.4 17.2,14.8 28.5,14.8 11.3,0 21.7,-5.4 28.5,-14.8 l 0.1,-0.1 h 76 l -8.4,-17.4 8.4,-17.4 h -71 l -0.1,-0.2 C 170.5,123.8 157,113.9 142,113.9 c -15,0 -28.5,9.9 -33.6,24.6 l -0.1,0.2 h -71 l 8.4,17.4 z"
   id="path780"
   inkscape:connector-curvature="0"
   style="fill:none" />
</g>
<g
   id="g786"
   transform="translate(-28.2,-19.8)">
	<polygon
   class="st2"
   points="55.1,159 53.4,158.1 51.7,159 52,157 50.6,155.5 52.5,155.2 53.4,153.3 54.3,155.2 56.2,155.5 54.8,157 "
   id="polygon784"
   style="fill:#ffffff" />
</g>
<g
   id="g790"
   transform="translate(-28.2,-19.8)">
	<polygon
   class="st2"
   points="61.3,160.8 64.8,158.9 68.2,160.8 67.5,156.7 70.3,153.7 66.5,153.1 64.8,149.3 63,153.1 59.2,153.7 62,156.7 "
   id="polygon788"
   style="fill:#ffffff" />
</g>
<g
   id="g794"
   transform="translate(-28.2,-19.8)">
	<polygon
   class="st2"
   points="73.2,158.3 74.9,157.3 76.6,158.3 76.3,156.2 77.7,154.8 75.7,154.5 74.9,152.6 74,154.5 72.1,154.8 73.5,156.2 "
   id="polygon792"
   style="fill:#ffffff" />
</g>
<g
   id="g858"
   transform="translate(-28.2,-19.8)">
	<g
   id="g800">
		<g
   id="g798">
			<rect
   x="79"
   y="97.099998"
   class="st2"
   width="124.8"
   height="0.40000001"
   id="rect796"
   style="fill:#ffffff" />
		</g>
	</g>
	<g
   id="g850">
		<g
   id="g834">
			<g
   id="g804">
				<path
   class="st2"
   d="M 114.5,91 V 78.6 h 1.9 V 91 Z"
   id="path802"
   inkscape:connector-curvature="0"
   style="fill:#ffffff" />
			</g>
			<g
   id="g808">
				<path
   class="st2"
   d="M 121.3,82.3 V 91 h -1.9 V 78.6 h 1.5 l 6.8,9 v -8.9 h 1.9 V 91 H 128 Z"
   id="path806"
   inkscape:connector-curvature="0"
   style="fill:#ffffff" />
			</g>
			<g
   id="g812">
				<path
   class="st2"
   d="m 141.3,80.4 h -3.9 V 91 h -1.9 V 80.4 h -4 v -1.7 h 9.8 z"
   id="path810"
   inkscape:connector-curvature="0"
   style="fill:#ffffff" />
			</g>
			<g
   id="g816">
				<path
   class="st2"
   d="M 151.4,89.3 V 91 h -8.1 V 78.6 h 8 v 1.7 h -6.1 v 3.5 h 5.3 v 1.6 h -5.3 v 3.8 h 6.2 z"
   id="path814"
   inkscape:connector-curvature="0"
   style="fill:#ffffff" />
			</g>
			<g
   id="g820">
				<path
   class="st2"
   d="M 154.1,91 V 78.6 h 5.2 c 0.5,0 1,0.1 1.5,0.3 0.5,0.2 0.8,0.5 1.2,0.9 0.3,0.4 0.6,0.8 0.8,1.3 0.2,0.5 0.3,1 0.3,1.5 0,0.4 -0.1,0.8 -0.2,1.2 -0.1,0.4 -0.3,0.7 -0.5,1.1 -0.2,0.3 -0.4,0.6 -0.7,0.8 -0.3,0.2 -0.6,0.4 -1,0.5 l 2.8,4.7 h -2.1 l -2.6,-4.3 H 156 V 91 Z m 1.9,-6 h 3.3 c 0.3,0 0.5,-0.1 0.7,-0.2 0.2,-0.1 0.4,-0.3 0.6,-0.5 0.2,-0.2 0.3,-0.5 0.4,-0.7 0.1,-0.3 0.1,-0.6 0.1,-0.9 0,-0.3 -0.1,-0.6 -0.2,-0.9 -0.1,-0.3 -0.2,-0.5 -0.4,-0.7 -0.2,-0.2 -0.4,-0.4 -0.6,-0.5 -0.2,-0.1 -0.5,-0.2 -0.7,-0.2 H 156 Z"
   id="path818"
   inkscape:connector-curvature="0"
   style="fill:#ffffff" />
			</g>
			<g
   id="g824">
				<path
   class="st2"
   d="m 173,81.5 c -0.1,-0.1 -0.3,-0.3 -0.5,-0.4 -0.2,-0.1 -0.5,-0.3 -0.7,-0.4 -0.3,-0.1 -0.6,-0.2 -0.9,-0.3 -0.3,-0.1 -0.7,-0.1 -1.1,-0.1 -0.7,0 -1.3,0.2 -1.7,0.5 -0.4,0.3 -0.6,0.7 -0.6,1.3 0,0.3 0.1,0.6 0.2,0.7 0.1,0.2 0.3,0.4 0.6,0.5 0.2,0.1 0.6,0.3 0.9,0.4 0.4,0.1 0.8,0.2 1.3,0.4 0.6,0.2 1.1,0.3 1.6,0.5 0.5,0.2 0.9,0.4 1.2,0.7 0.3,0.3 0.6,0.6 0.8,1 0.2,0.4 0.3,0.9 0.3,1.4 0,0.7 -0.1,1.2 -0.4,1.7 -0.3,0.5 -0.5,0.8 -0.9,1.1 -0.4,0.3 -0.9,0.5 -1.4,0.6 -0.5,0.1 -1.1,0.2 -1.7,0.2 -0.9,0 -1.8,-0.1 -2.6,-0.4 -0.8,-0.3 -1.6,-0.7 -2.3,-1.3 l 0.9,-1.7 c 0.1,0.2 0.4,0.3 0.6,0.5 0.3,0.2 0.6,0.4 0.9,0.5 0.3,0.1 0.8,0.3 1.2,0.4 0.4,0.1 0.9,0.2 1.4,0.2 0.7,0 1.3,-0.1 1.7,-0.4 0.4,-0.3 0.6,-0.7 0.6,-1.2 0,-0.3 -0.1,-0.6 -0.2,-0.8 -0.1,-0.2 -0.4,-0.4 -0.6,-0.6 -0.3,-0.2 -0.6,-0.3 -1,-0.4 -0.4,-0.1 -0.9,-0.3 -1.4,-0.4 -0.6,-0.2 -1.1,-0.3 -1.5,-0.5 -0.4,-0.2 -0.8,-0.4 -1.1,-0.7 -0.3,-0.3 -0.5,-0.6 -0.7,-0.9 -0.2,-0.3 -0.2,-0.8 -0.2,-1.3 0,-0.6 0.1,-1.1 0.3,-1.6 0.2,-0.5 0.5,-0.9 0.9,-1.2 0.4,-0.3 0.8,-0.6 1.4,-0.7 0.5,-0.2 1.1,-0.2 1.7,-0.2 0.8,0 1.6,0.1 2.3,0.4 0.7,0.3 1.3,0.6 1.8,1 z"
   id="path822"
   inkscape:connector-curvature="0"
   style="fill:#ffffff" />
			</g>
			<g
   id="g828">
				<path
   class="st2"
   d="m 177.3,78.6 3.3,6.2 3.3,-6.2 h 2 l -4.4,8 V 91 h -1.9 v -4.5 l -4.4,-7.9 z"
   id="path826"
   inkscape:connector-curvature="0"
   style="fill:#ffffff" />
			</g>
			<g
   id="g832">
				<path
   class="st2"
   d="m 194.6,81.5 c -0.1,-0.1 -0.3,-0.3 -0.5,-0.4 -0.2,-0.1 -0.5,-0.3 -0.7,-0.4 -0.3,-0.1 -0.6,-0.2 -0.9,-0.3 -0.3,-0.1 -0.7,-0.1 -1.1,-0.1 -0.7,0 -1.3,0.2 -1.7,0.5 -0.4,0.3 -0.6,0.7 -0.6,1.3 0,0.3 0.1,0.6 0.2,0.7 0.1,0.2 0.3,0.4 0.6,0.5 0.2,0.1 0.6,0.3 0.9,0.4 0.4,0.1 0.8,0.2 1.3,0.4 0.6,0.2 1.1,0.3 1.6,0.5 0.5,0.2 0.9,0.4 1.2,0.7 0.3,0.3 0.6,0.6 0.8,1 0.2,0.4 0.3,0.9 0.3,1.4 0,0.7 -0.1,1.2 -0.4,1.7 -0.3,0.5 -0.5,0.8 -0.9,1.1 -0.4,0.3 -0.9,0.5 -1.4,0.6 -0.5,0.1 -1.1,0.2 -1.7,0.2 -0.9,0 -1.8,-0.1 -2.6,-0.4 -0.8,-0.3 -1.6,-0.7 -2.3,-1.3 l 0.9,-1.7 c 0.1,0.2 0.4,0.3 0.6,0.5 0.3,0.2 0.6,0.4 0.9,0.5 0.3,0.1 0.8,0.3 1.2,0.4 0.4,0.1 0.9,0.2 1.4,0.2 0.7,0 1.3,-0.1 1.7,-0.4 0.4,-0.3 0.6,-0.7 0.6,-1.2 0,-0.3 -0.1,-0.6 -0.2,-0.8 -0.1,-0.2 -0.4,-0.4 -0.6,-0.6 -0.3,-0.2 -0.6,-0.3 -1,-0.4 -0.4,-0.1 -0.9,-0.3 -1.4,-0.4 -0.6,-0.2 -1.1,-0.3 -1.5,-0.5 -0.4,-0.2 -0.8,-0.4 -1.1,-0.7 -0.3,-0.3 -0.5,-0.6 -0.7,-0.9 -0.2,-0.3 -0.2,-0.8 -0.2,-1.3 0,-0.6 0.1,-1.1 0.3,-1.6 0.2,-0.5 0.5,-0.9 0.9,-1.2 0.4,-0.3 0.8,-0.6 1.4,-0.7 0.5,-0.2 1.1,-0.2 1.7,-0.2 0.8,0 1.6,0.1 2.3,0.4 0.7,0.3 1.3,0.6 1.8,1 z"
   id="path830"
   inkscape:connector-curvature="0"
   style="fill:#ffffff" />
			</g>
		</g>
		<g
   id="g848">
			<g
   id="g838">
				<polygon
   class="st2"
   points="104,85.2 111.7,85.2 103.5,76.3 95.8,76.3 103,84.1 "
   id="polygon836"
   style="fill:#ffffff" />
			</g>
			<g
   id="g842">
				<polygon
   class="st2"
   points="111.7,85.2 104,85.2 103,86.3 95.8,94.1 103.5,94.1 "
   id="polygon840"
   style="fill:#ffffff" />
			</g>
			<g
   id="g846">
				<polygon
   class="st2"
   points="94.1,77.2 86.8,85.2 94.1,93.2 101.4,85.2 "
   id="polygon844"
   style="fill:#ffffff" />
			</g>
		</g>
	</g>
	<g
   id="g856">
		<g
   id="g854">
			<rect
   x="79"
   y="72.900002"
   class="st2"
   width="124.8"
   height="0.40000001"
   id="rect852"
   style="fill:#ffffff" />
		</g>
	</g>
</g>
<g
   id="g888"
   transform="translate(-28.2,-19.8)">
	<g
   id="g872">
		<g
   id="g864">
			<g
   id="g862">
				<rect
   x="105.4"
   y="202.8"
   class="st2"
   width="27.4"
   height="0.40000001"
   id="rect860"
   style="fill:#ffffff" />
			</g>
		</g>
		<g
   id="g870">
			<g
   id="g868">
				<rect
   x="151.10001"
   y="202.7"
   class="st2"
   width="27.4"
   height="0.40000001"
   id="rect866"
   style="fill:#ffffff" />
			</g>
		</g>
	</g>
	<g
   id="g886">
		<g
   id="g876">
			<polygon
   class="st2"
   points="144.7,202.9 149.1,202.9 144.4,197.8 140,197.8 144.1,202.3 "
   id="polygon874"
   style="fill:#ffffff" />
		</g>
		<g
   id="g880">
			<polygon
   class="st2"
   points="149.1,202.9 144.7,202.9 144.1,203.5 140,208 144.4,208 "
   id="polygon878"
   style="fill:#ffffff" />
		</g>
		<g
   id="g884">
			<polygon
   class="st2"
   points="139,198.3 134.9,202.9 139,207.5 143.2,202.9 "
   id="polygon882"
   style="fill:#ffffff" />
		</g>
	</g>
</g>
<g
   id="g892"
   transform="translate(-28.2,-19.8)">
	<polygon
   class="st2"
   points="208.7,159.8 206.9,158.8 205.2,159.8 205.6,157.7 204.2,156.2 206.1,155.9 206.9,154 207.8,155.9 209.7,156.2 208.3,157.7 "
   id="polygon890"
   style="fill:#ffffff" />
</g>
<g
   id="g896"
   transform="translate(-28.2,-19.8)">
	<polygon
   class="st2"
   points="214.9,161.5 218.3,159.6 221.7,161.5 221.1,157.4 223.9,154.4 220,153.8 218.3,150 216.6,153.8 212.8,154.4 215.5,157.4 "
   id="polygon894"
   style="fill:#ffffff" />
</g>
<g
   id="g900"
   transform="translate(-28.2,-19.8)">
	<polygon
   class="st2"
   points="226.7,159 228.4,158 230.1,159 229.8,156.9 231.2,155.5 229.3,155.2 228.4,153.3 227.6,155.2 225.7,155.5 227.1,156.9 "
   id="polygon898"
   style="fill:#ffffff" />
</g>
<g
   id="g904"
   transform="translate(-28.2,-19.8)">
	<path
   class="st2"
   d="m 142.1,188.2 h -0.2 v -0.7 h 0.2 c 0.8,0 1.7,0 2.5,-0.1 l 0.1,0.7 c -1,0.1 -1.8,0.1 -2.6,0.1 z m -3,-0.1 c -0.9,-0.1 -1.8,-0.2 -2.7,-0.4 l 0.1,-0.7 c 0.9,0.2 1.8,0.3 2.7,0.4 z m 8.2,-0.3 -0.1,-0.7 c 0.9,-0.1 1.8,-0.3 2.6,-0.5 l 0.2,0.7 c -0.9,0.2 -1.8,0.4 -2.7,0.5 z m -13.6,-0.7 c -0.9,-0.2 -1.8,-0.5 -2.6,-0.8 l 0.2,-0.7 c 0.8,0.3 1.7,0.6 2.6,0.8 z m 18.9,-0.6 -0.2,-0.7 c 0.8,-0.3 1.7,-0.6 2.5,-1 l 0.3,0.7 c -0.8,0.4 -1.7,0.7 -2.6,1 z m -24.1,-1.2 c -0.8,-0.4 -1.7,-0.8 -2.5,-1.2 l 0.3,-0.6 c 0.8,0.4 1.6,0.8 2.4,1.2 z m 29.2,-1 -0.3,-0.6 c 0.8,-0.4 1.6,-0.9 2.4,-1.3 l 0.3,0.6 c -0.8,0.4 -1.6,0.9 -2.4,1.3 z m -34.1,-1.6 c -0.8,-0.5 -1.5,-1 -2.3,-1.6 l 0.4,-0.6 c 0.7,0.5 1.5,1.1 2.2,1.6 z m 38.8,-1.3 -0.4,-0.6 c 0.7,-0.5 1.5,-1.1 2.2,-1.7 l 0.4,0.6 c -0.7,0.6 -1.4,1.1 -2.2,1.7 z m -43.2,-2.1 c -0.7,-0.6 -1.4,-1.3 -2,-1.9 l 0.5,-0.5 c 0.6,0.7 1.3,1.3 2,1.9 z m 47.5,-1.5 -0.5,-0.5 c 0.7,-0.6 1.3,-1.3 1.9,-2 l 0.5,0.5 c -0.6,0.6 -1.2,1.3 -1.9,2 z m -51.4,-2.4 c -0.6,-0.7 -1.1,-1.4 -1.7,-2.1 l 0.1,-0.1 v -0.5 h 0.3 l 0.1,0.1 c 0.5,0.7 1.1,1.4 1.6,2.1 z m 55.1,-1.8 -0.5,-0.4 0.3,-0.4 h 2.5 v 0.7 h -2.2 z M 111,173.4 h -2.7 v -0.7 h 2.7 z m 64.4,0 v -0.7 h 2.7 v 0.7 z m -69.8,0 h -2.7 v -0.7 h 2.7 z m 75.3,0 v -0.7 h 2.7 v 0.7 z m -80.8,0 h -2.7 v -0.7 h 2.7 z m 86.2,0 v -0.7 h 2.7 v 0.7 z m -91.6,0 H 92 v -0.7 h 2.7 z m 97,0 v -0.7 h 2.7 v 0.7 z m -102.4,0 h -2.7 v -0.7 h 2.7 z m 107.9,0 v -0.7 h 2.7 v 0.7 z m -113.4,0 h -2.7 v -0.7 h 2.7 z m 118.8,0 v -0.7 h 2.7 v 0.7 z m -124.2,0 h -2.7 v -0.7 h 2.7 z m 129.6,0 v -0.7 h 2.7 v 0.7 z m -135,0 h -2.7 v -0.7 H 73 Z m 140.5,0 v -0.7 h 2.7 v 0.7 z m -146,-0.1 h -2.7 v -0.7 h 2.7 z m 151.4,0 v -0.7 h 2.7 v 0.7 z m -156.8,0 h -2.7 v -0.7 h 2.7 z m 162.2,0 v -0.7 h 2.7 v 0.7 z m -167.6,0 H 54 v -0.7 h 2.7 z m 173.1,0 v -0.7 h 2.7 v 0.7 z m -178.6,0 h -2.7 v -0.7 h 2.7 z m 184,0 v -0.7 h 2.7 v 0.7 z m -189.4,0 h -2.7 v -0.7 h 2.7 z m 194.8,0 v -0.7 h 2.7 v 0.7 z m -200.2,0 h -2.9 l 0.4,-0.9 0.3,0.2 h 2.2 z m 205.2,-0.3 -1.3,-2.5 0.6,-0.3 1.3,2.5 z m -205.8,-2.7 -0.6,-0.3 1.3,-2.5 0.6,0.3 z m 203.3,-2.3 -1.3,-2.5 0.6,-0.3 1.3,2.5 z m -200.8,-2.8 -0.6,-0.3 1.3,-2.5 0.6,0.3 z m 198.2,-2.2 -1.3,-2.5 0.6,-0.3 1.3,2.5 z m -195.7,-2.8 -0.6,-0.3 1.3,-2.5 0.6,0.3 z m 193.2,-2.3 -0.9,-1.8 1.3,-2.7 0.6,0.3 -1.2,2.4 0.7,1.5 z m -192.3,-2.7 -1.3,-2.5 0.6,-0.3 1.3,2.5 z m 194.5,-4 -0.6,-0.3 1.2,-2.5 0.6,0.3 z m -197,-1 -1.3,-2.5 0.6,-0.3 1.3,2.5 z m 199.5,-4 -0.6,-0.3 1.2,-2.5 0.6,0.3 z m -202.1,-1.1 -1.3,-2.5 0.6,-0.3 1.3,2.5 z m 204.6,-4 -0.6,-0.3 0.9,-1.9 v -0.4 h 1 z m -207.1,-1 -0.6,-1.2 h 2.6 v 0.7 h -1.4 l 0.1,0.1 z m 4.7,-0.5 v -0.7 h 2.7 v 0.7 z m 5.4,0 v -0.7 h 2.7 v 0.7 z m 5.4,0 v -0.7 h 2.7 v 0.7 z m 5.5,0 v -0.7 h 2.7 v 0.7 z m 5.4,0 v -0.7 h 2.7 v 0.7 z m 5.4,0 v -0.7 h 2.7 v 0.7 z m 5.5,-0.1 v -0.7 h 2.7 v 0.7 z m 5.4,0 v -0.7 h 2.7 v 0.7 z m 5.4,0 v -0.7 h 2.7 v 0.7 z m 5.5,0 v -0.7 h 2.7 v 0.7 z m 5.4,0 v -0.7 h 2.7 v 0.7 z m 5.4,-0.1 v -0.7 h 2.7 v 0.7 z m 5.5,0 v -0.7 h 0.6 c 0.2,-0.5 0.4,-1.1 0.6,-1.6 l 0.6,0.3 c -0.2,0.6 -0.5,1.2 -0.7,1.8 l -0.1,0.2 z m 67.2,0 -0.3,-0.7 0.6,-0.3 0.1,0.3 h 2 v 0.7 z m 5.1,0 v -0.7 h 2.7 v 0.7 z m 5.5,0 v -0.7 h 2.7 v 0.7 z m 5.4,0 v -0.7 h 2.7 v 0.7 z m 5.4,-0.1 v -0.7 h 2.7 v 0.7 z m 5.5,0 v -0.7 h 2.7 v 0.7 z m 5.4,0 v -0.7 h 2.7 v 0.7 z m 5.4,0 v -0.7 h 2.7 v 0.7 z m 5.5,0 v -0.7 h 2.7 v 0.7 z m 5.4,0 v -0.7 h 2.7 v 0.7 z m 5.4,-0.1 v -0.7 h 2.7 v 0.7 z m 5.5,0 v -0.7 h 2.7 v 0.7 z m 5.4,0 v -0.7 h 2.7 v 0.7 z m -66.3,-3.1 c -0.4,-0.8 -0.8,-1.7 -1.3,-2.5 l 0.6,-0.4 c 0.5,0.8 0.9,1.7 1.3,2.5 z m -62.8,-1.2 -0.6,-0.3 c 0.4,-0.8 0.9,-1.7 1.4,-2.5 l 0.6,0.4 c -0.5,0.7 -1,1.5 -1.4,2.4 z m 60.1,-3.6 c -0.5,-0.8 -1,-1.5 -1.6,-2.3 l 0.5,-0.4 c 0.6,0.7 1.1,1.5 1.6,2.3 z m -57.2,-1.2 -0.5,-0.4 c 0.5,-0.8 1.1,-1.5 1.7,-2.2 l 0.5,0.5 c -0.6,0.6 -1.2,1.4 -1.7,2.1 z m 53.9,-3.2 c -0.6,-0.7 -1.3,-1.4 -1.9,-2 l 0.5,-0.5 c 0.7,0.6 1.3,1.3 1.9,2 z m -50.4,-1.1 -0.5,-0.5 c 0.6,-0.7 1.3,-1.3 2,-2 l 0.4,0.5 c -0.6,0.7 -1.3,1.4 -1.9,2 z m 46.4,-2.8 c -0.7,-0.6 -1.4,-1.2 -2.2,-1.7 l 0.4,-0.6 c 0.7,0.5 1.5,1.1 2.2,1.7 z m -42.4,-0.8 -0.4,-0.6 c 0.7,-0.6 1.5,-1.1 2.3,-1.6 l 0.4,0.6 c -0.8,0.5 -1.6,1 -2.3,1.6 z m 38,-2.4 c -0.8,-0.5 -1.6,-0.9 -2.4,-1.3 l 0.3,-0.6 c 0.8,0.4 1.6,0.9 2.4,1.3 z m -33.4,-0.7 -0.3,-0.6 c 0.8,-0.5 1.6,-0.9 2.5,-1.3 l 0.3,0.7 c -0.9,0.4 -1.7,0.8 -2.5,1.2 z m 28.6,-1.7 c -0.8,-0.3 -1.7,-0.7 -2.5,-0.9 l 0.2,-0.7 c 0.9,0.3 1.7,0.6 2.6,0.9 z m -23.7,-0.5 -0.2,-0.7 c 0.9,-0.3 1.7,-0.6 2.6,-0.8 l 0.2,0.7 c -0.9,0.2 -1.8,0.5 -2.6,0.8 z m 18.5,-1.2 c -0.9,-0.2 -1.8,-0.4 -2.6,-0.5 l 0.1,-0.7 c 0.9,0.1 1.8,0.3 2.7,0.5 z m -13.3,-0.3 -0.1,-0.7 c 0.9,-0.2 1.8,-0.3 2.7,-0.4 l 0.1,0.7 c -0.9,0.1 -1.8,0.3 -2.7,0.4 z m 8,-0.4 c -0.9,-0.1 -1.8,-0.1 -2.7,-0.1 v -0.7 c 0.9,0 1.8,0 2.7,0.1 z"
   id="path902"
   inkscape:connector-curvature="0"
   style="fill:#ffffff" />
</g>
<text
   transform="scale(0.97775252,1.0227537)"
   class="st2 st7 st8"
   id="text906"
   style="font-size:24.18040657px;font-family:SegoeUIHistoric;fill:#ffffff;stroke-width:0.97775251"
   x="81.107857"
   y="140.01416"><tspan
     style="font-style:normal;font-variant:normal;font-weight:normal;font-stretch:normal;font-family:Dosis;-inkscape-font-specification:Dosis"
     id="tspan9306">Captain</tspan></text>


</svg>