<?xml version="1.0" encoding="UTF-8" standalone="no"?>
<!-- Generator: Adobe Illustrator 22.0.1, SVG Export Plug-In . SVG Version: 6.00 Build 0)  -->

<svg
   xmlns:dc="http://purl.org/dc/elements/1.1/"
   xmlns:cc="http://creativecommons.org/ns#"
   xmlns:rdf="http://www.w3.org/1999/02/22-rdf-syntax-ns#"
   xmlns:svg="http://www.w3.org/2000/svg"
   xmlns="http://www.w3.org/2000/svg"
   xmlns:sodipodi="http://sodipodi.sourceforge.net/DTD/sodipodi-0.dtd"
   xmlns:inkscape="http://www.inkscape.org/namespaces/inkscape"
   version="1.1"
   id="Layer_1"
   x="0px"
   y="0px"
   viewBox="0 0 230 230"
   xml:space="preserve"
   sodipodi:docname="cheerleader.svg"
   width="230"
   height="230"
   inkscape:version="0.92.3 (2405546, 2018-03-11)"><metadata
   id="metadata417"><rdf:RDF><cc:Work
       rdf:about=""><dc:format>image/svg+xml</dc:format><dc:type
         rdf:resource="http://purl.org/dc/dcmitype/StillImage" /><dc:title></dc:title></cc:Work></rdf:RDF></metadata><defs
   id="defs415">
	
	
	

	
	
	
	
	

	
	
</defs><sodipodi:namedview
   pagecolor="#ffffff"
   bordercolor="#666666"
   borderopacity="1"
   objecttolerance="10"
   gridtolerance="10"
   guidetolerance="10"
   inkscape:pageopacity="0"
   inkscape:pageshadow="2"
   inkscape:window-width="1920"
   inkscape:window-height="1016"
   id="namedview413"
   showgrid="false"
   inkscape:zoom="2.6855048"
   inkscape:cx="99.163629"
   inkscape:cy="106.11417"
   inkscape:window-x="1366"
   inkscape:window-y="27"
   inkscape:window-maximized="1"
   inkscape:current-layer="Layer_1" />
<style
   type="text/css"
   id="style236">
	.st0{fill:#1B75BC;}
	.st1{fill:url(#SVGID_1_);}
	.st2{fill:url(#SVGID_2_);}
	.st3{fill:#6D6E71;}
	.st4{fill:#FFFFFF;}
	.st5{font-family:'SegoeUIHistoric';}
	.st6{font-size:24.7306px;}
</style>
<g
   id="g240"
   transform="translate(-26,-27.799997)"
   style="fill:#808080">
		<path
   style="fill:#808080"
   inkscape:connector-curvature="0"
   id="path238"
   d="m 227.6,201.3 c -10.1,16.4 -66.4,42.3 -66.4,42.3 0,0 -15.2,8.2 -19.4,8.2 -4.2,0 -19.4,-8.2 -19.4,-8.2 0,0 -56.3,-25.9 -66.4,-42.3 C 55.4,199 56,191 56,191 V 56.4 l 85.8,-21.3 85.9,21.3 V 191 c -0.1,0 0.4,9.1 -0.1,10.3 z"
   class="st0" />
	</g><g
   id="g282"
   transform="translate(-26,-27.799997)">
		<g
   id="g280">
			<g
   id="g278">
				<g
   id="g259">
					<linearGradient
   y2="79.371696"
   x2="234.0231"
   y1="184.7484"
   x1="51.505199"
   gradientUnits="userSpaceOnUse"
   id="SVGID_1_">
						<stop
   id="stop242"
   style="stop-color:#70401D"
   offset="5.527638e-02" />
						<stop
   id="stop244"
   style="stop-color:#8F5022"
   offset="0.2236" />
						<stop
   id="stop246"
   style="stop-color:#B36D30"
   offset="0.3894" />
						<stop
   id="stop248"
   style="stop-color:#D5893A"
   offset="0.5653" />
						<stop
   id="stop250"
   style="stop-color:#8F5022"
   offset="0.7613" />
						<stop
   id="stop252"
   style="stop-color:#A35F28"
   offset="0.8217" />
						<stop
   id="stop254"
   style="stop-color:#D5893A"
   offset="0.9322" />
					</linearGradient>
					<path
   style="fill:url(#SVGID_1_)"
   inkscape:connector-curvature="0"
   id="path257"
   d="m 223.3,199 c -9.7,15.6 -63.3,40.3 -63.3,40.3 0,0 -14.5,7.8 -18.5,7.8 -4,0 -18.5,-7.8 -18.5,-7.8 0,0 -53.6,-24.7 -63.3,-40.3 -0.5,-2.1 0,-9.8 0,-9.8 V 60.9 l 81.8,-20.3 81.8,20.3 v 128.3 c 0,0 0.4,8.6 0,9.8 z"
   class="st1" />
				</g>
				<linearGradient
   y2="81.567497"
   x2="230.7339"
   y1="183.34779"
   x1="54.445301"
   gradientUnits="userSpaceOnUse"
   id="SVGID_2_">
					<stop
   id="stop261"
   style="stop-color:#70401D"
   offset="5.527638e-02" />
					<stop
   id="stop263"
   style="stop-color:#8F5022"
   offset="0.2236" />
					<stop
   id="stop265"
   style="stop-color:#B36D30"
   offset="0.3894" />
					<stop
   id="stop267"
   style="stop-color:#D5893A"
   offset="0.5653" />
					<stop
   id="stop269"
   style="stop-color:#8F5022"
   offset="0.7613" />
					<stop
   id="stop271"
   style="stop-color:#A35F28"
   offset="0.8217" />
					<stop
   id="stop273"
   style="stop-color:#D5893A"
   offset="0.9322" />
				</linearGradient>
				<path
   style="fill:url(#SVGID_2_)"
   inkscape:connector-curvature="0"
   id="path276"
   d="m 141.5,244.2 h -0.1 c -2.4,-0.3 -10.5,-4 -16.6,-7.3 l -0.2,-0.1 C 110.3,230.2 71.3,210.5 63,198.2 l -0.1,-0.3 c -0.2,-1.6 -0.1,-5.6 0.1,-8.6 V 189.1 63 l 0.6,-0.1 77.9,-19.3 0.2,0.1 L 220,63 v 126.2 c 0.1,3.1 0.2,7.3 0.1,8.8 l -0.1,0.3 c -8.3,12.2 -47.3,32 -61.6,38.6 l -0.2,0.1 c -6.1,3.3 -14.2,7 -16.6,7.3 z M 64.4,197.7 c 8.3,12 46.7,31.5 60.9,38 l 0.3,0.1 c 6.6,3.5 13.9,6.8 15.9,7.1 2,-0.3 9.4,-3.6 15.9,-7.1 l 0.3,-0.1 c 14.2,-6.5 52.6,-26 60.9,-38 0.1,-1.4 0,-5 -0.1,-8.5 V 63.9 l -76.9,-19.1 -76.9,19 v 125.5 c -0.3,3.4 -0.4,6.9 -0.3,8.4 z"
   class="st2" />
			</g>
		</g>
	</g><g
   id="g288"
   transform="translate(-26,-27.799997)">
		<g
   id="g286">
			<path
   style="fill:#6d6e71"
   inkscape:connector-curvature="0"
   id="path284"
   d="m 238.4,162 8.6,-18.3 h -71.5 c -5,-14.9 -18.3,-25.5 -34,-25.5 -15.6,0 -28.9,10.6 -34,25.5 H 36 L 44.6,162 36,180.3 h 76.8 c 6.6,9.3 17.1,15.4 28.8,15.4 11.7,0 22.2,-6 28.8,-15.4 H 247 Z"
   class="st3" />
		</g>
	</g><g
   id="g314"
   transform="translate(-26,-27.799997)">
		<g
   id="g296">
			<g
   id="g294">
				<path
   style="fill:#6d6e71"
   inkscape:connector-curvature="0"
   id="path290"
   d="m 141.8,195.1 h -0.2 v -0.7 h 0.2 c 0.8,0 1.7,0 2.5,-0.1 l 0.1,0.7 c -0.9,0 -1.8,0.1 -2.6,0.1 z m -3,-0.2 c -0.9,-0.1 -1.8,-0.2 -2.7,-0.4 l 0.1,-0.7 c 0.9,0.2 1.8,0.3 2.7,0.4 z m 8.3,-0.3 -0.1,-0.7 c 0.9,-0.1 1.8,-0.3 2.6,-0.6 l 0.2,0.7 c -0.9,0.3 -1.8,0.5 -2.7,0.6 z m -13.7,-0.7 c -0.9,-0.2 -1.8,-0.5 -2.6,-0.8 l 0.2,-0.7 c 0.9,0.3 1.7,0.6 2.6,0.8 z m 19,-0.6 -0.2,-0.7 c 0.9,-0.3 1.7,-0.6 2.5,-1 l 0.3,0.7 c -0.8,0.3 -1.7,0.7 -2.6,1 z m -24.2,-1.2 c -0.8,-0.4 -1.7,-0.8 -2.5,-1.3 l 0.3,-0.6 c 0.8,0.4 1.6,0.9 2.4,1.2 z m 29.3,-1.1 -0.3,-0.7 c 0.8,-0.4 1.6,-0.9 2.4,-1.4 l 0.3,0.6 c -0.8,0.6 -1.6,1.1 -2.4,1.5 z m -34.2,-1.6 c -0.8,-0.5 -1.5,-1.1 -2.3,-1.6 l 0.4,-0.6 c 0.7,0.6 1.5,1.1 2.2,1.6 z m 38.9,-1.4 -0.4,-0.6 c 0.7,-0.5 1.5,-1.1 2.2,-1.7 l 0.4,0.6 c -0.7,0.6 -1.4,1.2 -2.2,1.7 z m -43.3,-2.1 c -0.7,-0.6 -1.4,-1.3 -2,-2 l 0.5,-0.5 c 0.6,0.7 1.3,1.3 2,1.9 z m 47.6,-1.6 -0.5,-0.5 c 0.7,-0.7 1.3,-1.4 1.9,-2.1 l 0.5,0.5 c -0.6,0.7 -1.2,1.5 -1.9,2.1 z m -51.6,-2.5 c -0.6,-0.7 -1.1,-1.4 -1.7,-2.2 l 0.1,-0.1 V 179 h 0.3 l 0.1,0.1 c 0.5,0.7 1.1,1.4 1.6,2.1 z m 55.3,-1.8 -0.5,-0.5 0.3,-0.5 h 2.5 v 0.7 h -2.2 z m -59.5,-0.2 H 108 v -0.7 h 2.7 z m 64.6,0 v -0.7 h 2.7 v 0.7 z m -70.1,0 h -2.7 v -0.7 h 2.7 z m 75.5,0 v -0.7 h 2.7 v 0.7 z m -80.9,0 h -2.7 v -0.7 h 2.7 z m 86.4,0 v -0.7 h 2.7 v 0.7 z m -91.9,0 h -2.7 v -0.7 h 2.7 z m 97.3,0 v -0.7 h 2.7 v 0.7 z m -102.7,0 h -2.7 v -0.7 h 2.7 z m 108.2,0 v -0.7 h 2.7 v 0.7 z m -113.7,0 h -2.7 v -0.7 h 2.7 z m 119.1,0 v -0.7 h 2.7 v 0.7 z m -124.5,0 h -2.7 v -0.7 H 78 Z m 130,0 v -0.7 h 2.7 v 0.7 z m -135.5,0 h -2.7 v -0.7 h 2.7 z m 140.9,0 v -0.7 h 2.7 v 0.7 z m -146.3,0 h -2.7 v -0.7 h 2.7 z m 151.8,0 v -0.7 h 2.7 v 0.7 z m -157.3,0 h -2.7 v -0.7 h 2.7 z m 162.7,0 v -0.7 h 2.7 v 0.7 z M 56.2,179.7 H 53.5 V 179 h 2.7 z m 173.5,0 V 179 h 2.7 v 0.7 z m -179,0 H 48 V 179 h 2.7 z m 184.5,0 V 179 h 2.7 v 0.7 z m -189.9,0 H 42.6 V 179 h 2.7 z m 195.3,0 V 179 h 2.7 v 0.7 z m -200.7,0 H 37 l 0.4,-0.9 0.3,0.2 h 2.2 z m 205.7,-0.3 -1.3,-2.6 0.6,-0.3 1.3,2.6 z m -206.4,-2.8 -0.6,-0.3 1.3,-2.6 0.6,0.3 z m 203.9,-2.3 -1.3,-2.6 0.6,-0.3 1.3,2.6 z m -201.3,-2.9 -0.6,-0.3 1.3,-2.6 0.6,0.3 z m 198.7,-2.3 -1.3,-2.6 0.6,-0.3 1.3,2.6 z m -196.2,-2.8 -0.6,-0.3 1.3,-2.6 0.6,0.3 z m 193.7,-2.4 -0.9,-1.9 1.3,-2.8 0.6,0.3 -1.2,2.4 0.7,1.5 z m -192.8,-2.8 -1.3,-2.6 0.6,-0.3 1.3,2.6 z m 195,-4.1 -0.6,-0.3 1.2,-2.6 0.6,0.3 z m -197.6,-1.1 -1.3,-2.6 0.7,-0.3 1.3,2.6 z m 200.1,-4.1 -0.6,-0.3 1.2,-2.6 0.6,0.3 z m -202.6,-1 -1.3,-2.6 0.6,-0.3 1.3,2.6 z m 205.1,-4.2 -0.6,-0.3 0.9,-2 v -0.4 h 1 z m -207.7,-1 -0.6,-1.2 h 2.6 v 0.7 H 38 l 0.1,0.1 z m 4.7,-0.5 v -0.7 h 2.7 v 0.7 z m 5.5,0 v -0.7 h 2.7 v 0.7 z m 5.4,0 v -0.7 h 2.7 v 0.7 z m 5.5,0 v -0.7 h 2.7 v 0.7 z M 64,145 v -0.7 h 2.7 v 0.7 z m 5.5,0 v -0.7 h 2.7 v 0.7 z m 5.4,0 v -0.7 h 2.7 v 0.7 z m 5.5,0 v -0.7 h 2.7 v 0.7 z m 5.4,0 v -0.7 h 2.7 v 0.7 z m 5.5,0 v -0.7 H 94 v 0.7 z m 5.4,-0.1 v -0.7 h 2.7 v 0.7 z m 5.5,0 v -0.7 h 2.7 v 0.7 z m 5.4,0 v -0.7 h 0.6 c 0.2,-0.6 0.4,-1.1 0.6,-1.6 l 0.6,0.3 c -0.2,0.6 -0.5,1.2 -0.7,1.8 l -0.1,0.2 z m 67.4,0 -0.1,-0.2 c -0.1,-0.2 -0.1,-0.3 -0.2,-0.5 l 0.6,-0.3 c 0,0.1 0.1,0.2 0.1,0.3 h 2 v 0.7 z m 5.2,0 v -0.7 h 2.7 v 0.7 z m 5.4,0 v -0.7 h 2.7 v 0.7 z m 5.5,-0.1 v -0.7 h 2.7 v 0.7 z m 5.4,0 v -0.7 h 2.7 v 0.7 z m 5.5,0 v -0.7 h 2.7 v 0.7 z m 5.4,0 v -0.7 h 2.7 v 0.7 z m 5.5,0 v -0.7 h 2.7 v 0.7 z m 5.4,-0.1 V 144 h 2.7 v 0.7 z m 5.5,0 V 144 h 2.7 v 0.7 z m 5.4,0 V 144 h 2.7 v 0.7 z m 5.5,0 V 144 h 2.7 v 0.7 z m 5.4,0 V 144 h 2.7 v 0.7 z m -66.4,-3.2 c -0.4,-0.9 -0.8,-1.7 -1.3,-2.6 l 0.6,-0.4 c 0.5,0.8 0.9,1.7 1.3,2.6 z m -63,-1.3 -0.6,-0.3 c 0.4,-0.9 0.9,-1.7 1.4,-2.6 l 0.6,0.4 c -0.6,0.8 -1,1.7 -1.4,2.5 z m 60.3,-3.7 c -0.5,-0.8 -1,-1.6 -1.6,-2.3 l 0.5,-0.5 c 0.6,0.8 1.1,1.6 1.6,2.4 z m -57.5,-1.2 -0.5,-0.4 c 0.5,-0.8 1.1,-1.6 1.7,-2.3 l 0.5,0.5 c -0.6,0.7 -1.1,1.4 -1.7,2.2 z m 54.1,-3.3 c -0.6,-0.7 -1.3,-1.4 -1.9,-2 l 0.5,-0.5 c 0.7,0.7 1.3,1.4 1.9,2.1 z m -50.6,-1.1 -0.5,-0.5 c 0.6,-0.7 1.3,-1.4 2,-2 l 0.4,0.6 c -0.6,0.6 -1.2,1.3 -1.9,1.9 z m 46.6,-2.9 c -0.7,-0.6 -1.4,-1.2 -2.2,-1.7 l 0.4,-0.6 c 0.8,0.6 1.5,1.1 2.2,1.8 z m -42.5,-0.9 -0.4,-0.6 c 0.7,-0.6 1.5,-1.1 2.3,-1.7 l 0.4,0.6 c -0.8,0.6 -1.6,1.2 -2.3,1.7 z m 38.1,-2.3 c -0.8,-0.5 -1.6,-0.9 -2.4,-1.4 l 0.3,-0.7 c 0.8,0.4 1.6,0.9 2.4,1.4 z m -33.5,-0.8 -0.3,-0.6 c 0.8,-0.5 1.6,-0.9 2.5,-1.3 l 0.3,0.7 c -0.9,0.4 -1.7,0.8 -2.5,1.2 z m 28.6,-1.8 c -0.8,-0.4 -1.7,-0.7 -2.5,-1 l 0.2,-0.7 c 0.9,0.3 1.7,0.6 2.6,1 z m -23.7,-0.5 -0.2,-0.7 c 0.9,-0.3 1.7,-0.6 2.6,-0.9 l 0.2,0.7 c -0.9,0.3 -1.8,0.6 -2.6,0.9 z m 18.6,-1.1 c -0.9,-0.2 -1.8,-0.4 -2.7,-0.5 l 0.1,-0.7 c 0.9,0.1 1.8,0.3 2.7,0.5 z m -13.4,-0.4 -0.1,-0.7 c 0.9,-0.2 1.8,-0.3 2.7,-0.4 l 0.1,0.7 c -0.9,0.1 -1.8,0.3 -2.7,0.4 z m 8.1,-0.5 c -0.9,-0.1 -1.8,-0.1 -2.7,-0.1 v -0.7 c 0.9,0 1.8,0 2.7,0.1 z"
   class="st3" />
				<path
   style="fill:#ffffff"
   inkscape:connector-curvature="0"
   id="path292"
   d="m 141.8,118.9 c -0.2,0 -0.4,0 -0.6,0 v 0.7 c 0.2,0 0.4,0 0.6,0 0.7,0 1.4,0 2.1,0.1 V 119 c -0.7,0 -1.4,-0.1 -2.1,-0.1 z m -3.4,0.2 c -0.9,0.1 -1.8,0.2 -2.7,0.4 l 0.1,0.7 c 0.9,-0.2 1.8,-0.3 2.7,-0.4 z m 8.2,0.2 -0.1,0.7 c 0.9,0.1 1.8,0.3 2.7,0.5 l 0.1,-0.7 c -0.8,-0.2 -1.8,-0.4 -2.7,-0.5 z m -13.6,0.9 c -0.9,0.2 -1.8,0.5 -2.6,0.9 l 0.2,0.7 c 0.8,-0.3 1.7,-0.6 2.6,-0.8 z m 19,0.4 -0.2,0.7 c 0.9,0.3 1.7,0.6 2.5,1 l 0.3,-0.7 c -0.9,-0.4 -1.7,-0.7 -2.6,-1 z m -24.2,1.5 c -0.8,0.4 -1.7,0.8 -2.5,1.3 l 0.3,0.6 c 0.8,-0.5 1.6,-0.9 2.4,-1.3 z m 29.3,0.7 -0.3,0.7 c 0.8,0.4 1.6,0.9 2.4,1.4 l 0.3,-0.6 c -0.8,-0.7 -1.6,-1.1 -2.4,-1.5 z m -34.1,2.1 c -0.8,0.5 -1.5,1.1 -2.3,1.7 l 0.4,0.6 c 0.7,-0.6 1.5,-1.1 2.2,-1.6 z m 38.9,0.8 -0.4,0.6 c 0.7,0.5 1.5,1.1 2.2,1.7 l 0.4,-0.6 c -0.7,-0.5 -1.5,-1.1 -2.2,-1.7 z m -43.3,2.7 c -0.7,0.6 -1.4,1.3 -2,2 l 0.5,0.5 c 0.6,-0.7 1.3,-1.3 2,-2 z m 47.5,1 -0.5,0.5 c 0.7,0.7 1.3,1.3 1.9,2 l 0.5,-0.5 c -0.5,-0.6 -1.2,-1.3 -1.9,-2 z m -51.4,3.2 c -0.6,0.7 -1.2,1.5 -1.7,2.3 l 0.5,0.4 c 0.5,-0.8 1.1,-1.5 1.7,-2.3 z m 55.2,1.1 -0.5,0.5 c 0.6,0.7 1.1,1.5 1.6,2.3 l 0.6,-0.4 c -0.6,-0.8 -1.1,-1.6 -1.7,-2.4 z m -58.5,3.6 c -0.5,0.8 -1,1.7 -1.4,2.6 l 0.6,0.3 c 0.4,-0.8 0.9,-1.7 1.4,-2.5 z m 61.6,1.3 -0.6,0.4 c 0.5,0.8 0.9,1.7 1.3,2.6 l 0.6,-0.3 c -0.4,-1 -0.8,-1.9 -1.3,-2.7 z m -64.1,3.9 c -0.2,0.5 -0.4,1.1 -0.6,1.6 h -0.6 v 0.7 h 1.1 l 0.1,-0.2 c 0.2,-0.6 0.4,-1.2 0.7,-1.8 z m 66.5,1.4 -0.6,0.3 c 0.1,0.2 0.1,0.3 0.2,0.5 l 0.1,0.2 h 2.4 v -0.7 h -2 c 0,-0.1 -0.1,-0.2 -0.1,-0.3 z m 71.1,0 h -1 v 0.4 l -0.9,2 0.6,0.3 z m -3.7,0 h -2.7 v 0.7 h 2.7 z m -5.4,0 h -2.7 v 0.7 h 2.7 z m -5.5,0.1 h -2.7 v 0.7 h 2.7 z m -5.4,0 h -2.7 v 0.7 h 2.7 z m -5.5,0 h -2.7 v 0.7 h 2.7 z m -5.4,0 h -2.7 v 0.7 h 2.7 z m -5.5,0 h -2.7 v 0.7 h 2.7 z m -5.4,0.1 H 202 v 0.7 h 2.7 z m -5.5,0 h -2.7 v 0.7 h 2.7 z m -5.4,0 h -2.7 v 0.7 h 2.7 z m -5.4,0 h -2.7 v 0.7 h 2.7 z m -5.5,0 h -2.7 v 0.7 h 2.7 z m -78,0.1 h -2.7 v 0.7 h 2.7 z m -5.5,0 h -2.7 v 0.7 h 2.7 z m -5.4,0 h -2.7 v 0.7 H 94 Z m -5.5,0 h -2.7 v 0.7 h 2.7 z m -5.4,0.1 h -2.7 v 0.7 h 2.7 z m -5.4,0 H 75 v 0.7 h 2.7 z m -5.5,0 h -2.7 v 0.7 h 2.7 z m -5.4,0 h -2.7 v 0.7 h 2.7 z m -5.5,0 h -2.7 v 0.7 h 2.7 z m -5.4,0 h -2.7 v 0.7 h 2.7 z m -5.5,0.1 h -2.7 v 0.7 h 2.7 z m -5.4,0 h -2.7 v 0.7 H 45 Z m -5.5,0 h -2.6 l 0.6,1.2 0.6,-0.3 -0.1,-0.1 h 1.5 z m -0.1,3.4 -0.6,0.3 1.3,2.6 0.6,-0.3 z m 204,1.1 -1.2,2.6 0.6,0.3 1.2,-2.6 z M 42,153 l -0.6,0.3 1.3,2.6 0.6,-0.3 z m 198.9,1.1 -1.2,2.6 0.6,0.3 1.2,-2.6 z m -196.4,4.1 -0.6,0.3 1.3,2.6 0.6,-0.3 z m 193.9,1.1 -1.3,2.8 0.9,1.9 0.6,-0.3 -0.7,-1.5 1.2,-2.4 z m -193.4,4 -1.3,2.6 0.6,0.3 1.3,-2.6 z m 194.8,2.9 -0.6,0.3 1.3,2.6 0.6,-0.3 z m -197.3,2.3 -1.3,2.6 0.6,0.3 1.3,-2.6 z m 199.9,2.8 -0.6,0.3 1.3,2.6 0.6,-0.3 z m -202.5,2.4 -1.3,2.6 0.6,0.3 1.3,-2.6 z m 205,2.8 -0.6,0.3 1.3,2.6 0.6,-0.3 z m -207.5,2.3 -0.4,0.9 h 2.9 V 179 h -2.2 z m 206,0.2 h -2.7 v 0.7 h 2.7 z m -200.8,0 v 0.7 h 2.7 V 179 Z m 195.3,0 h -2.7 v 0.7 h 2.7 z M 48,179 v 0.7 h 2.7 V 179 Z m 184.5,0 h -2.7 v 0.7 h 2.7 z m -179,0 v 0.7 h 2.7 V 179 Z m 173.5,0 h -2.7 v 0.7 h 2.7 z m -168.1,0 v 0.7 h 2.7 V 179 Z m 162.7,0 h -2.7 v 0.7 h 2.7 z m -157.2,0 v 0.7 h 2.7 V 179 Z m 151.7,0 h -2.7 v 0.7 h 2.7 z m -146.3,0 v 0.7 h 2.7 V 179 Z m 140.9,0 H 208 v 0.7 h 2.7 z m -135.4,0 v 0.7 H 78 V 179 Z m 129.9,0 h -2.7 v 0.7 h 2.7 z m -124.5,0 v 0.7 h 2.7 V 179 Z m 119.1,0 h -2.7 v 0.7 h 2.7 z m -113.6,0.1 v 0.7 h 2.7 v -0.7 z m 108.1,0 h -2.7 v 0.7 h 2.7 z m -102.7,0 v 0.7 h 2.7 v -0.7 z m 97.3,0 h -2.7 v 0.7 h 2.7 z m -91.8,0 v 0.7 h 2.7 v -0.7 z m 86.3,0 h -2.7 v 0.7 h 2.7 z m -80.9,0 v 0.7 h 2.7 v -0.7 z m 75.5,0 h -2.7 v 0.7 h 2.7 z m -70,0 v 0.7 h 2.7 v -0.7 z m 64.5,0 H 170 l -0.3,0.5 0.5,0.5 0.1,-0.2 h 2.2 z m -58.8,0 h -0.3 v 0.5 l -0.1,0.1 c 0.5,0.7 1.1,1.5 1.7,2.2 l 0.5,-0.5 c -0.6,-0.7 -1.1,-1.4 -1.6,-2.1 z m 54.2,2.6 c -0.6,0.7 -1.2,1.4 -1.9,2.1 l 0.5,0.5 c 0.7,-0.7 1.3,-1.4 1.9,-2.1 z m -50.6,1.7 -0.5,0.5 c 0.7,0.7 1.3,1.3 2,2 l 0.4,-0.6 c -0.6,-0.6 -1.2,-1.2 -1.9,-1.9 z m 46.7,2.3 c -0.7,0.6 -1.4,1.2 -2.2,1.7 l 0.4,0.6 c 0.7,-0.6 1.5,-1.2 2.2,-1.8 z m -42.5,1.4 -0.4,0.6 c 0.7,0.6 1.5,1.1 2.3,1.6 l 0.4,-0.6 c -0.9,-0.5 -1.6,-1 -2.3,-1.6 z m 38.1,1.9 c -0.8,0.5 -1.6,1 -2.4,1.4 l 0.3,0.7 c 0.8,-0.4 1.6,-0.9 2.4,-1.4 z m -33.6,1.2 -0.3,0.6 c 0.8,0.5 1.6,0.9 2.5,1.3 l 0.3,-0.7 c -0.8,-0.4 -1.7,-0.8 -2.5,-1.2 z m 28.7,1.4 c -0.8,0.4 -1.7,0.7 -2.5,1 l 0.2,0.7 c 0.9,-0.3 1.7,-0.6 2.6,-1 z m -23.7,0.8 -0.2,0.7 c 0.9,0.3 1.8,0.6 2.6,0.8 l 0.2,-0.7 c -0.9,-0.2 -1.7,-0.5 -2.6,-0.8 z m 18.6,0.9 c -0.9,0.2 -1.8,0.4 -2.6,0.6 l 0.1,0.7 c 0.9,-0.1 1.8,-0.3 2.7,-0.6 z m -13.4,0.5 -0.1,0.7 c 0.9,0.2 1.8,0.3 2.7,0.4 l 0.1,-0.7 c -0.9,-0.1 -1.8,-0.2 -2.7,-0.4 z m 8.1,0.4 c -0.8,0.1 -1.7,0.1 -2.5,0.1 h -0.2 v 0.7 h 0.2 c 0.8,0 1.7,0 2.5,-0.1 z"
   class="st4" />
			</g>
		</g>
		<g
   id="g304">
			<g
   id="g302">
				<polygon
   style="fill:#ffffff"
   id="polygon298"
   points="65.4,159.1 68.6,159.6 66.3,162 66.8,165.3 64,163.7 61.2,165.3 61.8,162 59.5,159.6 62.6,159.1 64,156.1 "
   class="st4" />
				<path
   style="fill:#ffffff"
   inkscape:connector-curvature="0"
   id="path300"
   d="m 64,157.3 0.8,1.8 0.2,0.5 0.5,0.1 2,0.3 -1.5,1.5 -0.3,0.4 0.1,0.5 0.3,2.1 -1.6,-0.9 -0.5,-0.3 -0.5,0.3 -1.6,0.9 0.3,-2.1 0.1,-0.5 -0.3,-0.4 -1.5,-1.5 2,-0.3 0.5,-0.1 0.2,-0.5 0.8,-1.8 m 0,-2.4 -1.7,3.7 -3.8,0.6 2.8,2.9 -0.7,4.1 3.4,-1.9 3.4,1.9 -0.7,-4.1 2.8,-2.9 -3.8,-0.6 z"
   class="st4" />
			</g>
		</g>
		<g
   id="g312">
			<g
   id="g310">
				<polygon
   style="fill:#ffffff"
   id="polygon306"
   points="220.6,162 221.1,165.3 218.4,163.7 215.6,165.3 216.1,162 213.8,159.6 217,159.1 218.4,156.1 219.7,159.1 222.9,159.6 "
   class="st4" />
				<path
   style="fill:#ffffff"
   inkscape:connector-curvature="0"
   id="path308"
   d="m 218.4,157.3 0.8,1.8 0.2,0.5 0.5,0.1 1.9,0.3 -1.5,1.5 -0.3,0.4 0.1,0.5 0.3,2.1 -1.6,-0.9 -0.5,-0.3 -0.5,0.3 -1.6,0.9 0.3,-2.1 0.1,-0.5 -0.3,-0.4 -1.5,-1.5 2,-0.3 0.5,-0.1 0.2,-0.5 0.9,-1.8 m 0,-2.4 -1.7,3.7 -3.8,0.6 2.8,2.9 -0.7,4.1 3.4,-1.9 3.4,1.9 -0.7,-4.1 2.8,-2.9 -3.8,-0.6 z"
   class="st4" />
			</g>
		</g>
	</g><text
   style="font-size:24.48953819px;font-family:SegoeUIHistoric;fill:#ffffff;stroke-width:0.99025249"
   id="text316"
   class="st4 st5 st6"
   transform="scale(0.99025246,1.0098435)"
   x="60.420956"
   y="139.93872"><tspan
     style="font-style:normal;font-variant:normal;font-weight:normal;font-stretch:normal;font-family:Dosis;-inkscape-font-specification:Dosis"
     id="tspan2994">Cheerleader</tspan></text>
<g
   id="g330"
   transform="translate(-26,-27.799997)">
		<g
   id="g322">
			<g
   id="g320">
				<rect
   style="fill:#ffffff"
   id="rect318"
   height="0.40000001"
   width="27.5"
   class="st4"
   y="209.5"
   x="105.2" />
			</g>
		</g>
		<g
   id="g328">
			<g
   id="g326">
				<rect
   style="fill:#ffffff"
   id="rect324"
   height="0.40000001"
   width="27.5"
   class="st4"
   y="209.39999"
   x="151" />
			</g>
		</g>
	</g><g
   id="g344"
   transform="translate(-26,-27.799997)">
		<g
   id="g334">
			<polygon
   style="fill:#ffffff"
   id="polygon332"
   points="144.9,205 140.5,205 144.6,209.7 145.2,210.3 149.6,210.3 "
   class="st4" />
		</g>
		<g
   id="g338">
			<polygon
   style="fill:#ffffff"
   id="polygon336"
   points="144.6,210.9 140.5,215.5 144.9,215.5 149.6,210.3 145.2,210.3 "
   class="st4" />
		</g>
		<g
   id="g342">
			<polygon
   style="fill:#ffffff"
   id="polygon340"
   points="139.5,215 143.7,210.3 139.5,205.6 135.3,210.3 "
   class="st4" />
		</g>
	</g>
<g
   id="g352"
   transform="translate(-26,-27.799997)">
		<g
   id="g350">
			<rect
   style="fill:#ffffff"
   id="rect348"
   height="0.40000001"
   width="124.8"
   class="st4"
   y="104.1"
   x="81.400002" />
		</g>
	</g><g
   id="g402"
   transform="translate(-26,-27.799997)">
		<g
   id="g386">
			<g
   id="g356">
				<path
   style="fill:#ffffff"
   inkscape:connector-curvature="0"
   id="path354"
   d="M 117,98 V 85.6 h 1.9 V 98 Z"
   class="st4" />
			</g>
			<g
   id="g360">
				<path
   style="fill:#ffffff"
   inkscape:connector-curvature="0"
   id="path358"
   d="M 123.7,89.3 V 98 h -1.9 V 85.6 h 1.5 l 6.8,9 V 85.7 H 132 V 98 h -1.6 z"
   class="st4" />
			</g>
			<g
   id="g364">
				<path
   style="fill:#ffffff"
   inkscape:connector-curvature="0"
   id="path362"
   d="m 143.8,87.4 h -3.9 V 98 H 138 V 87.4 h -4 v -1.7 h 9.8 z"
   class="st4" />
			</g>
			<g
   id="g368">
				<path
   style="fill:#ffffff"
   inkscape:connector-curvature="0"
   id="path366"
   d="M 153.9,96.3 V 98 h -8.1 V 85.6 h 8 v 1.7 h -6.1 v 3.5 h 5.3 v 1.6 h -5.3 v 3.8 h 6.2 z"
   class="st4" />
			</g>
			<g
   id="g372">
				<path
   style="fill:#ffffff"
   inkscape:connector-curvature="0"
   id="path370"
   d="M 156.5,98 V 85.6 h 5.2 c 0.5,0 1,0.1 1.5,0.3 0.5,0.2 0.8,0.5 1.2,0.9 0.3,0.4 0.6,0.8 0.8,1.3 0.2,0.5 0.3,1 0.3,1.5 0,0.4 -0.1,0.8 -0.2,1.2 -0.1,0.4 -0.3,0.7 -0.5,1.1 -0.2,0.3 -0.4,0.6 -0.7,0.8 -0.3,0.2 -0.6,0.4 -1,0.5 l 2.8,4.7 h -2.1 l -2.6,-4.3 h -2.7 V 98 Z m 1.9,-6 h 3.3 c 0.3,0 0.5,-0.1 0.7,-0.2 0.2,-0.1 0.4,-0.3 0.6,-0.5 0.2,-0.2 0.3,-0.5 0.4,-0.7 0.1,-0.3 0.1,-0.6 0.1,-0.9 0,-0.3 -0.1,-0.6 -0.2,-0.9 -0.1,-0.3 -0.2,-0.5 -0.4,-0.7 -0.2,-0.2 -0.4,-0.4 -0.6,-0.5 -0.2,-0.1 -0.5,-0.2 -0.7,-0.2 h -3.2 z"
   class="st4" />
			</g>
			<g
   id="g376">
				<path
   style="fill:#ffffff"
   inkscape:connector-curvature="0"
   id="path374"
   d="m 175.4,88.5 c -0.1,-0.1 -0.3,-0.3 -0.5,-0.4 -0.2,-0.1 -0.5,-0.3 -0.7,-0.4 -0.3,-0.1 -0.6,-0.2 -0.9,-0.3 -0.3,-0.1 -0.7,-0.1 -1.1,-0.1 -0.7,0 -1.3,0.2 -1.7,0.5 -0.4,0.3 -0.6,0.7 -0.6,1.3 0,0.3 0.1,0.6 0.2,0.7 0.1,0.2 0.3,0.4 0.6,0.5 0.2,0.1 0.6,0.3 0.9,0.4 0.4,0.1 0.8,0.2 1.3,0.4 0.6,0.2 1.1,0.3 1.6,0.5 0.5,0.2 0.9,0.4 1.2,0.7 0.3,0.3 0.6,0.6 0.8,1 0.2,0.4 0.3,0.9 0.3,1.4 0,0.7 -0.1,1.2 -0.4,1.7 -0.2,0.5 -0.5,0.8 -0.9,1.1 -0.4,0.3 -0.9,0.5 -1.4,0.6 -0.5,0.1 -1.1,0.2 -1.7,0.2 -0.9,0 -1.8,-0.1 -2.6,-0.4 -0.8,-0.3 -1.6,-0.7 -2.3,-1.3 l 0.9,-1.7 c 0.1,0.2 0.4,0.3 0.6,0.5 0.3,0.2 0.6,0.4 0.9,0.5 0.3,0.1 0.8,0.3 1.2,0.4 0.4,0.1 0.9,0.2 1.4,0.2 0.7,0 1.3,-0.1 1.7,-0.4 0.4,-0.3 0.6,-0.7 0.6,-1.2 0,-0.3 -0.1,-0.6 -0.2,-0.8 -0.1,-0.2 -0.4,-0.4 -0.6,-0.6 -0.3,-0.2 -0.6,-0.3 -1,-0.4 -0.4,-0.1 -0.9,-0.3 -1.4,-0.4 -0.6,-0.2 -1.1,-0.3 -1.5,-0.5 -0.4,-0.2 -0.8,-0.4 -1.1,-0.7 -0.3,-0.3 -0.5,-0.6 -0.7,-0.9 -0.2,-0.3 -0.2,-0.8 -0.2,-1.3 0,-0.6 0.1,-1.1 0.3,-1.6 0.2,-0.5 0.5,-0.9 0.9,-1.2 0.4,-0.3 0.8,-0.6 1.4,-0.7 0.5,-0.2 1.1,-0.2 1.7,-0.2 0.8,0 1.6,0.1 2.3,0.4 0.7,0.3 1.3,0.6 1.8,1 z"
   class="st4" />
			</g>
			<g
   id="g380">
				<path
   style="fill:#ffffff"
   inkscape:connector-curvature="0"
   id="path378"
   d="m 179.7,85.6 3.3,6.2 3.3,-6.2 h 2 l -4.4,8 V 98 H 182 v -4.5 l -4.4,-7.9 z"
   class="st4" />
			</g>
			<g
   id="g384">
				<path
   style="fill:#ffffff"
   inkscape:connector-curvature="0"
   id="path382"
   d="m 197,88.5 c -0.1,-0.1 -0.3,-0.3 -0.5,-0.4 -0.2,-0.1 -0.5,-0.3 -0.7,-0.4 -0.3,-0.1 -0.6,-0.2 -0.9,-0.3 -0.3,-0.1 -0.7,-0.1 -1.1,-0.1 -0.7,0 -1.3,0.2 -1.7,0.5 -0.4,0.3 -0.6,0.7 -0.6,1.3 0,0.3 0.1,0.6 0.2,0.7 0.1,0.2 0.3,0.4 0.6,0.5 0.2,0.1 0.6,0.3 0.9,0.4 0.4,0.1 0.8,0.2 1.3,0.4 0.6,0.2 1.1,0.3 1.6,0.5 0.5,0.2 0.9,0.4 1.2,0.7 0.3,0.3 0.6,0.6 0.8,1 0.2,0.4 0.3,0.9 0.3,1.4 0,0.7 -0.1,1.2 -0.4,1.7 -0.2,0.5 -0.5,0.8 -0.9,1.1 -0.4,0.3 -0.9,0.5 -1.4,0.6 -0.5,0.1 -1.1,0.2 -1.7,0.2 -0.9,0 -1.8,-0.1 -2.6,-0.4 -0.8,-0.3 -1.6,-0.7 -2.3,-1.3 l 0.9,-1.7 c 0.1,0.2 0.4,0.3 0.6,0.5 0.3,0.2 0.6,0.4 0.9,0.5 0.3,0.1 0.8,0.3 1.2,0.4 0.4,0.1 0.9,0.2 1.4,0.2 0.7,0 1.3,-0.1 1.7,-0.4 0.4,-0.3 0.6,-0.7 0.6,-1.2 0,-0.3 -0.1,-0.6 -0.2,-0.8 -0.1,-0.2 -0.4,-0.4 -0.6,-0.6 -0.3,-0.2 -0.6,-0.3 -1,-0.4 -0.4,-0.1 -0.9,-0.3 -1.4,-0.4 -0.6,-0.2 -1.1,-0.3 -1.5,-0.5 -0.4,-0.2 -0.8,-0.4 -1.1,-0.7 -0.3,-0.3 -0.5,-0.6 -0.7,-0.9 -0.2,-0.3 -0.2,-0.8 -0.2,-1.3 0,-0.6 0.1,-1.1 0.3,-1.6 0.2,-0.5 0.5,-0.9 0.9,-1.2 0.4,-0.3 0.8,-0.6 1.4,-0.7 0.5,-0.2 1.1,-0.2 1.7,-0.2 0.8,0 1.6,0.1 2.3,0.4 0.7,0.3 1.3,0.6 1.8,1 z"
   class="st4" />
			</g>
		</g>
		<g
   id="g400">
			<g
   id="g390">
				<polygon
   style="fill:#ffffff"
   id="polygon388"
   points="106,83.3 98.3,83.3 105.5,91.1 106.5,92.2 114.2,92.2 "
   class="st4" />
			</g>
			<g
   id="g394">
				<polygon
   style="fill:#ffffff"
   id="polygon392"
   points="105.5,93.3 98.3,101.1 106,101.1 114.2,92.2 106.5,92.2 "
   class="st4" />
			</g>
			<g
   id="g398">
				<polygon
   style="fill:#ffffff"
   id="polygon396"
   points="96.6,100.2 103.9,92.2 96.6,84.2 89.3,92.2 "
   class="st4" />
			</g>
		</g>
	</g><g
   id="g408"
   transform="translate(-26,-27.799997)">
		<g
   id="g406">
			<rect
   style="fill:#ffffff"
   id="rect404"
   height="0.40000001"
   width="124.8"
   class="st4"
   y="79.900002"
   x="81.400002" />
		</g>
	</g>
</svg>