<?xml version="1.0" encoding="UTF-8" standalone="no"?>
<!-- Generator: Adobe Illustrator 22.0.1, SVG Export Plug-In . SVG Version: 6.00 Build 0)  -->

<svg
   xmlns:dc="http://purl.org/dc/elements/1.1/"
   xmlns:cc="http://creativecommons.org/ns#"
   xmlns:rdf="http://www.w3.org/1999/02/22-rdf-syntax-ns#"
   xmlns:svg="http://www.w3.org/2000/svg"
   xmlns="http://www.w3.org/2000/svg"
   xmlns:sodipodi="http://sodipodi.sourceforge.net/DTD/sodipodi-0.dtd"
   xmlns:inkscape="http://www.inkscape.org/namespaces/inkscape"
   version="1.1"
   id="Layer_1"
   x="0px"
   y="0px"
   viewBox="0 0 140.2 141.8"
   xml:space="preserve"
   sodipodi:docname="ace.svg"
   width="140.2"
   height="141.8"
   inkscape:version="0.92.3 (2405546, 2018-03-11)"><metadata
   id="metadata328"><rdf:RDF><cc:Work
       rdf:about=""><dc:format>image/svg+xml</dc:format><dc:type
         rdf:resource="http://purl.org/dc/dcmitype/StillImage" /><dc:title></dc:title></cc:Work></rdf:RDF></metadata><defs
   id="defs326" /><sodipodi:namedview
   pagecolor="#ffffff"
   bordercolor="#666666"
   borderopacity="1"
   objecttolerance="10"
   gridtolerance="10"
   guidetolerance="10"
   inkscape:pageopacity="0"
   inkscape:pageshadow="2"
   inkscape:window-width="1366"
   inkscape:window-height="768"
   id="namedview324"
   showgrid="false"
   inkscape:zoom="1.8977072"
   inkscape:cx="-0.84999084"
   inkscape:cy="84.462277"
   inkscape:window-x="0"
   inkscape:window-y="0"
   inkscape:window-maximized="1"
   inkscape:current-layer="Layer_1" />
<style
   type="text/css"
   id="style305">
	.st0{fill-rule:evenodd;clip-rule:evenodd;fill:#72C16A;}
	.st1{fill:#FFFFFF;}
</style>
<g
   id="g321"
   transform="translate(-71.299995,-70.900002)">
	<g
   id="g315">
		<g
   id="g313">
			<g
   id="g311">
				<g
   id="g309">
					<ellipse
   class="st0"
   cx="141.39999"
   cy="141.8"
   rx="70.099998"
   ry="70.900002"
   id="ellipse307"
   style="clip-rule:evenodd;fill:#72c16a;fill-rule:evenodd" />
				</g>
			</g>
		</g>
	</g>
	<g
   id="g319">
		<g
   id="layer1_1_">
			<path
   id="path3395_1_"
   class="st1"
   d="m 143,83.6 c -13.2,0 -23.9,11.2 -23.9,25 0.1,8.7 4.6,16.1 9.3,23 -5.2,-3.9 -11,-6.3 -17.2,-6.3 -13.2,0 -23.9,11.2 -23.9,25 0,13.8 10.7,25.1 23.9,25.1 10.7,-0.2 19.2,-7.6 27.6,-13.9 -1.5,18.7 -4.6,29.3 -22.3,33.4 h 53 c -17.7,-4.1 -20.8,-14.7 -22.3,-33.4 8.3,7.1 17,13.1 27.6,13.9 13.2,0 23.9,-11.2 23.9,-25.1 0,-13.9 -10.7,-25 -23.9,-25 -6.4,0 -11.9,2.9 -17.2,6.3 5.3,-6.9 8.8,-14.4 9.3,-23 0,-13.8 -10.7,-25 -23.9,-25 z"
   inkscape:connector-curvature="0"
   style="fill:#ffffff" />
		</g>
	</g>
</g>
</svg>