<?xml version="1.0" encoding="UTF-8" standalone="no"?>
<!-- Generator: Adobe Illustrator 22.0.1, SVG Export Plug-In . SVG Version: 6.00 Build 0)  -->

<svg
   xmlns:dc="http://purl.org/dc/elements/1.1/"
   xmlns:cc="http://creativecommons.org/ns#"
   xmlns:rdf="http://www.w3.org/1999/02/22-rdf-syntax-ns#"
   xmlns:svg="http://www.w3.org/2000/svg"
   xmlns="http://www.w3.org/2000/svg"
   xmlns:sodipodi="http://sodipodi.sourceforge.net/DTD/sodipodi-0.dtd"
   xmlns:inkscape="http://www.inkscape.org/namespaces/inkscape"
   version="1.1"
   id="Layer_1"
   x="0px"
   y="0px"
   viewBox="0 0 230 230"
   xml:space="preserve"
   sodipodi:docname="coach.svg"
   width="230"
   height="230"
   inkscape:version="0.92.3 (2405546, 2018-03-11)"><metadata
   id="metadata800"><rdf:RDF><cc:Work
       rdf:about=""><dc:format>image/svg+xml</dc:format><dc:type
         rdf:resource="http://purl.org/dc/dcmitype/StillImage" /><dc:title></dc:title></cc:Work></rdf:RDF></metadata><defs
   id="defs798" /><sodipodi:namedview
   pagecolor="#ffffff"
   bordercolor="#666666"
   borderopacity="1"
   objecttolerance="10"
   gridtolerance="10"
   guidetolerance="10"
   inkscape:pageopacity="0"
   inkscape:pageshadow="2"
   inkscape:window-width="1920"
   inkscape:window-height="1016"
   id="namedview796"
   showgrid="false"
   inkscape:zoom="2.8284271"
   inkscape:cx="137.4702"
   inkscape:cy="105.82629"
   inkscape:window-x="1366"
   inkscape:window-y="27"
   inkscape:window-maximized="1"
   inkscape:current-layer="Layer_1" />
<style
   type="text/css"
   id="style632">
	.st0{fill:#D1D3D4;}
	.st1{fill:#1B75BC;}
	.st2{fill:#FFFFFF;}
	.st3{fill:url(#SVGID_1_);}
	.st4{fill:#BCBEC0;}
	.st5{fill:#6D6E71;}
	.st6{font-family:'SegoeUIHistoric';}
	.st7{font-size:24.7306px;}
</style>
<g
   id="g636"
   transform="translate(-27.7,-19.799997)">
	<path
   class="st0"
   d="m 219.8,189.6 c 0,1.6 -70.9,43.1 -76.7,43.1 -5.8,0 -76.8,-41.4 -76.8,-43.1 0,-1.7 0,-140.4 0,-143.5 0,-3.1 46.9,-10.3 76.8,-10.3 29.9,0 76.8,7.4 76.8,10.3 -0.1,3 -0.1,141.9 -0.1,143.5 z"
   id="path634"
   inkscape:connector-curvature="0"
   style="fill:#d1d3d4" />
</g>
<g
   id="g642"
   transform="translate(-27.7,-19.799997)"
   style="fill:#999999">
	<path
   class="st1"
   d="m 227.2,194.4 c 0,1.7 -77.6,47 -84,47 -6.4,0 -84.1,-45.2 -84.1,-47 0,-1.8 0,-153.3 0,-156.6 0,-3.3 51.3,-11.3 84,-11.3 32.7,0 84,8.1 84,11.3 0.1,3.2 0.1,154.8 0.1,156.6 z"
   id="path638"
   inkscape:connector-curvature="0"
   style="fill:#999999" />
	<path
   class="st2"
   d="M 143.2,241.8 C 139,241.8 108,224.3 98.6,218.9 88.7,213.2 78.7,207.4 71.2,202.8 58.8,195.2 58.8,194.7 58.8,194.3 V 37.8 c 0,-2.7 21,-6 30,-7.3 19.4,-2.8 39.7,-4.4 54.3,-4.4 14.6,0 34.9,1.7 54.3,4.4 7,1 30,4.5 30,7.2 v 156.6 c 0,0.3 0,0.9 -12.4,8.4 -7.5,4.6 -17.5,10.5 -27.4,16.1 -9.3,5.5 -40.3,23 -44.4,23 z M 59.5,194.3 c 1.1,1.4 19.7,12.7 40.1,24.4 24.3,13.8 41,22.4 43.6,22.4 2.6,0 19.3,-8.6 43.5,-22.4 20.4,-11.6 38.9,-22.9 40.1,-24.3 V 37.8 c -1,-2.8 -50,-10.9 -83.7,-10.9 -34,0 -82.9,8.1 -83.7,10.9 z m -0.1,0 m 167.5,-0.1 z"
   id="path640"
   inkscape:connector-curvature="0"
   style="fill:#999999" />
</g>
<g
   id="g665"
   transform="translate(-27.7,-19.799997)">
	<g
   id="g663">
		<g
   id="g659">
			<linearGradient
   id="SVGID_1_"
   gradientUnits="userSpaceOnUse"
   x1="52.608398"
   y1="170.2207"
   x2="233.8548"
   y2="65.578003">
				<stop
   offset="5.527638e-02"
   style="stop-color:#616B79"
   id="stop644" />
				<stop
   offset="0.2236"
   style="stop-color:#BEC5CD"
   id="stop646" />
				<stop
   offset="0.3894"
   style="stop-color:#A6ADB7"
   id="stop648" />
				<stop
   offset="0.5653"
   style="stop-color:#AEB5BD"
   id="stop650" />
				<stop
   offset="0.7613"
   style="stop-color:#E3E2E9"
   id="stop652" />
				<stop
   offset="0.9322"
   style="stop-color:#DFDFE7"
   id="stop654" />
			</linearGradient>
			<path
   class="st3"
   d="m 221.5,190.8 c 0,1.6 -72.5,44 -78.4,44 -6,0 -78.5,-42.3 -78.5,-44 0,-1.7 0,-143.5 0,-146.6 0,-3.1 47.9,-10.6 78.5,-10.6 30.6,0 78.5,7.6 78.5,10.6 -0.1,3 -0.1,145 -0.1,146.6 z"
   id="path657"
   inkscape:connector-curvature="0"
   style="fill:url(#SVGID_1_)" />
		</g>
		<path
   class="st4"
   d="m 143.1,235.6 c -3.9,0 -30.5,-15 -41.8,-21.5 C 92,208.8 82.7,203.3 75.7,199 63.9,191.8 63.9,191.3 63.9,190.7 V 44.2 c 0,-0.9 0.7,-1.9 8.5,-3.7 5,-1.1 12,-2.4 19.9,-3.5 18.1,-2.6 37.1,-4.1 50.8,-4.1 13.6,0 32.6,1.6 50.8,4.2 7.8,1.1 14.9,2.4 19.9,3.5 8.5,1.9 8.5,2.9 8.5,3.6 v 146.6 c 0,0.6 0,1 -11.8,8.2 -7,4.3 -16.4,9.8 -25.6,15.1 -11.4,6.5 -38,21.5 -41.8,21.5 z m -77.9,-45 c 3.8,3.7 72.1,43.5 77.9,43.5 5.7,0 73.9,-39.8 77.7,-43.5 V 44.4 c -2.8,-2.7 -47.7,-10 -77.8,-10 -31.1,0 -75.1,7.2 -77.8,10 z m 155.7,-0.1 z"
   id="path661"
   inkscape:connector-curvature="0"
   style="fill:#bcbec0" />
	</g>
</g>
<g
   id="g671"
   transform="translate(-27.7,-19.799997)">
	<g
   id="g669">
		<path
   class="st2"
   d="m 143.7,231.7 -0.1,-0.7 c 0.3,-0.1 0.8,-0.2 1.3,-0.4 l 0.2,0.7 c -0.5,0.1 -1,0.3 -1.4,0.4 z m -1.5,-0.1 c -0.4,-0.1 -0.8,-0.2 -1.4,-0.5 l 0.2,-0.7 c 0.5,0.2 1,0.3 1.3,0.4 z m 4.2,-0.9 -0.2,-0.7 c 0.4,-0.2 0.8,-0.4 1.3,-0.6 l 0.3,0.7 c -0.5,0.3 -1,0.4 -1.4,0.6 z m -6.9,-0.1 c -0.4,-0.2 -0.8,-0.4 -1.3,-0.6 l 0.3,-0.7 c 0.5,0.2 0.9,0.4 1.3,0.6 z m 9.5,-1 -0.3,-0.7 c 0.4,-0.2 0.8,-0.4 1.3,-0.6 l 0.3,0.7 c -0.5,0.2 -0.9,0.4 -1.3,0.6 z m -12.1,-0.1 c -0.4,-0.2 -0.8,-0.4 -1.3,-0.6 l 0.3,-0.7 c 0.4,0.2 0.9,0.4 1.3,0.6 z m 14.7,-1.2 -0.3,-0.7 c 0.4,-0.2 0.8,-0.4 1.3,-0.6 l 0.3,0.7 c -0.5,0.2 -0.9,0.4 -1.3,0.6 z m -17.2,0 c -0.4,-0.2 -0.8,-0.4 -1.3,-0.6 l 0.3,-0.7 c 0.4,0.2 0.9,0.4 1.3,0.6 z m 19.7,-1.2 -0.3,-0.7 c 0.4,-0.2 0.8,-0.4 1.3,-0.6 l 0.3,0.7 c -0.5,0.1 -0.9,0.4 -1.3,0.6 z M 131.9,227 c -0.4,-0.2 -0.8,-0.4 -1.3,-0.6 l 0.3,-0.7 c 0.4,0.2 0.8,0.4 1.3,0.6 z m 24.7,-1.2 -0.3,-0.7 c 0.4,-0.2 0.8,-0.4 1.3,-0.7 l 0.3,0.7 c -0.5,0.2 -0.9,0.5 -1.3,0.7 z m -27.2,-0.1 c -0.4,-0.2 -0.8,-0.4 -1.3,-0.7 l 0.3,-0.7 c 0.4,0.2 0.8,0.4 1.3,0.7 z m 29.7,-1.2 -0.3,-0.7 c 0.4,-0.2 0.8,-0.4 1.2,-0.7 l 0.3,0.7 c -0.4,0.2 -0.8,0.4 -1.2,0.7 z m -32.2,-0.1 c -0.4,-0.2 -0.8,-0.4 -1.2,-0.7 L 126,223 c 0.4,0.2 0.8,0.4 1.2,0.7 z m 34.7,-1.3 -0.3,-0.7 c 0.4,-0.2 0.8,-0.4 1.2,-0.7 l 0.3,0.7 c -0.4,0.3 -0.8,0.5 -1.2,0.7 z m -37.2,0 c -0.4,-0.2 -0.8,-0.4 -1.2,-0.7 l 0.3,-0.7 c 0.4,0.2 0.8,0.4 1.2,0.7 z m 39.7,-1.3 -0.3,-0.7 1.2,-0.7 0.3,0.7 z m -42.2,-0.1 -1.2,-0.7 0.3,-0.7 1.2,0.7 z m 44.7,-1.3 -0.3,-0.7 1.2,-0.7 0.3,0.7 z m -47.2,0 c -0.4,-0.2 -0.8,-0.5 -1.2,-0.7 l 0.3,-0.7 c 0.4,0.2 0.8,0.5 1.2,0.7 z m 49.7,-1.4 -0.3,-0.7 1.2,-0.7 0.3,0.7 z m -52.2,0 -1.2,-0.7 0.3,-0.7 1.2,0.7 z m 54.6,-1.3 -0.3,-0.7 1.2,-0.7 0.3,0.7 z m -57.1,-0.1 -1.2,-0.7 0.3,-0.7 1.2,0.7 z m 59.6,-1.3 -0.3,-0.7 1.2,-0.7 0.3,0.7 z m -62,0 -1.2,-0.7 0.3,-0.7 1.2,0.7 z m 64.5,-1.4 -0.3,-0.7 1.2,-0.7 0.3,0.7 z m -67,0 -1.2,-0.7 0.3,-0.7 1.2,0.7 z m 69.4,-1.4 -0.3,-0.7 1.2,-0.7 0.3,0.7 z m -71.9,0 -1.2,-0.7 0.3,-0.7 1.2,0.7 z m 74.4,-1.4 -0.3,-0.7 1.2,-0.7 0.3,0.7 z m -76.8,0 -1.2,-0.7 0.3,-0.7 1.2,0.7 z m 79.3,-1.4 -0.3,-0.7 1.2,-0.7 0.3,0.7 z m -81.8,0 -1.2,-0.7 0.3,-0.7 1.2,0.7 z m 84.2,-1.4 -0.3,-0.7 1.2,-0.7 0.3,0.7 z m -86.7,0 -1.2,-0.7 0.3,-0.7 1.2,0.7 z m 89.2,-1.4 -0.3,-0.7 1.2,-0.7 0.3,0.7 z m -91.6,-0.1 -1.2,-0.7 0.3,-0.7 1.2,0.7 z m 94,-1.3 -0.3,-0.7 1.2,-0.7 0.3,0.7 z m -96.5,-0.1 -1.2,-0.7 0.3,-0.7 1.2,0.7 z m 99,-1.4 -0.3,-0.7 1.2,-0.7 0.3,0.7 z m -101.4,0 -1.2,-0.7 0.3,-0.7 1.2,0.7 z m 103.8,-1.4 -0.3,-0.7 1.2,-0.7 0.3,0.7 z m -106.3,0 -1.2,-0.7 0.3,-0.7 1.2,0.7 z m 108.7,-1.5 -0.3,-0.7 1.2,-0.7 0.3,0.7 z m -111.1,0 -1.2,-0.7 0.3,-0.7 1.2,0.7 z m 113.6,-1.4 -0.3,-0.7 1.2,-0.7 0.3,0.7 z m -116,0 -1.2,-0.7 0.3,-0.7 1.2,0.7 z m 118.4,-1.5 -0.3,-0.7 1.2,-0.7 0.3,0.7 z m -120.9,0 -1.2,-0.7 0.3,-0.7 1.2,0.7 z m 123.4,-1.4 -0.3,-0.7 1.2,-0.7 0.3,0.7 z M 80.1,197.7 c -0.4,-0.2 -0.8,-0.5 -1.2,-0.7 l 0.3,-0.7 c 0.4,0.2 0.8,0.5 1.2,0.7 z m 128.2,-1.4 -0.3,-0.7 1.2,-0.7 0.3,0.7 z m -130.6,0 c -0.4,-0.3 -0.8,-0.5 -1.2,-0.7 l 0.3,-0.7 c 0.4,0.2 0.8,0.5 1.2,0.7 z m 133,-1.5 -0.3,-0.7 c 0.4,-0.3 0.8,-0.5 1.2,-0.8 l 0.3,0.7 c -0.4,0.3 -0.8,0.5 -1.2,0.8 z m -135.5,0 C 74.8,194.5 74.4,194.3 74,194 l 0.3,-0.7 c 0.4,0.2 0.8,0.5 1.2,0.8 z m 137.9,-1.5 -0.3,-0.7 c 0.4,-0.3 0.8,-0.5 1.2,-0.8 l 0.3,0.7 c -0.4,0.3 -0.8,0.5 -1.2,0.8 z m -140.3,0 C 72.4,193 72,192.8 71.6,192.5 l 0.3,-0.7 c 0.4,0.2 0.8,0.5 1.2,0.8 z m 142.7,-1.5 -0.4,-0.7 c 0.4,-0.3 0.8,-0.5 1.2,-0.8 l 0.4,0.6 c -0.3,0.3 -0.7,0.6 -1.2,0.9 z M 70.4,191.7 c -0.4,-0.3 -0.8,-0.6 -1.2,-0.8 l 0.4,-0.6 c 0.4,0.2 0.8,0.5 1.2,0.8 z m 147.5,-1.6 -0.4,-0.6 c 0.8,-0.6 0.9,-0.7 0.9,-0.8 0,0 0,0.1 0,0.1 h 0.7 c 0,0.3 -0.1,0.5 -1.2,1.3 z m -149.9,0 c -1,-0.7 -1.1,-0.9 -1.1,-1.2 v -0.1 h 0.7 c 0,0 0,0 0,0 0,0 0,0 0,0 v 0 c 0.1,0.1 0.3,0.3 0.8,0.7 z m 151.1,-1.9 h -0.7 v -1.5 h 0.7 z m -151.5,-1 h -0.7 v -1.5 h 0.7 z m 151.5,-2 h -0.7 v -1.5 h 0.7 z m -151.5,-1 h -0.7 v -1.5 h 0.7 z m 151.5,-2.1 h -0.7 v -1.5 h 0.7 z m -151.5,-1 h -0.7 v -1.5 h 0.7 z m 151.5,-2 h -0.7 v -1.5 h 0.7 z M 67.6,178 h -0.7 v -1.5 h 0.7 z m 151.5,-2 h -0.7 v -1.5 h 0.7 z M 67.6,175 h -0.7 v -1.5 h 0.7 z m 151.5,-2 h -0.7 v -1.5 h 0.7 z M 67.6,171.9 h -0.7 v -1.5 h 0.7 z m 151.5,-2 h -0.7 v -1.5 h 0.7 z m -151.5,-1 h -0.7 v -1.5 h 0.7 z m 151.5,-2 h -0.7 v -1.5 h 0.7 z M 67.6,165.8 h -0.7 v -1.5 h 0.7 z m 151.5,-2 h -0.7 v -1.5 h 0.7 z m -151.5,-1 h -0.7 v -1.5 h 0.7 z m 151.5,-2 h -0.7 v -1.5 h 0.7 z m -151.5,-1 h -0.7 v -1.5 h 0.7 z m 151.5,-2.1 h -0.7 v -1.5 h 0.7 z m -151.5,-1 h -0.7 v -1.5 h 0.7 z m 151.5,-2 h -0.7 v -1.5 h 0.7 z m -151.5,-1 h -0.7 v -1.5 h 0.7 z m 151.5,-2.1 h -0.7 v -1.5 h 0.7 z m -151.5,-1 h -0.7 v -1.5 h 0.7 z m 151.5,-2 h -0.7 V 147 h 0.7 z m -151.5,-1 H 66.9 V 146 h 0.7 z m 151.5,-2.1 h -0.7 V 144 h 0.7 z m -151.5,-1 H 66.9 V 143 h 0.7 z m 151.5,-2 h -0.7 V 141 h 0.7 z m -151.5,-1 H 66.9 V 140 h 0.7 z m 151.5,-2.1 h -0.7 v -1.5 h 0.7 z m -151.5,-1 h -0.7 v -1.5 h 0.7 z m 151.5,-2 h -0.7 v -1.5 h 0.7 z m -151.5,-1 h -0.7 v -1.5 h 0.7 z m 151.5,-2.1 h -0.7 v -1.5 h 0.7 z m -151.5,-1 h -0.7 v -1.5 h 0.7 z m 151.5,-2 h -0.7 v -1.5 h 0.7 z m -151.5,-1 h -0.7 v -1.5 h 0.7 z m 151.5,-2.1 h -0.7 v -1.5 h 0.7 z m -151.5,-1 h -0.7 v -1.5 h 0.7 z m 151.5,-2 h -0.7 v -1.5 h 0.7 z m -151.5,-1 h -0.7 v -1.5 h 0.7 z m 151.5,-2 h -0.7 v -1.5 h 0.7 z M 67.6,120.1 h -0.7 v -1.5 h 0.7 z m 151.5,-2 h -0.7 v -1.5 h 0.7 z m -151.5,-1 h -0.7 v -1.5 h 0.7 z m 151.5,-2 h -0.7 v -1.5 h 0.7 z m -151.5,-1 h -0.7 v -1.5 h 0.7 z M 219.1,112 h -0.7 v -1.5 h 0.7 z M 67.6,111 h -0.7 v -1.5 h 0.7 z m 151.5,-2 h -0.7 v -1.5 h 0.7 z M 67.6,108 h -0.7 v -1.5 h 0.7 z m 151.5,-2.1 h -0.7 v -1.5 h 0.7 z m -151.5,-1 h -0.7 v -1.5 h 0.7 z m 151.5,-2 h -0.7 v -1.5 h 0.7 z m -151.5,-1 h -0.7 v -1.5 h 0.7 z m 151.5,-2.1 h -0.7 v -1.5 h 0.7 z m -151.5,-1 h -0.7 v -1.5 h 0.7 z m 151.5,-2 h -0.7 v -1.5 h 0.7 z m -151.5,-1 h -0.7 v -1.5 h 0.7 z m 151.5,-2.1 h -0.7 v -1.5 h 0.7 z m -151.5,-1 h -0.7 v -1.5 h 0.7 z m 151.5,-2 h -0.7 v -1.5 h 0.7 z m -151.5,-1 h -0.7 v -1.5 h 0.7 z m 151.5,-2.1 h -0.7 v -1.5 h 0.7 z m -151.5,-1 h -0.7 v -1.5 h 0.7 z m 151.5,-2 h -0.7 v -1.5 h 0.7 z m -151.5,-1 h -0.7 v -1.5 h 0.7 z m 151.5,-2.1 h -0.7 V 80 h 0.7 z M 67.6,80.5 H 66.9 V 79 h 0.7 z m 151.5,-2 h -0.7 V 77 h 0.7 z M 67.6,77.5 H 66.9 V 76 h 0.7 z m 151.5,-2 h -0.7 V 74 h 0.7 z M 67.6,74.4 h -0.7 v -1.5 h 0.7 z m 151.5,-2 h -0.7 v -1.5 h 0.7 z m -151.5,-1 h -0.7 v -1.5 h 0.7 z m 151.5,-2 h -0.7 v -1.5 h 0.7 z m -151.5,-1 h -0.7 v -1.5 h 0.7 z m 151.5,-2.1 h -0.7 v -1.5 h 0.7 z m -151.5,-1 h -0.7 v -1.5 h 0.7 z m 151.5,-2 h -0.7 v -1.5 h 0.7 z m -151.5,-1 h -0.7 v -1.5 h 0.7 z m 151.5,-2.1 h -0.7 v -1.5 h 0.7 z m -151.5,-1 h -0.7 v -1.5 h 0.7 z m 151.5,-2 h -0.7 v -1.5 h 0.7 z m -151.5,-1 h -0.7 v -1.5 h 0.7 z m 151.5,-2.1 h -0.7 v -1.5 h 0.7 z m -151.5,-1 h -0.7 v -1.5 h 0.7 z m 151.5,-2 h -0.7 v -1.5 h 0.7 z M 67.6,50 h -0.7 v -1.5 h 0.7 z m 151.5,-2 h -0.7 v -0.6 c 0,0 -0.1,-0.1 -0.3,-0.3 l 0.3,-0.7 c 0.3,0.2 0.7,0.5 0.7,0.9 z M 67.6,47.3 67.1,46.8 c 0.2,-0.3 0.7,-0.5 1.3,-0.8 l 0.3,0.7 C 68,47 67.8,47.2 67.6,47.3 Z m 149.2,-0.8 c -0.4,-0.1 -0.8,-0.3 -1.3,-0.4 l 0.2,-0.7 c 0.5,0.2 1,0.3 1.3,0.5 z M 70,46.2 69.8,45.5 c 0.4,-0.1 0.9,-0.3 1.3,-0.4 l 0.2,0.7 c -0.4,0.1 -0.9,0.3 -1.3,0.4 z m 144.2,-0.5 c -0.4,-0.1 -0.9,-0.2 -1.3,-0.3 l 0.2,-0.7 c 0.5,0.1 0.9,0.2 1.4,0.4 z M 72.7,45.4 72.5,44.7 c 0.4,-0.1 0.9,-0.2 1.4,-0.3 l 0.1,0.7 c -0.4,0.1 -0.9,0.2 -1.3,0.3 z M 211.5,45 c -0.4,-0.1 -0.9,-0.2 -1.4,-0.3 l 0.1,-0.7 c 0.5,0.1 0.9,0.2 1.4,0.3 z M 75.4,44.8 75.2,44 c 0.4,-0.1 0.9,-0.2 1.4,-0.3 l 0.1,0.7 c -0.4,0.2 -0.9,0.3 -1.3,0.4 z m 133.4,-0.4 c -0.4,-0.1 -0.9,-0.2 -1.4,-0.3 l 0.1,-0.7 c 0.5,0.1 0.9,0.2 1.4,0.3 z M 78.1,44.2 78,43.5 c 0.4,-0.1 0.9,-0.2 1.4,-0.3 l 0.1,0.7 c -0.5,0.1 -1,0.2 -1.4,0.3 z m 128,-0.3 c -0.4,-0.1 -0.9,-0.2 -1.4,-0.3 l 0.1,-0.7 c 0.5,0.1 0.9,0.2 1.4,0.3 z M 80.8,43.7 80.7,42.9 c 0.4,-0.1 0.9,-0.2 1.4,-0.3 l 0.1,0.8 c -0.5,0.1 -0.9,0.2 -1.4,0.3 z M 203.4,43.4 C 203,43.3 202.5,43.2 202,43.2 l 0.1,-0.8 c 0.5,0.1 0.9,0.2 1.4,0.2 z M 83.5,43.2 83.4,42.4 c 0.5,-0.1 0.9,-0.2 1.4,-0.2 l 0.1,0.8 c -0.4,0 -0.9,0.1 -1.4,0.2 z m 117.1,-0.3 c -0.5,-0.1 -0.9,-0.2 -1.4,-0.2 l 0.1,-0.8 c 0.5,0.1 0.9,0.2 1.4,0.2 z M 86.3,42.7 86.2,42 c 0.5,-0.1 0.9,-0.1 1.4,-0.2 l 0.1,0.8 c -0.5,0 -1,0 -1.4,0.1 z m 111.6,-0.2 c -0.5,-0.1 -0.9,-0.1 -1.4,-0.2 l 0.1,-0.8 c 0.5,0.1 0.9,0.1 1.4,0.2 z M 89,42.3 88.9,41.5 c 0.5,-0.1 0.9,-0.1 1.4,-0.2 l 0.1,0.8 c -0.5,0 -0.9,0.1 -1.4,0.2 z M 195.1,42 c -0.5,-0.1 -0.9,-0.1 -1.4,-0.2 l 0.1,-0.8 c 0.5,0.1 0.9,0.1 1.4,0.2 z M 91.8,41.9 91.7,41.1 C 92.2,41 92.6,41 93.1,40.9 l 0.1,0.8 c -0.5,0 -1,0.1 -1.4,0.2 z m 100.6,-0.3 c -0.5,-0.1 -0.9,-0.1 -1.4,-0.2 l 0.1,-0.8 c 0.5,0.1 0.9,0.1 1.4,0.2 z M 94.5,41.5 94.4,40.7 c 0.5,-0.1 0.9,-0.1 1.4,-0.2 l 0.1,0.8 c -0.5,0 -0.9,0.1 -1.4,0.2 z m 95.2,-0.3 c -0.5,-0.1 -0.9,-0.1 -1.4,-0.2 l 0.1,-0.8 c 0.5,0.1 0.9,0.1 1.4,0.2 z m -92.5,-0.1 -0.1,-0.8 1.4,-0.2 0.1,0.8 z m 89.7,-0.2 -1.4,-0.2 0.1,-0.8 1.4,0.2 z M 100,40.7 99.9,40 c 0.5,-0.1 0.9,-0.1 1.4,-0.2 l 0.1,0.8 c -0.5,0 -0.9,0.1 -1.4,0.1 z m 84.2,-0.2 c -0.5,-0.1 -0.9,-0.1 -1.4,-0.2 l 0.1,-0.8 c 0.5,0.1 0.9,0.1 1.4,0.2 z m -81.5,-0.1 -0.1,-0.8 c 0.5,-0.1 0.9,-0.1 1.4,-0.2 l 0.1,0.8 c -0.4,0.1 -0.9,0.1 -1.4,0.2 z m 78.7,-0.2 C 180.9,40.1 180.5,40.1 180,40 l 0.1,-0.8 c 0.5,0.1 0.9,0.1 1.4,0.2 z M 105.5,40 105.4,39.2 c 0.5,-0.1 0.9,-0.1 1.4,-0.2 l 0.1,0.8 c -0.5,0.1 -0.9,0.2 -1.4,0.2 z m 73.2,-0.1 c -0.5,-0.1 -0.9,-0.1 -1.4,-0.2 l 0.1,-0.8 c 0.5,0.1 0.9,0.1 1.4,0.2 z m -70.4,-0.2 -0.1,-0.8 c 0.5,-0.1 0.9,-0.1 1.4,-0.1 l 0.1,0.8 c -0.5,0 -1,0.1 -1.4,0.1 z m 67.6,-0.1 c -0.5,0 -0.9,-0.1 -1.4,-0.1 l 0.1,-0.8 c 0.5,0 0.9,0.1 1.4,0.1 z m -64.9,-0.2 -0.1,-0.8 1.4,-0.1 0.1,0.8 z m 62.1,-0.1 c -0.5,0 -0.9,-0.1 -1.4,-0.1 l 0.1,-0.8 c 0.5,0 0.9,0.1 1.4,0.1 z m -59.3,-0.1 -0.1,-0.8 c 0.5,0 0.9,-0.1 1.4,-0.1 l 0.1,0.8 c -0.5,0 -1,0 -1.4,0.1 z M 170.4,39 c -0.5,0 -0.9,-0.1 -1.4,-0.1 l 0.1,-0.8 c 0.5,0 0.9,0.1 1.4,0.1 z m -53.9,-0.1 -0.1,-0.8 c 0.5,0 0.9,-0.1 1.4,-0.1 l 0.1,0.8 c -0.5,0 -0.9,0.1 -1.4,0.1 z m 51.1,-0.1 c -0.5,0 -0.9,-0.1 -1.4,-0.1 l 0.1,-0.8 c 0.5,0 0.9,0.1 1.4,0.1 z m -48.3,-0.1 -0.1,-0.8 c 0.5,0 0.9,-0.1 1.4,-0.1 l 0.1,0.8 c -0.5,0 -1,0 -1.4,0.1 z m 45.6,-0.2 c -0.5,0 -0.9,-0.1 -1.4,-0.1 v -0.8 c 0.5,0 0.9,0.1 1.4,0.1 z m -42.9,0 v -0.8 c 0.5,0 0.9,-0.1 1.4,-0.1 v 0.8 c -0.4,0 -0.9,0 -1.4,0.1 z m 40.1,-0.2 c -0.5,0 -0.9,-0.1 -1.4,-0.1 v -0.8 c 0.5,0 0.9,0.1 1.4,0.1 z m -37.3,-0.1 v -0.8 c 0.5,0 0.9,-0.1 1.4,-0.1 v 0.8 c -0.5,0.1 -0.9,0.1 -1.4,0.1 z m 34.5,-0.1 c -0.5,0 -0.9,-0.1 -1.4,-0.1 v -0.8 c 0.5,0 0.9,0.1 1.4,0.1 z m -31.7,0 v -0.8 c 0.5,0 0.9,-0.1 1.4,-0.1 V 38 c -0.5,0 -1,0 -1.4,0.1 z m 29,-0.1 c -0.5,0 -0.9,-0.1 -1.4,-0.1 v -0.8 c 0.5,0 0.9,0 1.4,0.1 z m -26.3,-0.1 v -0.8 c 0.5,0 0.9,0 1.4,-0.1 v 0.8 c -0.5,0.1 -0.9,0.1 -1.4,0.1 z m 23.5,-0.1 c -0.5,0 -0.9,0 -1.4,-0.1 v -0.8 c 0.5,0 0.9,0 1.4,0.1 z m -20.7,0 V 37 c 0.5,0 0.9,0 1.4,-0.1 v 0.8 c -0.5,0 -0.9,0.1 -1.4,0.1 z m 18,-0.1 c -0.5,0 -0.9,0 -1.4,0 v -0.8 c 0.5,0 0.9,0 1.4,0 z m -15.2,0 v -0.8 c 0.5,0 0.9,0 1.4,0 v 0.8 c -0.5,-0.1 -1,0 -1.4,0 z m 12.4,-0.1 c -0.5,0 -0.9,0 -1.4,0 v -0.8 c 0.5,0 0.9,0 1.4,0 z m -9.7,0 v -0.8 c 0.5,0 0.9,0 1.4,0 v 0.8 c -0.5,0 -0.9,0 -1.4,0 z m 6.9,0 c -0.5,0 -0.9,0 -1.4,0 v -0.8 c 0.5,0 0.9,0 1.4,0 z m -4.1,0 v -0.8 c 0.5,0 0.9,0 1.4,0 v 0.8 c -0.5,-0.1 -1,0 -1.4,0 z"
   id="path667"
   inkscape:connector-curvature="0"
   style="fill:#ffffff" />
	</g>
</g>
<g
   id="g685"
   transform="translate(-27.7,-19.799997)">
	<g
   id="g677">
		<g
   id="g675">
			<rect
   x="106.3"
   y="200.5"
   class="st2"
   width="27.5"
   height="0.40000001"
   id="rect673"
   style="fill:#ffffff" />
		</g>
	</g>
	<g
   id="g683">
		<g
   id="g681">
			<rect
   x="152.2"
   y="200.39999"
   class="st2"
   width="27.5"
   height="0.40000001"
   id="rect679"
   style="fill:#ffffff" />
		</g>
	</g>
</g>
<g
   id="g695"
   transform="translate(-27.7,-19.799997)">
	<g
   id="g689">
		<path
   class="st5"
   d="m 238.7,153 8.6,-18.8 h -71.5 c -5,-15.3 -18.3,-26.2 -34,-26.2 -15.6,0 -28.9,10.9 -34,26.2 H 36.3 l 8.6,18.8 -8.6,18.8 H 113 c 6.6,9.6 17.1,15.8 28.8,15.8 11.7,0 22.2,-6.2 28.8,-15.8 h 76.6 z"
   id="path687"
   inkscape:connector-curvature="0"
   style="fill:#6d6e71" />
	</g>
	<g
   id="g693">
		<path
   class="st5"
   d="m 141.9,187.9 c -11.5,0 -22,-5.7 -29,-15.8 H 35.7 L 44.5,153 35.7,133.9 h 71.9 c 5.3,-15.7 19,-26.2 34.2,-26.2 15.2,0 28.9,10.5 34.2,26.2 h 71.8 l -8.8,19.1 8.8,19.1 h -77 c -6.9,10.1 -17.5,15.8 -28.9,15.8 z M 36.8,171.4 h 76.4 l 0.1,0.1 c 6.8,9.9 17.2,15.6 28.6,15.6 11.4,0 21.7,-5.7 28.6,-15.6 l 0.1,-0.1 h 76.2 l -8.5,-18.4 8.5,-18.4 h -71.2 l -0.1,-0.2 c -5.1,-15.5 -18.6,-25.9 -33.6,-25.9 -15,0 -28.5,10.4 -33.6,25.9 l -0.1,0.2 H 36.8 l 8.5,18.4 z"
   id="path691"
   inkscape:connector-curvature="0"
   style="fill:#6d6e71" />
	</g>
</g>
<g
   id="g703"
   transform="translate(-27.7,-19.799997)">
	<g
   id="g701">
		<path
   class="st5"
   d="m 142.1,186.9 h -0.2 v -0.7 h 0.2 c 0.8,0 1.7,0 2.5,-0.1 l 0.1,0.7 c -0.9,0.1 -1.8,0.1 -2.6,0.1 z m -3,-0.1 c -0.9,-0.1 -1.8,-0.2 -2.7,-0.4 l 0.1,-0.7 c 0.9,0.2 1.8,0.3 2.7,0.4 z m 8.3,-0.3 -0.1,-0.7 c 0.9,-0.2 1.8,-0.3 2.6,-0.6 l 0.2,0.7 c -0.9,0.2 -1.8,0.4 -2.7,0.6 z m -13.7,-0.7 c -0.9,-0.2 -1.8,-0.5 -2.6,-0.8 l 0.2,-0.7 c 0.9,0.3 1.7,0.6 2.6,0.8 z m 19,-0.7 -0.2,-0.7 c 0.9,-0.3 1.7,-0.6 2.5,-1 l 0.3,0.7 c -0.9,0.3 -1.7,0.7 -2.6,1 z m -24.2,-1.3 c -0.8,-0.4 -1.7,-0.8 -2.5,-1.3 l 0.3,-0.7 c 0.8,0.5 1.6,0.9 2.4,1.3 z m 29.3,-1 -0.3,-0.7 c 0.8,-0.4 1.6,-0.9 2.4,-1.4 l 0.3,0.6 c -0.8,0.6 -1.6,1 -2.4,1.5 z m -34.2,-1.7 c -0.8,-0.5 -1.5,-1.1 -2.3,-1.7 l 0.4,-0.6 c 0.7,0.6 1.5,1.1 2.2,1.6 z m 38.9,-1.4 -0.4,-0.6 c 0.7,-0.6 1.5,-1.2 2.2,-1.8 l 0.4,0.6 c -0.7,0.6 -1.4,1.2 -2.2,1.8 z m -43.3,-2.2 c -0.7,-0.6 -1.4,-1.3 -2,-2 l 0.5,-0.5 c 0.6,0.7 1.3,1.4 2,2 z m 47.6,-1.6 -0.5,-0.5 c 0.7,-0.7 1.3,-1.4 1.9,-2.1 l 0.5,0.5 c -0.6,0.7 -1.2,1.4 -1.9,2.1 z m -51.6,-2.6 c -0.6,-0.7 -1.1,-1.5 -1.7,-2.2 l 0.1,-0.1 v -0.5 h 0.3 l 0.1,0.1 c 0.5,0.7 1.1,1.5 1.6,2.2 z m 55.3,-1.8 -0.5,-0.5 0.3,-0.5 h 2.5 v 0.7 h -2.2 z M 111,171.3 h -2.7 v -0.7 h 2.7 z m 64.6,0 v -0.7 h 2.7 v 0.7 z m -70.1,0 h -2.7 v -0.7 h 2.7 z m 75.5,0 v -0.7 h 2.7 v 0.7 z m -80.9,0 h -2.7 v -0.7 h 2.7 z m 86.3,0 v -0.7 h 2.7 v 0.7 z m -91.8,-0.1 h -2.7 v -0.7 h 2.7 z m 97.3,0 v -0.7 h 2.7 v 0.7 z m -102.7,0 h -2.7 v -0.7 h 2.7 z m 108.1,0 v -0.7 h 2.7 v 0.7 z m -113.6,0 H 81 v -0.7 h 2.7 z m 119.1,0 v -0.7 h 2.7 v 0.7 z m -124.5,0 h -2.7 v -0.7 h 2.7 z m 129.9,0 v -0.7 h 2.7 v 0.7 z m -135.4,0 h -2.7 v -0.7 h 2.7 z m 140.9,0 v -0.7 h 2.7 v 0.7 z m -146.3,0 h -2.7 v -0.7 h 2.7 z m 151.7,0 v -0.7 h 2.7 v 0.7 z m -157.2,0 h -2.7 v -0.7 h 2.7 z m 162.7,0 v -0.7 h 2.7 v 0.7 z m -168.1,0 h -2.7 v -0.7 h 2.7 z m 173.5,0 v -0.7 h 2.7 v 0.7 z m -179,0 h -2.7 v -0.7 H 51 Z m 184.5,0 v -0.7 h 2.7 v 0.7 z m -189.9,0 h -2.7 v -0.7 h 2.7 z m 195.3,0 v -0.7 h 2.7 v 0.7 z m -200.8,0 h -2.9 l 0.4,-0.9 0.3,0.2 h 2.2 z m 205.8,-0.3 -1.3,-2.6 0.6,-0.4 1.3,2.6 z M 39.5,168 l -0.6,-0.3 1.3,-2.7 0.6,0.3 z m 203.8,-2.4 -1.3,-2.6 0.6,-0.4 1.3,2.6 z m -201.2,-2.9 -0.6,-0.3 1.3,-2.7 0.6,0.3 z m 198.7,-2.4 -1.3,-2.6 0.6,-0.4 1.3,2.6 z M 44.6,157.4 44,157 l 1.3,-2.7 0.6,0.3 z m 193.7,-2.4 -0.9,-1.9 1.3,-2.8 0.6,0.3 -1.2,2.5 0.7,1.6 z m -192.8,-2.9 -1.3,-2.6 0.6,-0.4 1.3,2.6 z m 195,-4.2 -0.6,-0.3 1.2,-2.7 0.6,0.3 z m -197.6,-1.1 -1.3,-2.6 0.6,-0.4 1.3,2.6 z m 200.1,-4.2 -0.6,-0.3 1.2,-2.7 0.6,0.3 z m -202.6,-1.1 -1.3,-2.6 0.6,-0.4 1.3,2.6 z m 205.1,-4.2 -0.6,-0.3 0.9,-2 v -0.4 h 1 z M 37.8,136.2 37.2,135 h 2.6 v 0.7 h -1.5 l 0.1,0.1 z m 4.7,-0.5 V 135 h 2.7 v 0.7 z m 5.5,0 V 135 h 2.7 v 0.7 z m 5.4,-0.1 v -0.7 h 2.7 v 0.7 z m 5.5,0 v -0.7 h 2.7 v 0.7 z m 5.4,0 v -0.7 H 67 v 0.7 z m 5.5,0 v -0.7 h 2.7 v 0.7 z m 5.4,0 v -0.7 h 2.7 v 0.7 z m 5.5,0 v -0.7 h 2.7 v 0.7 z m 5.4,-0.1 v -0.7 h 2.7 v 0.7 z m 5.5,0 v -0.7 h 2.7 v 0.7 z m 5.4,0 v -0.7 h 2.7 v 0.7 z m 5.5,0 v -0.7 h 2.7 v 0.7 z m 5.4,0 v -0.7 h 0.6 c 0.2,-0.6 0.4,-1.1 0.6,-1.7 l 0.6,0.3 c -0.2,0.6 -0.5,1.3 -0.7,1.9 l -0.1,0.2 z m 67.4,0 -0.1,-0.2 c -0.1,-0.2 -0.1,-0.4 -0.2,-0.5 l 0.6,-0.3 c 0,0.1 0.1,0.2 0.1,0.3 h 2 v 0.7 z m 5.2,-0.1 v -0.7 h 2.7 v 0.7 z m 5.4,0 v -0.7 h 2.7 v 0.7 z m 5.5,0 v -0.7 h 2.7 v 0.7 z m 5.4,0 v -0.7 h 2.7 v 0.7 z m 5.5,0 v -0.7 h 2.7 v 0.7 z m 5.4,-0.1 v -0.7 h 2.7 v 0.7 z m 5.5,0 v -0.7 h 2.7 v 0.7 z m 5.4,0 v -0.7 h 2.7 v 0.7 z m 5.4,0 v -0.7 h 2.7 v 0.7 z m 5.5,0 v -0.7 h 2.7 v 0.7 z m 5.4,-0.1 v -0.7 h 2.7 v 0.7 z m 5.5,0 v -0.7 h 2.7 v 0.7 z M 174,132 c -0.4,-0.9 -0.8,-1.8 -1.3,-2.6 l 0.6,-0.4 c 0.5,0.9 0.9,1.8 1.3,2.7 z m -63.1,-1.3 -0.6,-0.4 c 0.4,-0.9 0.9,-1.8 1.4,-2.6 l 0.6,0.4 c -0.5,0.8 -0.9,1.7 -1.4,2.6 z m 60.3,-3.9 c -0.5,-0.8 -1,-1.6 -1.6,-2.4 l 0.5,-0.5 c 0.6,0.8 1.1,1.6 1.6,2.4 z m -57.4,-1.2 -0.5,-0.4 c 0.5,-0.8 1.1,-1.6 1.7,-2.4 l 0.5,0.5 c -0.6,0.8 -1.2,1.5 -1.7,2.3 z m 54.1,-3.4 c -0.6,-0.7 -1.3,-1.4 -1.9,-2.1 l 0.5,-0.5 c 0.7,0.7 1.3,1.4 1.9,2.1 z m -50.6,-1.1 -0.5,-0.5 c 0.6,-0.7 1.3,-1.4 2,-2.1 l 0.4,0.6 c -0.6,0.7 -1.2,1.3 -1.9,2 z m 46.6,-2.9 c -0.7,-0.6 -1.4,-1.2 -2.2,-1.8 l 0.4,-0.6 c 0.8,0.6 1.5,1.2 2.2,1.8 z m -42.5,-1 -0.4,-0.6 c 0.7,-0.6 1.5,-1.2 2.3,-1.7 l 0.4,0.6 c -0.8,0.6 -1.6,1.2 -2.3,1.7 z m 38.1,-2.4 c -0.8,-0.5 -1.6,-1 -2.4,-1.4 l 0.3,-0.7 c 0.8,0.4 1.6,0.9 2.4,1.4 z m -33.6,-0.7 -0.3,-0.7 c 0.8,-0.5 1.6,-0.9 2.5,-1.3 l 0.3,0.7 c -0.8,0.4 -1.7,0.8 -2.5,1.3 z m 28.7,-1.9 c -0.8,-0.4 -1.7,-0.7 -2.5,-1 l 0.2,-0.7 c 0.9,0.3 1.7,0.6 2.6,1 z m -23.7,-0.5 -0.2,-0.7 c 0.9,-0.3 1.7,-0.6 2.6,-0.9 l 0.2,0.7 c -0.9,0.3 -1.8,0.6 -2.6,0.9 z m 18.6,-1.2 c -0.9,-0.2 -1.8,-0.4 -2.7,-0.5 l 0.1,-0.7 c 0.9,0.1 1.8,0.3 2.7,0.5 z m -13.4,-0.3 -0.1,-0.7 c 0.9,-0.2 1.8,-0.3 2.7,-0.4 l 0.1,0.7 c -0.9,0.1 -1.8,0.2 -2.7,0.4 z m 8,-0.5 c -0.9,-0.1 -1.8,-0.1 -2.7,-0.1 v -0.7 c 0.9,0 1.8,0 2.7,0.1 z"
   id="path697"
   inkscape:connector-curvature="0"
   style="fill:#6d6e71" />
		<path
   class="st2"
   d="m 142.1,108.8 c -0.2,0 -0.4,0 -0.6,0 v 0.7 c 0.2,0 0.4,0 0.6,0 0.7,0 1.4,0 2.1,0.1 v -0.7 c -0.7,0 -1.4,-0.1 -2.1,-0.1 z m -3.4,0.2 c -0.9,0.1 -1.8,0.2 -2.7,0.4 l 0.1,0.7 c 0.9,-0.2 1.8,-0.3 2.7,-0.4 z m 8.2,0.2 -0.1,0.7 c 0.9,0.1 1.8,0.3 2.7,0.5 l 0.1,-0.7 c -0.9,-0.2 -1.8,-0.3 -2.7,-0.5 z m -13.6,0.9 c -0.9,0.3 -1.8,0.6 -2.6,0.9 l 0.2,0.7 c 0.8,-0.3 1.7,-0.6 2.6,-0.9 z m 19,0.4 -0.2,0.7 c 0.9,0.3 1.7,0.6 2.5,1 l 0.3,-0.7 c -0.9,-0.3 -1.7,-0.7 -2.6,-1 z m -24.2,1.6 c -0.8,0.4 -1.7,0.8 -2.5,1.3 l 0.3,0.7 c 0.8,-0.5 1.6,-0.9 2.4,-1.3 z m 29.3,0.6 -0.3,0.7 c 0.8,0.4 1.6,0.9 2.4,1.4 l 0.3,-0.6 c -0.8,-0.5 -1.6,-1 -2.4,-1.5 z m -34.1,2.2 c -0.8,0.5 -1.5,1.1 -2.3,1.7 l 0.4,0.6 c 0.7,-0.6 1.5,-1.2 2.2,-1.7 z m 38.8,0.9 -0.4,0.6 c 0.7,0.6 1.5,1.2 2.2,1.8 l 0.4,-0.6 c -0.7,-0.6 -1.4,-1.2 -2.2,-1.8 z m -43.3,2.7 c -0.7,0.7 -1.4,1.4 -2,2.1 l 0.5,0.5 c 0.6,-0.7 1.3,-1.4 2,-2 z m 47.6,1.1 -0.5,0.5 c 0.7,0.7 1.3,1.4 1.9,2.1 l 0.5,-0.5 c -0.6,-0.7 -1.2,-1.5 -1.9,-2.1 z m -51.4,3.2 c -0.6,0.8 -1.2,1.6 -1.7,2.4 l 0.5,0.4 c 0.5,-0.8 1.1,-1.6 1.7,-2.3 z m 55.2,1.2 -0.5,0.5 c 0.6,0.8 1.1,1.6 1.6,2.4 l 0.6,-0.4 c -0.6,-0.9 -1.2,-1.7 -1.7,-2.5 z m -58.5,3.7 c -0.5,0.9 -1,1.7 -1.4,2.6 l 0.6,0.4 c 0.4,-0.9 0.9,-1.7 1.4,-2.6 z m 61.6,1.3 -0.6,0.4 c 0.5,0.9 0.9,1.7 1.3,2.6 l 0.6,-0.3 c -0.4,-1 -0.9,-1.9 -1.3,-2.7 z m -64.2,4 c -0.2,0.6 -0.4,1.1 -0.6,1.7 h -0.6 v 0.7 h 1.1 l 0.1,-0.2 c 0.2,-0.6 0.4,-1.3 0.7,-1.9 z m 66.6,1.4 -0.6,0.3 c 0.1,0.2 0.1,0.4 0.2,0.5 l 0.1,0.2 h 2.4 v -0.7 h -2 c -0.1,-0.1 -0.1,-0.2 -0.1,-0.3 z m 71.1,0 h -1 v 0.4 l -0.9,2 0.6,0.3 z m -3.7,0.1 h -2.7 v 0.7 h 2.7 z m -5.4,0 H 235 v 0.7 h 2.7 z m -5.5,0 h -2.7 v 0.7 h 2.7 z m -5.4,0 h -2.7 v 0.7 h 2.7 z m -5.5,0 h -2.7 v 0.7 h 2.7 z m -5.4,0.1 h -2.7 v 0.7 h 2.7 z m -5.5,0 h -2.7 v 0.7 h 2.7 z m -5.4,0 h -2.7 v 0.7 h 2.7 z m -5.5,0 h -2.7 v 0.7 h 2.7 z m -5.4,0 h -2.7 v 0.7 h 2.7 z m -5.5,0.1 h -2.7 v 0.7 h 2.7 z m -5.4,0 h -2.7 v 0.7 h 2.7 z m -78,0 h -2.7 v 0.7 h 2.7 z m -5.5,0 H 97 v 0.7 h 2.7 z m -5.4,0.1 h -2.7 v 0.7 h 2.7 z m -5.5,0 h -2.7 v 0.7 h 2.7 z m -5.4,0 h -2.7 v 0.7 h 2.7 z m -5.5,0 h -2.7 v 0.7 h 2.7 z m -5.4,0 h -2.7 v 0.7 h 2.7 z m -5.5,0.1 h -2.7 v 0.7 H 67 Z m -5.4,0 h -2.7 v 0.7 h 2.7 z m -5.5,0 h -2.7 v 0.7 h 2.7 z m -5.4,0 H 48 v 0.7 h 2.7 z m -5.5,0 h -2.7 v 0.7 h 2.7 z m -5.4,0 h -2.6 l 0.6,1.2 0.6,-0.4 -0.1,-0.1 h 1.5 z m -0.1,3.6 -0.6,0.4 1.3,2.6 0.6,-0.4 z m 203.9,1.1 -1.2,2.7 0.6,0.3 1.2,-2.7 z m -201.4,4.2 -0.6,0.4 1.3,2.6 0.6,-0.4 z m 199,1.1 -1.2,2.7 0.6,0.3 1.2,-2.7 z m -196.4,4.2 -0.6,0.4 1.3,2.6 0.6,-0.4 z m 193.9,1.1 -1.3,2.8 0.9,1.9 0.6,-0.4 -0.7,-1.6 1.2,-2.5 z m -193.4,4.2 -1.3,2.6 0.6,0.3 1.3,-2.7 z m 194.8,2.9 -0.6,0.4 1.3,2.6 0.6,-0.4 z m -197.4,2.4 -1.3,2.7 0.6,0.3 1.3,-2.7 z m 200,2.9 -0.6,0.4 1.3,2.6 0.6,-0.4 z m -202.5,2.4 -1.3,2.7 0.6,0.3 1.3,-2.7 z m 205,2.9 -0.6,0.4 1.3,2.6 0.6,-0.4 z m -207.5,2.4 -0.4,0.9 h 2.9 v -0.7 H 38 Z m 205.9,0.1 h -2.7 v 0.7 h 2.7 z m -200.7,0 v 0.7 h 2.7 v -0.7 z m 195.3,0 h -2.7 v 0.7 h 2.7 z m -189.9,0 v 0.7 H 51 v -0.7 z m 184.5,0.1 h -2.7 v 0.7 h 2.7 z m -179,0 v 0.7 h 2.7 v -0.7 z m 173.5,0 h -2.7 v 0.7 h 2.7 z m -168.1,0 v 0.7 h 2.7 v -0.7 z m 162.7,0 h -2.7 v 0.7 h 2.7 z m -157.3,0 v 0.7 h 2.7 v -0.7 z m 151.8,0 h -2.7 v 0.7 h 2.7 z m -146.3,0 v 0.7 h 2.7 v -0.7 z m 140.9,0 h -2.7 v 0.7 h 2.7 z m -135.5,0 v 0.7 h 2.7 v -0.7 z m 130,0 h -2.7 v 0.7 h 2.7 z m -124.5,0 v 0.7 h 2.7 v -0.7 z m 119.1,0 h -2.7 v 0.7 h 2.7 z m -113.7,0 v 0.7 h 2.7 v -0.7 z m 108.2,0 h -2.7 v 0.7 h 2.7 z m -102.7,0 v 0.7 h 2.7 v -0.7 z m 97.3,0 h -2.7 v 0.7 h 2.7 z m -91.9,0 v 0.7 h 2.7 v -0.7 z m 86.4,0 H 181 v 0.7 h 2.7 z m -80.9,0 v 0.7 h 2.7 v -0.7 z m 75.5,0 h -2.7 v 0.7 h 2.7 z m -70.1,0 v 0.7 h 2.7 v -0.7 z m 64.6,0 h -2.5 l -0.3,0.5 0.5,0.5 0.1,-0.2 h 2.2 z m -58.8,0 h -0.3 v 0.5 l -0.1,0.1 c 0.5,0.8 1.1,1.5 1.7,2.2 l 0.5,-0.5 c -0.6,-0.7 -1.1,-1.4 -1.6,-2.2 z m 54.2,2.7 c -0.6,0.7 -1.2,1.4 -1.9,2.1 l 0.5,0.5 c 0.7,-0.7 1.3,-1.4 1.9,-2.1 z m -50.6,1.8 -0.5,0.5 c 0.7,0.7 1.3,1.4 2,2 l 0.4,-0.6 c -0.6,-0.6 -1.3,-1.2 -1.9,-1.9 z m 46.7,2.3 c -0.7,0.6 -1.4,1.2 -2.2,1.8 l 0.4,0.6 c 0.7,-0.6 1.5,-1.2 2.2,-1.8 z m -42.6,1.5 -0.4,0.6 c 0.7,0.6 1.5,1.2 2.3,1.7 l 0.4,-0.6 c -0.8,-0.6 -1.5,-1.1 -2.3,-1.7 z m 38.2,1.9 c -0.8,0.5 -1.6,1 -2.4,1.4 l 0.3,0.7 c 0.8,-0.4 1.6,-0.9 2.4,-1.4 z m -33.6,1.2 -0.3,0.7 c 0.8,0.5 1.6,0.9 2.5,1.3 l 0.3,-0.7 c -0.9,-0.4 -1.7,-0.9 -2.5,-1.3 z m 28.7,1.4 c -0.8,0.4 -1.7,0.7 -2.5,1 l 0.2,0.7 c 0.9,-0.3 1.7,-0.7 2.6,-1 z m -23.7,0.9 -0.2,0.7 c 0.9,0.3 1.8,0.6 2.6,0.8 l 0.2,-0.7 c -0.9,-0.2 -1.8,-0.5 -2.6,-0.8 z m 18.6,0.9 c -0.9,0.2 -1.8,0.4 -2.6,0.6 l 0.1,0.7 c 0.9,-0.2 1.8,-0.3 2.7,-0.6 z m -13.4,0.5 -0.1,0.7 c 0.9,0.2 1.8,0.3 2.7,0.4 l 0.1,-0.7 c -0.9,-0.1 -1.8,-0.2 -2.7,-0.4 z m 8.1,0.5 c -0.8,0.1 -1.7,0.1 -2.5,0.1 h -0.2 v 0.7 h 0.2 c 0.8,0 1.7,0 2.5,-0.1 z"
   id="path699"
   inkscape:connector-curvature="0"
   style="fill:#ffffff" />
	</g>
</g>
<g
   id="g711"
   transform="translate(-27.7,-19.799997)">
	<g
   id="g709">
		<polygon
   class="st2"
   points="70,154.8 67.2,156.4 67.7,153 65.4,150.5 68.6,150 70,146.9 71.4,150 74.5,150.5 72.2,153 72.8,156.4 "
   id="polygon705"
   style="fill:#ffffff" />
		<path
   class="st2"
   d="m 70,148.2 0.8,1.8 0.2,0.5 0.5,0.1 2,0.3 -1.5,1.6 -0.3,0.4 0.1,0.5 0.3,2.1 -1.6,-0.9 -0.5,-0.3 -0.5,0.3 -1.6,0.9 0.3,-2.1 0.1,-0.5 -0.3,-0.4 -1.5,-1.6 2,-0.3 0.5,-0.1 0.2,-0.5 0.8,-1.8 m 0,-2.5 -1.7,3.8 -3.8,0.6 2.8,3 -0.7,4.2 3.4,-2 3.4,2 -0.7,-4.2 2.8,-3 -3.8,-0.6 z"
   id="path707"
   inkscape:connector-curvature="0"
   style="fill:#ffffff" />
	</g>
</g>
<g
   id="g719"
   transform="translate(-27.7,-19.799997)">
	<g
   id="g717">
		<polygon
   class="st2"
   points="212,154.8 209.2,156.4 209.8,153 207.5,150.5 210.6,150 212,146.9 213.4,150 216.6,150.5 214.3,153 214.8,156.4 "
   id="polygon713"
   style="fill:#ffffff" />
		<path
   class="st2"
   d="m 212,148.2 0.8,1.8 0.2,0.5 0.5,0.1 2,0.3 -1.5,1.6 -0.3,0.4 0.1,0.5 0.3,2.1 -1.6,-0.9 -0.5,-0.3 -0.5,0.3 -1.6,0.9 0.3,-2.1 0.1,-0.5 -0.3,-0.4 -1.5,-1.6 2,-0.3 0.5,-0.1 0.2,-0.5 0.8,-1.8 m 0,-2.5 -1.7,3.8 -3.8,0.6 2.8,3 -0.7,4.2 3.4,-2 3.4,2 -0.7,-4.2 2.8,-3 -3.8,-0.6 z"
   id="path715"
   inkscape:connector-curvature="0"
   style="fill:#ffffff" />
	</g>
</g>
<text
   transform="scale(0.97775252,1.0227537)"
   class="st2 st6 st7"
   id="text721"
   style="font-size:24.18040657px;font-family:SegoeUIHistoric;fill:#ffffff;stroke-width:0.97775251"
   x="89.168076"
   y="137.09332"><tspan
     style="font-style:normal;font-variant:normal;font-weight:normal;font-stretch:normal;font-family:Dosis;-inkscape-font-specification:Dosis"
     id="tspan2134">Coach</tspan></text>


<polygon
   class="st2"
   points="145.2,200 145.7,200.6 150.2,200.6 145.5,195.3 141,195.3 "
   id="polygon723"
   style="fill:#ffffff"
   transform="translate(-27.7,-19.799997)" />
<g
   id="g727"
   transform="translate(-27.7,-19.799997)">
	<polygon
   class="st2"
   points="145.5,206 150.2,200.6 145.7,200.6 145.2,201.3 141,206 "
   id="polygon725"
   style="fill:#ffffff" />
</g>
<polygon
   class="st2"
   points="140.1,195.8 135.9,200.6 140.1,205.4 144.2,200.6 "
   id="polygon729"
   style="fill:#ffffff"
   transform="translate(-27.7,-19.799997)" />
<g
   id="g793"
   transform="translate(-27.7,-19.799997)">
	<g
   id="g735">
		<g
   id="g733">
			<rect
   x="83.5"
   y="95.099998"
   class="st2"
   width="124.8"
   height="0.40000001"
   id="rect731"
   style="fill:#ffffff" />
		</g>
	</g>
	<g
   id="g785">
		<g
   id="g769">
			<g
   id="g739">
				<path
   class="st2"
   d="M 119.1,89 V 76.6 H 121 V 89 Z"
   id="path737"
   inkscape:connector-curvature="0"
   style="fill:#ffffff" />
			</g>
			<g
   id="g743">
				<path
   class="st2"
   d="M 125.9,80.3 V 89 H 124 V 76.6 h 1.5 l 6.8,9 v -8.9 h 1.9 V 89 h -1.6 z"
   id="path741"
   inkscape:connector-curvature="0"
   style="fill:#ffffff" />
			</g>
			<g
   id="g747">
				<path
   class="st2"
   d="M 145.9,78.4 H 142 V 89 h -2 V 78.4 h -4 v -1.7 h 9.8 v 1.7 z"
   id="path745"
   inkscape:connector-curvature="0"
   style="fill:#ffffff" />
			</g>
			<g
   id="g751">
				<path
   class="st2"
   d="M 156,87.3 V 89 h -8.1 V 76.6 h 8 v 1.7 h -6.1 v 3.5 h 5.3 v 1.6 h -5.3 v 3.8 h 6.2 z"
   id="path749"
   inkscape:connector-curvature="0"
   style="fill:#ffffff" />
			</g>
			<g
   id="g755">
				<path
   class="st2"
   d="M 158.6,89 V 76.6 h 5.2 c 0.5,0 1,0.1 1.5,0.3 0.5,0.2 0.8,0.5 1.2,0.9 0.3,0.4 0.6,0.8 0.8,1.3 0.2,0.5 0.3,1 0.3,1.5 0,0.4 -0.1,0.8 -0.2,1.2 -0.1,0.4 -0.3,0.7 -0.5,1.1 -0.2,0.3 -0.4,0.6 -0.7,0.8 -0.3,0.2 -0.6,0.4 -1,0.5 L 168,89 h -2.1 l -2.6,-4.3 h -2.7 V 89 Z m 1.9,-6 h 3.3 c 0.3,0 0.5,-0.1 0.7,-0.2 0.2,-0.1 0.4,-0.3 0.6,-0.5 0.2,-0.2 0.3,-0.5 0.4,-0.7 0.1,-0.3 0.1,-0.6 0.1,-0.9 0,-0.3 -0.1,-0.6 -0.2,-0.9 -0.1,-0.3 -0.2,-0.5 -0.4,-0.7 -0.2,-0.2 -0.4,-0.4 -0.6,-0.5 -0.2,-0.1 -0.5,-0.2 -0.7,-0.2 h -3.2 z"
   id="path753"
   inkscape:connector-curvature="0"
   style="fill:#ffffff" />
			</g>
			<g
   id="g759">
				<path
   class="st2"
   d="m 177.6,79.5 c -0.1,-0.1 -0.3,-0.3 -0.5,-0.4 -0.2,-0.1 -0.5,-0.3 -0.7,-0.4 -0.3,-0.1 -0.6,-0.2 -0.9,-0.3 -0.3,-0.1 -0.7,-0.1 -1.1,-0.1 -0.7,0 -1.3,0.2 -1.7,0.5 -0.4,0.3 -0.6,0.7 -0.6,1.3 0,0.3 0.1,0.6 0.2,0.7 0.1,0.2 0.3,0.4 0.6,0.5 0.2,0.1 0.6,0.3 0.9,0.4 0.4,0.1 0.8,0.2 1.3,0.4 0.6,0.2 1.1,0.3 1.6,0.5 0.5,0.2 0.9,0.4 1.2,0.7 0.3,0.3 0.6,0.6 0.8,1 0.2,0.4 0.3,0.9 0.3,1.4 0,0.7 -0.1,1.2 -0.4,1.7 -0.3,0.5 -0.5,0.8 -0.9,1.1 -0.4,0.3 -0.9,0.5 -1.4,0.6 -0.5,0.1 -1.1,0.2 -1.7,0.2 -0.9,0 -1.8,-0.1 -2.6,-0.4 -0.8,-0.3 -1.6,-0.7 -2.3,-1.3 l 0.9,-1.7 c 0.1,0.2 0.4,0.3 0.6,0.5 0.3,0.2 0.6,0.4 0.9,0.5 0.3,0.1 0.8,0.3 1.2,0.4 0.4,0.1 0.9,0.2 1.4,0.2 0.7,0 1.3,-0.1 1.7,-0.4 0.4,-0.3 0.6,-0.7 0.6,-1.2 0,-0.3 -0.1,-0.6 -0.2,-0.8 -0.1,-0.2 -0.4,-0.4 -0.6,-0.6 -0.3,-0.2 -0.6,-0.3 -1,-0.4 -0.4,-0.1 -0.9,-0.3 -1.4,-0.4 -0.6,-0.2 -1.1,-0.3 -1.5,-0.5 -0.4,-0.2 -0.8,-0.4 -1.1,-0.7 -0.3,-0.3 -0.5,-0.6 -0.7,-0.9 -0.2,-0.3 -0.2,-0.8 -0.2,-1.3 0,-0.6 0.1,-1.1 0.3,-1.6 0.2,-0.5 0.5,-0.9 0.9,-1.2 0.4,-0.3 0.8,-0.6 1.4,-0.7 0.5,-0.2 1.1,-0.2 1.7,-0.2 0.8,0 1.6,0.1 2.3,0.4 0.7,0.3 1.3,0.6 1.8,1 z"
   id="path757"
   inkscape:connector-curvature="0"
   style="fill:#ffffff" />
			</g>
			<g
   id="g763">
				<path
   class="st2"
   d="m 181.9,76.6 3.3,6.2 3.3,-6.2 h 2 l -4.4,8 V 89 h -1.9 v -4.5 l -4.4,-7.9 z"
   id="path761"
   inkscape:connector-curvature="0"
   style="fill:#ffffff" />
			</g>
			<g
   id="g767">
				<path
   class="st2"
   d="m 199.1,79.5 c -0.1,-0.1 -0.3,-0.3 -0.5,-0.4 -0.2,-0.1 -0.5,-0.3 -0.7,-0.4 -0.3,-0.1 -0.6,-0.2 -0.9,-0.3 -0.3,-0.1 -0.7,-0.1 -1.1,-0.1 -0.7,0 -1.3,0.2 -1.7,0.5 -0.4,0.3 -0.6,0.7 -0.6,1.3 0,0.3 0.1,0.6 0.2,0.7 0.1,0.2 0.3,0.4 0.6,0.5 0.2,0.1 0.6,0.3 0.9,0.4 0.4,0.1 0.8,0.2 1.3,0.4 0.6,0.2 1.1,0.3 1.6,0.5 0.5,0.2 0.9,0.4 1.2,0.7 0.3,0.3 0.6,0.6 0.8,1 0.2,0.4 0.3,0.9 0.3,1.4 0,0.7 -0.1,1.2 -0.4,1.7 -0.3,0.5 -0.5,0.8 -0.9,1.1 -0.4,0.3 -0.9,0.5 -1.4,0.6 -0.5,0.1 -1.1,0.2 -1.7,0.2 -0.9,0 -1.8,-0.1 -2.6,-0.4 -0.8,-0.3 -1.6,-0.7 -2.3,-1.3 l 0.9,-1.7 c 0.1,0.2 0.4,0.3 0.6,0.5 0.3,0.2 0.6,0.4 0.9,0.5 0.3,0.1 0.8,0.3 1.2,0.4 0.4,0.1 0.9,0.2 1.4,0.2 0.7,0 1.3,-0.1 1.7,-0.4 0.4,-0.3 0.6,-0.7 0.6,-1.2 0,-0.3 -0.1,-0.6 -0.2,-0.8 -0.1,-0.2 -0.4,-0.4 -0.6,-0.6 -0.3,-0.2 -0.6,-0.3 -1,-0.4 -0.4,-0.1 -0.9,-0.3 -1.4,-0.4 -0.6,-0.2 -1.1,-0.3 -1.5,-0.5 -0.4,-0.2 -0.8,-0.4 -1.1,-0.7 -0.3,-0.3 -0.5,-0.6 -0.7,-0.9 -0.2,-0.3 -0.2,-0.8 -0.2,-1.3 0,-0.6 0.1,-1.1 0.3,-1.6 0.2,-0.5 0.5,-0.9 0.9,-1.2 0.4,-0.3 0.8,-0.6 1.4,-0.7 0.5,-0.2 1.1,-0.2 1.7,-0.2 0.8,0 1.6,0.1 2.3,0.4 0.7,0.3 1.3,0.6 1.8,1 z"
   id="path765"
   inkscape:connector-curvature="0"
   style="fill:#ffffff" />
			</g>
		</g>
		<g
   id="g783">
			<g
   id="g773">
				<polygon
   class="st2"
   points="107.6,82.1 108.6,83.2 116.3,83.2 108.1,74.3 100.4,74.3 "
   id="polygon771"
   style="fill:#ffffff" />
			</g>
			<g
   id="g777">
				<polygon
   class="st2"
   points="108.1,92.1 116.3,83.2 108.6,83.2 107.6,84.3 100.4,92.1 "
   id="polygon775"
   style="fill:#ffffff" />
			</g>
			<g
   id="g781">
				<polygon
   class="st2"
   points="98.7,75.2 91.4,83.2 98.7,91.2 106,83.2 "
   id="polygon779"
   style="fill:#ffffff" />
			</g>
		</g>
	</g>
	<g
   id="g791">
		<g
   id="g789">
			<rect
   x="83.5"
   y="70.900002"
   class="st2"
   width="124.8"
   height="0.40000001"
   id="rect787"
   style="fill:#ffffff" />
		</g>
	</g>
</g>
</svg>