<?xml version="1.0" encoding="UTF-8" standalone="no"?>
<!-- Generator: Adobe Illustrator 22.0.1, SVG Export Plug-In . SVG Version: 6.00 Build 0)  -->

<svg
   xmlns:dc="http://purl.org/dc/elements/1.1/"
   xmlns:cc="http://creativecommons.org/ns#"
   xmlns:rdf="http://www.w3.org/1999/02/22-rdf-syntax-ns#"
   xmlns:svg="http://www.w3.org/2000/svg"
   xmlns="http://www.w3.org/2000/svg"
   xmlns:sodipodi="http://sodipodi.sourceforge.net/DTD/sodipodi-0.dtd"
   xmlns:inkscape="http://www.inkscape.org/namespaces/inkscape"
   version="1.1"
   id="Layer_1"
   x="0px"
   y="0px"
   viewBox="0 0 230 230"
   xml:space="preserve"
   sodipodi:docname="contributor.svg"
   width="230"
   height="230"
   inkscape:version="0.92.3 (2405546, 2018-03-11)"><metadata
   id="metadata1269"><rdf:RDF><cc:Work
       rdf:about=""><dc:format>image/svg+xml</dc:format><dc:type
         rdf:resource="http://purl.org/dc/dcmitype/StillImage" /><dc:title></dc:title></cc:Work></rdf:RDF></metadata><defs
   id="defs1267" /><sodipodi:namedview
   pagecolor="#ffffff"
   bordercolor="#666666"
   borderopacity="1"
   objecttolerance="10"
   gridtolerance="10"
   guidetolerance="10"
   inkscape:pageopacity="0"
   inkscape:pageshadow="2"
   inkscape:window-width="1920"
   inkscape:window-height="1016"
   id="namedview1265"
   showgrid="false"
   inkscape:zoom="2.8284271"
   inkscape:cx="169.60793"
   inkscape:cy="107.50806"
   inkscape:window-x="1366"
   inkscape:window-y="27"
   inkscape:window-maximized="1"
   inkscape:current-layer="Layer_1" />
<style
   type="text/css"
   id="style1058">
	.st0{fill:#FFFFFF;}
	.st1{fill:#1B75BC;}
	.st2{fill:#106DB4;}
	.st3{fill:#6D6E71;}
	.st4{font-family:'SegoeUIHistoric';}
	.st5{font-size:24.7306px;}
</style>
<g
   id="g1122"
   transform="translate(-25.6,-40.499997)">
	<g
   id="g1064">
		<g
   id="g1062">
			<rect
   x="81.400002"
   y="104.1"
   class="st0"
   width="124.8"
   height="0.40000001"
   id="rect1060"
   style="fill:#ffffff" />
		</g>
	</g>
	<g
   id="g1114">
		<g
   id="g1098">
			<g
   id="g1068">
				<path
   class="st0"
   d="M 117,98 V 85.6 h 1.9 V 98 Z"
   id="path1066"
   inkscape:connector-curvature="0"
   style="fill:#ffffff" />
			</g>
			<g
   id="g1072">
				<path
   class="st0"
   d="M 123.7,89.3 V 98 h -1.9 V 85.6 h 1.5 l 6.8,9 V 85.7 H 132 V 98 h -1.6 z"
   id="path1070"
   inkscape:connector-curvature="0"
   style="fill:#ffffff" />
			</g>
			<g
   id="g1076">
				<path
   class="st0"
   d="m 143.8,87.4 h -3.9 V 98 H 138 V 87.4 h -4 v -1.7 h 9.8 z"
   id="path1074"
   inkscape:connector-curvature="0"
   style="fill:#ffffff" />
			</g>
			<g
   id="g1080">
				<path
   class="st0"
   d="M 153.9,96.3 V 98 h -8.1 V 85.6 h 8 v 1.7 h -6.1 v 3.5 h 5.3 v 1.6 h -5.3 v 3.8 h 6.2 z"
   id="path1078"
   inkscape:connector-curvature="0"
   style="fill:#ffffff" />
			</g>
			<g
   id="g1084">
				<path
   class="st0"
   d="M 156.5,98 V 85.6 h 5.2 c 0.5,0 1,0.1 1.5,0.3 0.5,0.2 0.8,0.5 1.2,0.9 0.3,0.4 0.6,0.8 0.8,1.3 0.2,0.5 0.3,1 0.3,1.5 0,0.4 -0.1,0.8 -0.2,1.2 -0.1,0.4 -0.3,0.7 -0.5,1.1 -0.2,0.3 -0.4,0.6 -0.7,0.8 -0.3,0.2 -0.6,0.4 -1,0.5 l 2.8,4.7 h -2.1 l -2.6,-4.3 h -2.7 V 98 Z m 1.9,-6 h 3.3 c 0.3,0 0.5,-0.1 0.7,-0.2 0.2,-0.1 0.4,-0.3 0.6,-0.5 0.2,-0.2 0.3,-0.5 0.4,-0.7 0.1,-0.3 0.1,-0.6 0.1,-0.9 0,-0.3 -0.1,-0.6 -0.2,-0.9 -0.1,-0.3 -0.2,-0.5 -0.4,-0.7 -0.2,-0.2 -0.4,-0.4 -0.6,-0.5 -0.2,-0.1 -0.5,-0.2 -0.7,-0.2 h -3.2 z"
   id="path1082"
   inkscape:connector-curvature="0"
   style="fill:#ffffff" />
			</g>
			<g
   id="g1088">
				<path
   class="st0"
   d="m 175.4,88.5 c -0.1,-0.1 -0.3,-0.3 -0.5,-0.4 -0.2,-0.1 -0.5,-0.3 -0.7,-0.4 -0.3,-0.1 -0.6,-0.2 -0.9,-0.3 -0.3,-0.1 -0.7,-0.1 -1.1,-0.1 -0.7,0 -1.3,0.2 -1.7,0.5 -0.4,0.3 -0.6,0.7 -0.6,1.3 0,0.3 0.1,0.6 0.2,0.7 0.1,0.2 0.3,0.4 0.6,0.5 0.2,0.1 0.6,0.3 0.9,0.4 0.4,0.1 0.8,0.2 1.3,0.4 0.6,0.2 1.1,0.3 1.6,0.5 0.5,0.2 0.9,0.4 1.2,0.7 0.3,0.3 0.6,0.6 0.8,1 0.2,0.4 0.3,0.9 0.3,1.4 0,0.7 -0.1,1.2 -0.4,1.7 -0.2,0.5 -0.5,0.8 -0.9,1.1 -0.4,0.3 -0.9,0.5 -1.4,0.6 -0.5,0.1 -1.1,0.2 -1.7,0.2 -0.9,0 -1.8,-0.1 -2.6,-0.4 -0.8,-0.3 -1.6,-0.7 -2.3,-1.3 l 0.9,-1.7 c 0.1,0.2 0.4,0.3 0.6,0.5 0.3,0.2 0.6,0.4 0.9,0.5 0.3,0.1 0.8,0.3 1.2,0.4 0.4,0.1 0.9,0.2 1.4,0.2 0.7,0 1.3,-0.1 1.7,-0.4 0.4,-0.3 0.6,-0.7 0.6,-1.2 0,-0.3 -0.1,-0.6 -0.2,-0.8 -0.1,-0.2 -0.4,-0.4 -0.6,-0.6 -0.3,-0.2 -0.6,-0.3 -1,-0.4 -0.4,-0.1 -0.9,-0.3 -1.4,-0.4 -0.6,-0.2 -1.1,-0.3 -1.5,-0.5 -0.4,-0.2 -0.8,-0.4 -1.1,-0.7 -0.3,-0.3 -0.5,-0.6 -0.7,-0.9 -0.2,-0.3 -0.2,-0.8 -0.2,-1.3 0,-0.6 0.1,-1.1 0.3,-1.6 0.2,-0.5 0.5,-0.9 0.9,-1.2 0.4,-0.3 0.8,-0.6 1.4,-0.7 0.5,-0.2 1.1,-0.2 1.7,-0.2 0.8,0 1.6,0.1 2.3,0.4 0.7,0.3 1.3,0.6 1.8,1 z"
   id="path1086"
   inkscape:connector-curvature="0"
   style="fill:#ffffff" />
			</g>
			<g
   id="g1092">
				<path
   class="st0"
   d="m 179.7,85.6 3.3,6.2 3.3,-6.2 h 2 l -4.4,8 V 98 H 182 v -4.5 l -4.4,-7.9 z"
   id="path1090"
   inkscape:connector-curvature="0"
   style="fill:#ffffff" />
			</g>
			<g
   id="g1096">
				<path
   class="st0"
   d="m 197,88.5 c -0.1,-0.1 -0.3,-0.3 -0.5,-0.4 -0.2,-0.1 -0.5,-0.3 -0.7,-0.4 -0.3,-0.1 -0.6,-0.2 -0.9,-0.3 -0.3,-0.1 -0.7,-0.1 -1.1,-0.1 -0.7,0 -1.3,0.2 -1.7,0.5 -0.4,0.3 -0.6,0.7 -0.6,1.3 0,0.3 0.1,0.6 0.2,0.7 0.1,0.2 0.3,0.4 0.6,0.5 0.2,0.1 0.6,0.3 0.9,0.4 0.4,0.1 0.8,0.2 1.3,0.4 0.6,0.2 1.1,0.3 1.6,0.5 0.5,0.2 0.9,0.4 1.2,0.7 0.3,0.3 0.6,0.6 0.8,1 0.2,0.4 0.3,0.9 0.3,1.4 0,0.7 -0.1,1.2 -0.4,1.7 -0.2,0.5 -0.5,0.8 -0.9,1.1 -0.4,0.3 -0.9,0.5 -1.4,0.6 -0.5,0.1 -1.1,0.2 -1.7,0.2 -0.9,0 -1.8,-0.1 -2.6,-0.4 -0.8,-0.3 -1.6,-0.7 -2.3,-1.3 l 0.9,-1.7 c 0.1,0.2 0.4,0.3 0.6,0.5 0.3,0.2 0.6,0.4 0.9,0.5 0.3,0.1 0.8,0.3 1.2,0.4 0.4,0.1 0.9,0.2 1.4,0.2 0.7,0 1.3,-0.1 1.7,-0.4 0.4,-0.3 0.6,-0.7 0.6,-1.2 0,-0.3 -0.1,-0.6 -0.2,-0.8 -0.1,-0.2 -0.4,-0.4 -0.6,-0.6 -0.3,-0.2 -0.6,-0.3 -1,-0.4 -0.4,-0.1 -0.9,-0.3 -1.4,-0.4 -0.6,-0.2 -1.1,-0.3 -1.5,-0.5 -0.4,-0.2 -0.8,-0.4 -1.1,-0.7 -0.3,-0.3 -0.5,-0.6 -0.7,-0.9 -0.2,-0.3 -0.2,-0.8 -0.2,-1.3 0,-0.6 0.1,-1.1 0.3,-1.6 0.2,-0.5 0.5,-0.9 0.9,-1.2 0.4,-0.3 0.8,-0.6 1.4,-0.7 0.5,-0.2 1.1,-0.2 1.7,-0.2 0.8,0 1.6,0.1 2.3,0.4 0.7,0.3 1.3,0.6 1.8,1 z"
   id="path1094"
   inkscape:connector-curvature="0"
   style="fill:#ffffff" />
			</g>
		</g>
		<g
   id="g1112">
			<g
   id="g1102">
				<polygon
   class="st0"
   points="105.5,91.1 106.5,92.2 114.2,92.2 106,83.3 98.3,83.3 "
   id="polygon1100"
   style="fill:#ffffff" />
			</g>
			<g
   id="g1106">
				<polygon
   class="st0"
   points="106,101.1 114.2,92.2 106.5,92.2 105.5,93.3 98.3,101.1 "
   id="polygon1104"
   style="fill:#ffffff" />
			</g>
			<g
   id="g1110">
				<polygon
   class="st0"
   points="96.6,84.2 89.3,92.2 96.6,100.2 103.9,92.2 "
   id="polygon1108"
   style="fill:#ffffff" />
			</g>
		</g>
	</g>
	<g
   id="g1120">
		<g
   id="g1118">
			<rect
   x="81.400002"
   y="79.900002"
   class="st0"
   width="124.8"
   height="0.40000001"
   id="rect1116"
   style="fill:#ffffff" />
		</g>
	</g>
</g>
<g
   id="g1198"
   transform="translate(-25.6,-40.499997)">
	<g
   id="g1126">
		<path
   class="st1"
   d="m 227.3,214 c -10.1,16.4 -66.4,42.3 -66.4,42.3 0,0 -15.2,8.2 -19.4,8.2 -4.2,0 -19.4,-8.2 -19.4,-8.2 0,0 -56.3,-25.9 -66.5,-42.3 -0.6,-2.3 0,-10.3 0,-10.3 V 69.1 l 85.8,-21.3 85.9,21.3 v 134.6 c 0,0 0.4,9.1 0,10.3 z"
   id="path1124"
   inkscape:connector-curvature="0"
   style="fill:#1b75bc" />
	</g>
	<g
   id="g1134">
		<g
   id="g1132">
			<path
   class="st2"
   d="m 223,211.7 c -9.7,15.6 -63.3,40.3 -63.3,40.3 0,0 -14.5,7.8 -18.5,7.8 -4,0 -18.5,-7.8 -18.5,-7.8 0,0 -53.7,-24.7 -63.3,-40.3 -0.5,-2.1 0,-9.8 0,-9.8 V 73.5 L 141.2,53.2 223,73.5 v 128.3 c 0,0.1 0.4,8.7 0,9.9 z"
   id="path1128"
   inkscape:connector-curvature="0"
   style="fill:#106db4" />
			<path
   class="st0"
   d="m 141.2,256.9 h -0.1 c -2.4,-0.3 -10.5,-4 -16.6,-7.3 l -0.2,-0.1 C 110,242.9 71,223.2 62.7,210.9 l -0.1,-0.3 C 62.4,209 62.5,205 62.7,202 V 201.8 75.7 l 0.6,-0.1 77.9,-19.3 0.2,0.1 78.3,19.4 V 202 c 0.1,3.1 0.2,7.3 0.1,8.8 l -0.1,0.3 c -8.3,12.2 -47.3,32 -61.6,38.6 l -0.2,0.1 c -6.1,3.3 -14.2,7 -16.6,7.3 z M 64.1,210.4 c 8.3,12 46.7,31.5 60.9,38 l 0.3,0.1 c 6.6,3.5 13.9,6.8 15.9,7.1 2,-0.3 9.4,-3.6 15.9,-7.1 l 0.3,-0.1 c 14.2,-6.5 52.6,-26 60.9,-38 0.1,-1.4 0,-5 -0.1,-8.5 V 76.6 L 141.3,57.5 64.4,76.5 V 202 c -0.4,3.4 -0.4,6.9 -0.3,8.4 z"
   id="path1130"
   inkscape:connector-curvature="0"
   style="fill:#ffffff" />
		</g>
	</g>
	<g
   id="g1140">
		<g
   id="g1138">
			<path
   class="st3"
   d="m 238,174.7 8.6,-18.3 h -71.5 c -5,-14.9 -18.3,-25.5 -34,-25.5 -15.6,0 -28.9,10.6 -34,25.5 H 35.6 l 8.6,18.3 -8.6,18.3 h 76.8 c 6.6,9.3 17.1,15.4 28.8,15.4 11.8,0 22.2,-6 28.8,-15.4 h 76.6 z"
   id="path1136"
   inkscape:connector-curvature="0"
   style="fill:#6d6e71" />
		</g>
	</g>
	<g
   id="g1166">
		<g
   id="g1148">
			<g
   id="g1146">
				<path
   class="st3"
   d="m 141.4,207.7 h -0.2 V 207 h 0.2 c 0.8,0 1.7,0 2.5,-0.1 l 0.1,0.7 c -0.9,0.1 -1.7,0.1 -2.6,0.1 z m -2.9,-0.1 c -0.9,-0.1 -1.8,-0.2 -2.7,-0.4 l 0.1,-0.7 c 0.9,0.2 1.8,0.3 2.7,0.4 z m 8.2,-0.3 -0.1,-0.7 c 0.9,-0.1 1.8,-0.3 2.6,-0.6 l 0.2,0.7 c -0.9,0.3 -1.8,0.5 -2.7,0.6 z m -13.6,-0.7 c -0.9,-0.2 -1.8,-0.5 -2.6,-0.8 l 0.2,-0.7 c 0.9,0.3 1.7,0.6 2.6,0.8 z m 19,-0.7 -0.2,-0.7 c 0.9,-0.3 1.7,-0.6 2.5,-1 l 0.3,0.7 c -0.9,0.4 -1.8,0.7 -2.6,1 z m -24.2,-1.1 c -0.8,-0.4 -1.7,-0.8 -2.5,-1.3 l 0.3,-0.6 c 0.8,0.4 1.6,0.9 2.4,1.2 z m 29.3,-1.1 -0.3,-0.7 c 0.8,-0.4 1.6,-0.9 2.4,-1.4 l 0.3,0.6 c -0.8,0.6 -1.6,1.1 -2.4,1.5 z M 123,202 c -0.8,-0.5 -1.5,-1.1 -2.3,-1.6 l 0.4,-0.6 c 0.7,0.6 1.5,1.1 2.2,1.6 z m 38.9,-1.3 -0.4,-0.6 c 0.7,-0.5 1.5,-1.1 2.2,-1.7 l 0.4,0.6 c -0.7,0.6 -1.5,1.2 -2.2,1.7 z m -43.4,-2.1 c -0.7,-0.6 -1.4,-1.3 -2,-2 l 0.5,-0.5 c 0.6,0.7 1.3,1.3 2,1.9 z m 47.7,-1.6 -0.5,-0.5 c 0.7,-0.7 1.3,-1.4 1.9,-2.1 l 0.5,0.5 c -0.6,0.7 -1.3,1.4 -1.9,2.1 z m -51.6,-2.5 c -0.6,-0.7 -1.1,-1.4 -1.7,-2.2 l 0.1,-0.1 v -0.5 h 0.3 l 0.1,0.1 c 0.5,0.7 1.1,1.4 1.6,2.1 z m 55.3,-1.8 -0.5,-0.5 0.3,-0.5 h 2.5 v 0.7 H 170 Z m -59.6,-0.2 h -2.7 v -0.7 h 2.7 z m 64.6,0 v -0.7 h 2.7 v 0.7 z m -70,0 h -2.7 v -0.7 h 2.7 z m 75.5,0 v -0.7 h 2.7 v 0.7 z m -81,0 h -2.7 v -0.7 h 2.7 z m 86.4,0 v -0.7 h 2.7 v 0.7 z m -91.8,0 h -2.7 v -0.7 H 94 Z m 97.3,0 v -0.7 h 2.7 v 0.7 z m -102.8,0 h -2.7 v -0.7 h 2.7 z m 108.2,0 v -0.7 h 2.7 v 0.7 z m -113.6,0 h -2.7 v -0.7 h 2.7 z m 119.1,0 v -0.7 h 2.7 v 0.7 z m -124.6,0 h -2.7 v -0.7 h 2.7 z m 130,0 v -0.7 h 2.7 v 0.7 z m -135.4,0 h -2.7 v -0.7 h 2.7 z m 140.9,0 v -0.7 h 2.7 v 0.7 z M 66.7,192.4 H 64 v -0.7 h 2.7 z m 151.8,0 v -0.7 h 2.7 v 0.7 z m -157.2,0 h -2.7 v -0.7 h 2.7 z m 162.7,0 v -0.7 h 2.7 v 0.7 z m -168.2,0 h -2.7 v -0.7 h 2.7 z m 173.6,0 v -0.7 h 2.7 v 0.7 z m -179,0 h -2.7 v -0.7 h 2.7 z m 184.4,0 v -0.7 h 2.7 v 0.7 z m -189.8,0 h -2.7 v -0.7 H 45 Z m 195.3,0 v -0.7 h 2.7 v 0.7 z m -200.8,0 h -2.9 l 0.4,-0.9 0.3,0.2 h 2.2 z m 205.8,-0.3 -1.3,-2.6 0.6,-0.3 1.3,2.6 z m -206.4,-2.8 -0.6,-0.3 1.3,-2.6 0.6,0.3 z m 203.8,-2.4 -1.3,-2.6 0.6,-0.3 1.3,2.6 z m -201.3,-2.8 -0.6,-0.3 1.3,-2.6 0.6,0.3 z m 198.8,-2.3 -1.3,-2.6 0.6,-0.3 1.3,2.6 z M 44,178.9 l -0.6,-0.3 1.3,-2.6 0.6,0.3 z m 193.6,-2.3 -0.9,-1.9 1.3,-2.8 0.6,0.3 -1.2,2.4 0.7,1.5 z m -192.8,-2.8 -1.3,-2.6 0.6,-0.3 1.3,2.6 z m 195.1,-4.1 -0.6,-0.3 1.2,-2.6 0.6,0.3 z M 42.3,168.6 41,166 l 0.6,-0.3 1.3,2.6 z m 200.1,-4.1 -0.6,-0.3 1.2,-2.6 0.6,0.3 z m -202.7,-1 -1.3,-2.6 0.6,-0.3 1.3,2.6 z m 205.2,-4.2 -0.6,-0.3 0.9,-2 v -0.4 h 1 z m -207.7,-1 -0.6,-1.2 h 2.6 v 0.7 h -1.5 l 0.1,0.1 z m 4.7,-0.5 v -0.7 h 2.7 v 0.7 z m 5.4,0 v -0.7 H 50 v 0.7 z m 5.5,0 v -0.7 h 2.7 v 0.7 z m 5.4,-0.1 V 157 h 2.7 v 0.7 z m 5.5,0 V 157 h 2.7 v 0.7 z m 5.4,0 V 157 h 2.7 v 0.7 z m 5.5,0 V 157 h 2.7 v 0.7 z m 5.4,0 V 157 h 2.7 v 0.7 z m 5.5,0 V 157 h 2.7 v 0.7 z m 5.4,-0.1 v -0.7 h 2.7 v 0.7 z m 5.5,0 v -0.7 h 2.7 v 0.7 z m 5.4,0 v -0.7 h 2.7 v 0.7 z m 5.5,0 v -0.7 h 0.6 c 0.2,-0.6 0.4,-1.1 0.6,-1.6 l 0.6,0.3 c -0.2,0.6 -0.5,1.2 -0.7,1.8 l -0.1,0.2 z m 67.4,0 -0.1,-0.2 c -0.1,-0.2 -0.1,-0.3 -0.2,-0.5 l 0.6,-0.3 c 0,0.1 0.1,0.2 0.1,0.3 h 2 v 0.7 z m 5.1,0 v -0.7 h 2.7 v 0.7 z m 5.5,-0.1 v -0.7 h 2.7 v 0.7 z m 5.4,0 v -0.7 h 2.7 v 0.7 z m 5.5,0 v -0.7 h 2.7 v 0.7 z m 5.4,0 v -0.7 h 2.7 v 0.7 z m 5.5,0 v -0.7 h 2.7 v 0.7 z m 5.4,-0.1 v -0.7 h 2.7 v 0.7 z m 5.5,0 v -0.7 h 2.7 v 0.7 z m 5.4,0 v -0.7 h 2.7 v 0.7 z m 5.5,0 v -0.7 h 2.7 v 0.7 z m 5.4,0 v -0.7 h 2.7 v 0.7 z m 5.5,-0.1 v -0.7 h 2.7 v 0.7 z m -66.5,-3.1 c -0.4,-0.9 -0.8,-1.7 -1.3,-2.6 l 0.6,-0.4 c 0.5,0.8 0.9,1.7 1.3,2.6 z m -63,-1.3 -0.6,-0.3 c 0.4,-0.9 0.9,-1.7 1.4,-2.6 l 0.6,0.4 c -0.5,0.8 -1,1.7 -1.4,2.5 z m 60.3,-3.7 c -0.5,-0.8 -1,-1.6 -1.6,-2.3 l 0.5,-0.5 c 0.6,0.8 1.1,1.6 1.6,2.4 z m -57.4,-1.2 -0.5,-0.4 c 0.5,-0.8 1.1,-1.6 1.7,-2.3 l 0.5,0.5 c -0.6,0.7 -1.2,1.4 -1.7,2.2 z m 54,-3.3 c -0.6,-0.7 -1.3,-1.4 -1.9,-2 l 0.5,-0.5 c 0.7,0.7 1.3,1.4 1.9,2.1 z m -50.5,-1.1 -0.5,-0.5 c 0.6,-0.7 1.3,-1.4 2,-2 l 0.4,0.6 c -0.6,0.6 -1.3,1.2 -1.9,1.9 z m 46.6,-2.9 c -0.7,-0.6 -1.4,-1.2 -2.2,-1.7 l 0.4,-0.6 c 0.8,0.6 1.5,1.1 2.2,1.8 z m -42.5,-0.9 -0.4,-0.6 c 0.7,-0.6 1.5,-1.1 2.3,-1.7 l 0.4,0.6 c -0.9,0.6 -1.6,1.2 -2.3,1.7 z m 38,-2.3 c -0.8,-0.5 -1.6,-0.9 -2.4,-1.4 l 0.3,-0.7 c 0.8,0.4 1.6,0.9 2.4,1.4 z m -33.5,-0.8 -0.3,-0.6 c 0.8,-0.5 1.6,-0.9 2.5,-1.3 l 0.3,0.7 c -0.9,0.4 -1.7,0.8 -2.5,1.2 z m 28.7,-1.8 c -0.8,-0.4 -1.7,-0.7 -2.5,-1 l 0.2,-0.7 c 0.9,0.3 1.7,0.6 2.6,1 z m -23.8,-0.5 -0.2,-0.7 c 0.9,-0.3 1.7,-0.6 2.6,-0.9 l 0.2,0.7 c -0.8,0.3 -1.7,0.6 -2.6,0.9 z m 18.6,-1.2 c -0.9,-0.2 -1.8,-0.4 -2.7,-0.5 l 0.1,-0.7 c 0.9,0.1 1.8,0.3 2.7,0.5 z m -13.3,-0.3 -0.1,-0.7 c 0.9,-0.2 1.8,-0.3 2.7,-0.4 l 0.1,0.7 c -1,0.1 -1.9,0.3 -2.7,0.4 z m 8,-0.5 c -0.9,-0.1 -1.8,-0.1 -2.7,-0.1 v -0.7 c 0.9,0 1.8,0 2.7,0.1 z"
   id="path1142"
   inkscape:connector-curvature="0"
   style="fill:#6d6e71" />
				<path
   class="st0"
   d="m 141.4,131.6 c -0.2,0 -0.4,0 -0.6,0 v 0.7 c 0.2,0 0.4,0 0.6,0 0.7,0 1.4,0 2.1,0.1 v -0.7 c -0.6,0 -1.4,-0.1 -2.1,-0.1 z m -3.3,0.2 c -0.9,0.1 -1.8,0.2 -2.7,0.4 l 0.1,0.7 c 0.9,-0.2 1.8,-0.3 2.7,-0.4 z m 8.2,0.2 -0.1,0.7 c 0.9,0.1 1.8,0.3 2.7,0.5 l 0.1,-0.7 c -0.9,-0.2 -1.8,-0.4 -2.7,-0.5 z m -13.6,0.9 c -0.9,0.2 -1.8,0.5 -2.6,0.9 l 0.2,0.7 c 0.8,-0.3 1.7,-0.6 2.6,-0.8 z m 19,0.4 -0.2,0.7 c 0.9,0.3 1.7,0.6 2.5,1 l 0.3,-0.7 c -0.9,-0.4 -1.8,-0.7 -2.6,-1 z m -24.2,1.5 c -0.8,0.4 -1.7,0.8 -2.5,1.3 l 0.3,0.6 c 0.8,-0.5 1.6,-0.9 2.4,-1.3 z m 29.3,0.6 -0.3,0.7 c 0.8,0.4 1.6,0.9 2.4,1.4 l 0.3,-0.6 c -0.8,-0.6 -1.6,-1 -2.4,-1.5 z m -34.2,2.2 c -0.8,0.5 -1.5,1.1 -2.3,1.7 l 0.4,0.6 c 0.7,-0.6 1.5,-1.1 2.2,-1.6 z m 38.9,0.8 -0.4,0.6 c 0.7,0.5 1.5,1.1 2.2,1.7 l 0.4,-0.6 c -0.7,-0.5 -1.4,-1.1 -2.2,-1.7 z m -43.3,2.7 c -0.7,0.6 -1.4,1.3 -2,2 l 0.5,0.5 c 0.6,-0.7 1.3,-1.3 2,-2 z m 47.6,1 -0.5,0.5 c 0.7,0.7 1.3,1.3 1.9,2 l 0.5,-0.5 c -0.6,-0.6 -1.2,-1.3 -1.9,-2 z m -51.5,3.2 c -0.6,0.7 -1.2,1.5 -1.7,2.3 l 0.5,0.4 c 0.5,-0.8 1.1,-1.5 1.7,-2.3 z m 55.2,1.1 -0.5,0.5 c 0.6,0.7 1.1,1.5 1.6,2.3 l 0.6,-0.4 c -0.5,-0.8 -1.1,-1.6 -1.7,-2.4 z m -58.4,3.6 c -0.5,0.8 -1,1.7 -1.4,2.6 l 0.6,0.3 c 0.4,-0.8 0.9,-1.7 1.4,-2.5 z m 61.5,1.3 -0.6,0.4 c 0.5,0.8 0.9,1.7 1.3,2.6 l 0.6,-0.3 c -0.4,-1 -0.8,-1.9 -1.3,-2.7 z m -64.1,3.9 c -0.2,0.5 -0.4,1.1 -0.6,1.6 h -0.6 v 0.7 h 1.1 l 0.1,-0.2 c 0.2,-0.6 0.4,-1.2 0.7,-1.8 z m 66.5,1.4 -0.6,0.3 c 0.1,0.2 0.1,0.3 0.2,0.5 l 0.1,0.2 h 2.4 v -0.7 h -2 c 0,-0.1 0,-0.2 -0.1,-0.3 z m 71.2,0 h -1 v 0.4 l -0.9,2 0.6,0.3 z m -3.7,0 h -2.7 v 0.7 h 2.7 z m -5.5,0 h -2.7 v 0.7 h 2.7 z m -5.4,0 h -2.7 v 0.7 h 2.7 z m -5.5,0.1 h -2.7 v 0.7 h 2.7 z m -5.4,0 H 218 v 0.7 h 2.7 z m -5.5,0 h -2.7 v 0.7 h 2.7 z m -5.4,0 h -2.7 v 0.7 h 2.7 z m -5.5,0 h -2.7 v 0.7 h 2.7 z m -5.4,0.1 h -2.7 v 0.7 h 2.7 z m -5.4,0 h -2.7 v 0.7 h 2.7 z m -5.5,0 h -2.7 v 0.7 h 2.7 z m -5.4,0 h -2.7 v 0.7 h 2.7 z m -78.1,0.1 h -2.7 v 0.7 h 2.7 z m -5.4,0 h -2.7 v 0.7 h 2.7 z m -5.5,0 h -2.7 v 0.7 h 2.7 z m -5.4,0 h -2.7 v 0.7 h 2.7 z m -5.4,0 h -2.7 v 0.7 h 2.7 z m -5.5,0.1 h -2.7 v 0.7 h 2.7 z m -5.4,0 h -2.7 v 0.7 h 2.7 z m -5.5,0 h -2.7 v 0.7 h 2.7 z m -5.4,0 h -2.7 v 0.7 H 61 Z m -5.5,0 h -2.7 v 0.7 h 2.7 z m -5.4,0 h -2.7 v 0.7 h 2.7 z m -5.5,0.1 h -2.7 v 0.7 h 2.7 z m -5.4,0 h -2.6 l 0.6,1.2 0.6,-0.3 -0.1,-0.1 h 1.5 z m -0.1,3.4 -0.6,0.3 1.3,2.6 0.6,-0.3 z m 203.9,1.1 -1.2,2.6 0.6,0.3 1.2,-2.6 z m -201.4,4.1 -0.6,0.3 1.3,2.6 0.6,-0.3 z m 198.9,1.1 -1.2,2.6 0.6,0.3 1.2,-2.6 z m -196.3,4.1 -0.6,0.3 1.3,2.6 0.6,-0.3 z m 193.8,1.1 -1.3,2.8 0.9,1.9 0.6,-0.3 -0.7,-1.5 1.2,-2.4 z m -193.4,4 -1.3,2.6 0.6,0.3 1.3,-2.6 z m 194.9,2.9 -0.6,0.3 1.3,2.6 0.6,-0.3 z m -197.4,2.3 -1.3,2.6 0.6,0.3 1.3,-2.6 z m 199.9,2.8 -0.6,0.3 1.3,2.6 0.6,-0.3 z m -202.4,2.4 -1.3,2.6 0.6,0.3 1.3,-2.6 z m 205,2.8 -0.6,0.3 1.3,2.6 0.6,-0.3 z m -207.6,2.3 -0.4,0.9 h 2.9 v -0.7 h -2.2 z m 206,0.2 h -2.7 v 0.7 h 2.7 z m -200.8,0 v 0.7 h 2.7 v -0.7 z m 195.4,0 h -2.7 v 0.7 h 2.7 z m -189.9,0 v 0.7 h 2.7 v -0.7 z m 184.4,0 h -2.7 v 0.7 h 2.7 z m -179,0 v 0.7 h 2.7 v -0.7 z m 173.6,0 H 224 v 0.7 h 2.7 z m -168.1,0 v 0.7 h 2.7 v -0.7 z m 162.6,0 h -2.7 v 0.7 h 2.7 z m -157.2,0 v 0.7 h 2.7 v -0.7 z m 151.8,0 h -2.7 v 0.7 h 2.7 z m -146.3,0 v 0.7 h 2.7 v -0.7 z m 140.8,0 h -2.7 v 0.7 h 2.7 z m -135.4,0 v 0.7 h 2.7 v -0.7 z m 130,0 h -2.7 v 0.7 h 2.7 z m -124.5,0 v 0.7 h 2.7 v -0.7 z m 119,0 h -2.7 v 0.7 h 2.7 z m -113.6,0 v 0.7 h 2.7 v -0.7 z m 108.2,0 h -2.7 v 0.7 h 2.7 z m -102.7,0 v 0.7 H 94 v -0.7 z m 97.2,0 h -2.7 v 0.7 h 2.7 z m -91.8,0.1 v 0.7 h 2.7 v -0.7 z m 86.4,0 h -2.7 v 0.7 h 2.7 z m -80.9,0 v 0.7 h 2.7 v -0.7 z m 75.4,0 h -2.7 v 0.7 h 2.7 z m -70,0 v 0.7 h 2.7 v -0.7 z m 64.6,0 h -2.5 l -0.3,0.5 0.5,0.5 0.1,-0.2 h 2.2 z m -58.9,0 H 113 v 0.5 l -0.1,0.1 c 0.5,0.7 1.1,1.5 1.7,2.2 l 0.5,-0.5 c -0.6,-0.7 -1.1,-1.4 -1.6,-2.1 z m 54.3,2.6 c -0.6,0.7 -1.2,1.4 -1.9,2.1 l 0.5,0.5 c 0.7,-0.7 1.3,-1.4 1.9,-2.1 z m -50.6,1.7 -0.5,0.5 c 0.7,0.7 1.3,1.3 2,2 l 0.4,-0.6 c -0.6,-0.6 -1.3,-1.2 -1.9,-1.9 z m 46.7,2.3 c -0.7,0.6 -1.4,1.2 -2.2,1.7 l 0.4,0.6 c 0.7,-0.6 1.5,-1.2 2.2,-1.8 z m -42.6,1.4 -0.4,0.6 c 0.7,0.6 1.5,1.1 2.3,1.6 l 0.4,-0.6 c -0.8,-0.5 -1.6,-1 -2.3,-1.6 z m 38.1,1.9 c -0.8,0.5 -1.6,1 -2.4,1.4 l 0.3,0.7 c 0.8,-0.4 1.6,-0.9 2.4,-1.4 z m -33.5,1.1 -0.3,0.6 c 0.8,0.5 1.6,0.9 2.5,1.3 l 0.3,-0.7 c -0.9,-0.3 -1.7,-0.7 -2.5,-1.2 z m 28.7,1.5 c -0.8,0.4 -1.7,0.7 -2.5,1 l 0.2,0.7 c 0.9,-0.3 1.7,-0.6 2.6,-1 z m -23.7,0.8 -0.2,0.7 c 0.9,0.3 1.8,0.6 2.6,0.8 l 0.2,-0.7 c -0.9,-0.2 -1.8,-0.5 -2.6,-0.8 z m 18.6,0.9 c -0.9,0.2 -1.8,0.4 -2.6,0.6 l 0.1,0.7 c 0.9,-0.1 1.8,-0.3 2.7,-0.6 z m -13.4,0.5 -0.1,0.7 c 0.9,0.2 1.8,0.3 2.7,0.4 l 0.1,-0.7 c -0.9,-0.1 -1.8,-0.2 -2.7,-0.4 z m 8,0.4 c -0.8,0.1 -1.7,0.1 -2.5,0.1 h -0.2 v 0.7 h 0.2 c 0.8,0 1.7,0 2.5,-0.1 z"
   id="path1144"
   inkscape:connector-curvature="0"
   style="fill:#ffffff" />
			</g>
		</g>
		<g
   id="g1156">
			<g
   id="g1154">
				<polygon
   class="st0"
   points="65.9,174.7 66.5,178 63.7,176.4 60.9,178 61.4,174.7 59.1,172.3 62.3,171.8 63.7,168.8 65.1,171.8 68.2,172.3 "
   id="polygon1150"
   style="fill:#ffffff" />
				<path
   class="st0"
   d="m 63.7,170 0.8,1.8 0.2,0.5 0.5,0.1 2,0.3 -1.5,1.5 -0.3,0.4 0.1,0.5 0.3,2.1 -1.6,-0.9 -0.5,-0.3 -0.5,0.3 -1.6,0.9 0.3,-2.1 0.1,-0.5 -0.3,-0.4 -1.5,-1.5 2,-0.3 0.5,-0.1 0.2,-0.5 0.8,-1.8 m 0,-2.4 -1.7,3.7 -3.8,0.6 2.8,2.9 -0.7,4.1 3.4,-1.9 3.4,1.9 -0.7,-4.1 2.8,-2.9 -3.8,-0.6 z"
   id="path1152"
   inkscape:connector-curvature="0"
   style="fill:#ffffff" />
			</g>
		</g>
		<g
   id="g1164">
			<g
   id="g1162">
				<polygon
   class="st0"
   points="218,176.4 215.2,178 215.8,174.7 213.5,172.3 216.6,171.8 218,168.8 219.4,171.8 222.5,172.3 220.3,174.7 220.8,178 "
   id="polygon1158"
   style="fill:#ffffff" />
				<path
   class="st0"
   d="m 218,170 0.8,1.8 0.2,0.5 0.5,0.1 1.9,0.3 -1.5,1.5 -0.3,0.4 0.1,0.5 0.3,2.1 -1.6,-0.9 -0.5,-0.3 -0.5,0.3 -1.6,0.9 0.3,-2.1 0.1,-0.5 -0.3,-0.4 -1.5,-1.5 2,-0.3 0.5,-0.1 0.2,-0.5 0.9,-1.8 m 0,-2.4 -1.7,3.7 -3.8,0.6 2.8,2.9 -0.7,4.1 3.4,-1.9 3.4,1.9 -0.7,-4.1 2.8,-2.9 -3.8,-0.6 z"
   id="path1160"
   inkscape:connector-curvature="0"
   style="fill:#ffffff" />
			</g>
		</g>
	</g>
	<text
   transform="scale(0.99025246,1.0098435)"
   class="st0 st4 st5"
   id="text1168"
   style="font-size:24.48953819px;font-family:SegoeUIHistoric;fill:#ffffff;stroke-width:0.99025249"
   x="88.494408"
   y="180.77585"><tspan
     style="font-style:normal;font-variant:normal;font-weight:normal;font-stretch:normal;font-family:Dosis;-inkscape-font-specification:Dosis;stroke-width:0.99025249"
     id="tspan4052">Contributor</tspan></text>


	<g
   id="g1182">
		<g
   id="g1174">
			<g
   id="g1172">
				<rect
   x="104.8"
   y="222.2"
   class="st0"
   width="27.5"
   height="0.40000001"
   id="rect1170"
   style="fill:#ffffff" />
			</g>
		</g>
		<g
   id="g1180">
			<g
   id="g1178">
				<rect
   x="150.60001"
   y="222.10001"
   class="st0"
   width="27.5"
   height="0.40000001"
   id="rect1176"
   style="fill:#ffffff" />
			</g>
		</g>
	</g>
	<g
   id="g1196">
		<g
   id="g1186">
			<polygon
   class="st0"
   points="144.6,217.7 140.1,217.7 144.3,222.3 144.8,223 149.2,223 149.3,223 "
   id="polygon1184"
   style="fill:#ffffff" />
		</g>
		<g
   id="g1190">
			<polygon
   class="st0"
   points="144.6,228.2 149.2,223 144.8,223 144.3,223.6 140.1,228.2 "
   id="polygon1188"
   style="fill:#ffffff" />
		</g>
		<g
   id="g1194">
			<polygon
   class="st0"
   points="139.1,218.3 135,223 139.1,227.7 143.3,223 "
   id="polygon1192"
   style="fill:#ffffff" />
		</g>
	</g>
</g>
<g
   id="g1262"
   transform="translate(-25.6,-40.499997)">
	<g
   id="g1204">
		<g
   id="g1202">
			<rect
   x="81.099998"
   y="116.8"
   class="st0"
   width="124.8"
   height="0.40000001"
   id="rect1200"
   style="fill:#ffffff" />
		</g>
	</g>
	<g
   id="g1254">
		<g
   id="g1238">
			<g
   id="g1208">
				<path
   class="st0"
   d="M 116.6,110.7 V 98.3 h 1.9 v 12.4 z"
   id="path1206"
   inkscape:connector-curvature="0"
   style="fill:#ffffff" />
			</g>
			<g
   id="g1212">
				<path
   class="st0"
   d="m 123.4,102 v 8.7 h -1.9 V 98.3 h 1.5 l 6.8,9 v -8.9 h 1.9 v 12.4 h -1.6 z"
   id="path1210"
   inkscape:connector-curvature="0"
   style="fill:#ffffff" />
			</g>
			<g
   id="g1216">
				<path
   class="st0"
   d="m 143.4,100 h -3.9 v 10.7 h -1.9 V 100 h -4 v -1.7 h 9.8 z"
   id="path1214"
   inkscape:connector-curvature="0"
   style="fill:#ffffff" />
			</g>
			<g
   id="g1220">
				<path
   class="st0"
   d="m 153.5,109 v 1.7 h -8.1 V 98.3 h 8 v 1.7 h -6.1 v 3.5 h 5.3 v 1.6 h -5.3 v 3.8 h 6.2 z"
   id="path1218"
   inkscape:connector-curvature="0"
   style="fill:#ffffff" />
			</g>
			<g
   id="g1224">
				<path
   class="st0"
   d="M 156.2,110.7 V 98.3 h 5.2 c 0.5,0 1,0.1 1.5,0.3 0.5,0.2 0.8,0.5 1.2,0.9 0.3,0.4 0.6,0.8 0.8,1.3 0.2,0.5 0.3,1 0.3,1.5 0,0.4 -0.1,0.8 -0.2,1.2 -0.1,0.4 -0.3,0.7 -0.5,1.1 -0.2,0.3 -0.4,0.6 -0.7,0.8 -0.3,0.2 -0.6,0.4 -1,0.5 l 2.8,4.7 h -2.1 l -2.6,-4.3 h -2.7 v 4.3 h -2 z m 1.9,-6 h 3.3 c 0.3,0 0.5,-0.1 0.7,-0.2 0.2,-0.1 0.4,-0.3 0.6,-0.5 0.2,-0.2 0.3,-0.5 0.4,-0.7 0.1,-0.2 0.1,-0.6 0.1,-0.9 0,-0.3 -0.1,-0.6 -0.2,-0.9 -0.1,-0.3 -0.2,-0.5 -0.4,-0.7 -0.2,-0.2 -0.4,-0.4 -0.6,-0.5 -0.2,-0.1 -0.5,-0.2 -0.7,-0.2 h -3.2 z"
   id="path1222"
   inkscape:connector-curvature="0"
   style="fill:#ffffff" />
			</g>
			<g
   id="g1228">
				<path
   class="st0"
   d="m 175.1,101.2 c -0.1,-0.1 -0.3,-0.3 -0.5,-0.4 -0.2,-0.1 -0.5,-0.3 -0.7,-0.4 -0.3,-0.1 -0.6,-0.2 -0.9,-0.3 -0.3,-0.1 -0.7,-0.1 -1.1,-0.1 -0.7,0 -1.3,0.2 -1.7,0.5 -0.4,0.3 -0.6,0.7 -0.6,1.3 0,0.3 0.1,0.6 0.2,0.7 0.1,0.2 0.3,0.4 0.6,0.5 0.2,0.1 0.6,0.3 0.9,0.4 0.4,0.1 0.8,0.2 1.3,0.4 0.6,0.2 1.1,0.3 1.6,0.5 0.5,0.2 0.9,0.4 1.2,0.7 0.3,0.3 0.6,0.6 0.8,1 0.2,0.4 0.3,0.9 0.3,1.4 0,0.7 -0.1,1.2 -0.4,1.7 -0.2,0.5 -0.5,0.8 -0.9,1.1 -0.4,0.3 -0.9,0.5 -1.4,0.6 -0.5,0.1 -1.1,0.2 -1.7,0.2 -0.9,0 -1.8,-0.1 -2.6,-0.4 -0.8,-0.3 -1.6,-0.7 -2.3,-1.3 l 0.9,-1.7 c 0.1,0.2 0.4,0.3 0.6,0.5 0.3,0.2 0.6,0.4 0.9,0.5 0.4,0.2 0.8,0.3 1.2,0.4 0.4,0.1 0.9,0.2 1.4,0.2 0.7,0 1.3,-0.1 1.7,-0.4 0.4,-0.3 0.6,-0.7 0.6,-1.2 0,-0.3 -0.1,-0.6 -0.2,-0.8 -0.1,-0.2 -0.4,-0.4 -0.6,-0.6 -0.3,-0.2 -0.6,-0.3 -1,-0.4 -0.4,-0.1 -0.9,-0.3 -1.4,-0.4 -0.6,-0.2 -1.1,-0.3 -1.5,-0.5 -0.4,-0.2 -0.8,-0.4 -1.1,-0.7 -0.3,-0.3 -0.5,-0.6 -0.7,-0.9 -0.2,-0.3 -0.2,-0.8 -0.2,-1.3 0,-0.6 0.1,-1.1 0.3,-1.6 0.2,-0.5 0.5,-0.9 0.9,-1.2 0.4,-0.3 0.8,-0.6 1.4,-0.7 0.5,-0.2 1.1,-0.2 1.7,-0.2 0.8,0 1.6,0.1 2.3,0.4 0.7,0.3 1.3,0.6 1.8,1 z"
   id="path1226"
   inkscape:connector-curvature="0"
   style="fill:#ffffff" />
			</g>
			<g
   id="g1232">
				<path
   class="st0"
   d="m 179.4,98.3 3.3,6.2 3.3,-6.2 h 2 l -4.4,8 v 4.4 h -1.9 v -4.5 l -4.4,-7.9 z"
   id="path1230"
   inkscape:connector-curvature="0"
   style="fill:#ffffff" />
			</g>
			<g
   id="g1236">
				<path
   class="st0"
   d="m 196.7,101.2 c -0.1,-0.1 -0.3,-0.3 -0.5,-0.4 -0.2,-0.1 -0.5,-0.3 -0.7,-0.4 -0.3,-0.1 -0.6,-0.2 -0.9,-0.3 -0.3,-0.1 -0.7,-0.1 -1.1,-0.1 -0.7,0 -1.3,0.2 -1.7,0.5 -0.4,0.3 -0.6,0.7 -0.6,1.3 0,0.3 0.1,0.6 0.2,0.7 0.1,0.2 0.3,0.4 0.6,0.5 0.2,0.1 0.6,0.3 0.9,0.4 0.4,0.1 0.8,0.2 1.3,0.4 0.6,0.2 1.1,0.3 1.6,0.5 0.5,0.2 0.9,0.4 1.2,0.7 0.3,0.3 0.6,0.6 0.8,1 0.2,0.4 0.3,0.9 0.3,1.4 0,0.7 -0.1,1.2 -0.4,1.7 -0.2,0.5 -0.5,0.8 -0.9,1.1 -0.4,0.3 -0.9,0.5 -1.4,0.6 -0.5,0.1 -1.1,0.2 -1.7,0.2 -0.9,0 -1.8,-0.1 -2.6,-0.4 -0.8,-0.3 -1.6,-0.7 -2.3,-1.3 l 0.9,-1.7 c 0.1,0.2 0.4,0.3 0.6,0.5 0.3,0.2 0.6,0.4 0.9,0.5 0.4,0.2 0.8,0.3 1.2,0.4 0.4,0.1 0.9,0.2 1.4,0.2 0.7,0 1.3,-0.1 1.7,-0.4 0.4,-0.3 0.6,-0.7 0.6,-1.2 0,-0.3 -0.1,-0.6 -0.2,-0.8 -0.1,-0.2 -0.4,-0.4 -0.6,-0.6 -0.3,-0.2 -0.6,-0.3 -1,-0.4 -0.4,-0.1 -0.9,-0.3 -1.4,-0.4 -0.6,-0.2 -1.1,-0.3 -1.5,-0.5 -0.4,-0.2 -0.8,-0.4 -1.1,-0.7 -0.3,-0.3 -0.5,-0.6 -0.7,-0.9 -0.2,-0.3 -0.2,-0.8 -0.2,-1.3 0,-0.6 0.1,-1.1 0.3,-1.6 0.2,-0.5 0.5,-0.9 0.9,-1.2 0.4,-0.3 0.8,-0.6 1.4,-0.7 0.5,-0.2 1.1,-0.2 1.7,-0.2 0.8,0 1.6,0.1 2.3,0.4 0.7,0.3 1.3,0.6 1.8,1 z"
   id="path1234"
   inkscape:connector-curvature="0"
   style="fill:#ffffff" />
			</g>
		</g>
		<g
   id="g1252">
			<g
   id="g1242">
				<polygon
   class="st0"
   points="105.1,103.8 106.1,104.9 113.8,104.9 105.6,95.9 97.9,95.9 "
   id="polygon1240"
   style="fill:#ffffff" />
			</g>
			<g
   id="g1246">
				<polygon
   class="st0"
   points="105.6,113.8 113.8,104.9 106.1,104.9 105.1,106 97.9,113.8 "
   id="polygon1244"
   style="fill:#ffffff" />
			</g>
			<g
   id="g1250">
				<polygon
   class="st0"
   points="96.2,96.9 88.9,104.9 96.2,112.8 103.5,104.9 "
   id="polygon1248"
   style="fill:#ffffff" />
			</g>
		</g>
	</g>
	<g
   id="g1260">
		<g
   id="g1258">
			<rect
   x="81.099998"
   y="92.599998"
   class="st0"
   width="124.8"
   height="0.40000001"
   id="rect1256"
   style="fill:#ffffff" />
		</g>
	</g>
</g>
</svg>