<?xml version="1.0" encoding="UTF-8" standalone="no"?>
<!-- Generator: Adobe Illustrator 22.0.1, SVG Export Plug-In . SVG Version: 6.00 Build 0)  -->

<svg
   xmlns:dc="http://purl.org/dc/elements/1.1/"
   xmlns:cc="http://creativecommons.org/ns#"
   xmlns:rdf="http://www.w3.org/1999/02/22-rdf-syntax-ns#"
   xmlns:svg="http://www.w3.org/2000/svg"
   xmlns="http://www.w3.org/2000/svg"
   xmlns:sodipodi="http://sodipodi.sourceforge.net/DTD/sodipodi-0.dtd"
   xmlns:inkscape="http://www.inkscape.org/namespaces/inkscape"
   version="1.1"
   id="Layer_1"
   x="0px"
   y="0px"
   viewBox="0 0 140.2 141.8"
   xml:space="preserve"
   sodipodi:docname="diamond.svg"
   width="140.2"
   height="141.8"
   inkscape:version="0.92.3 (2405546, 2018-03-11)"><metadata
   id="metadata351"><rdf:RDF><cc:Work
       rdf:about=""><dc:format>image/svg+xml</dc:format><dc:type
         rdf:resource="http://purl.org/dc/dcmitype/StillImage" /><dc:title></dc:title></cc:Work></rdf:RDF></metadata><defs
   id="defs349" /><sodipodi:namedview
   pagecolor="#ffffff"
   bordercolor="#666666"
   borderopacity="1"
   objecttolerance="10"
   gridtolerance="10"
   guidetolerance="10"
   inkscape:pageopacity="0"
   inkscape:pageshadow="2"
   inkscape:window-width="640"
   inkscape:window-height="480"
   id="namedview347"
   showgrid="false"
   inkscape:zoom="0.8324515"
   inkscape:cx="69.849998"
   inkscape:cy="70.950005"
   inkscape:window-x="520"
   inkscape:window-y="48"
   inkscape:window-maximized="0"
   inkscape:current-layer="Layer_1" />
<style
   type="text/css"
   id="style330">
	.st0{fill-rule:evenodd;clip-rule:evenodd;fill:#72C16A;}
	.st1{fill:#FFFFFF;}
</style>
<g
   id="g344"
   transform="translate(-71.900002,-70.900002)">
	<g
   id="g340">
		<g
   id="g338">
			<g
   id="g336">
				<g
   id="g334">
					<ellipse
   class="st0"
   cx="142"
   cy="141.8"
   rx="70.099998"
   ry="70.900002"
   id="ellipse332"
   style="clip-rule:evenodd;fill:#72c16a;fill-rule:evenodd" />
				</g>
			</g>
		</g>
	</g>
	<path
   class="st1"
   d="m 172.9,93.6 c 1,0.3 2.4,1.8 4.2,4.4 0.4,0.5 1.1,1.5 2.1,3.1 0.8,1.2 1.3,2 1.7,2.4 1.6,2 4.9,6 9.8,12 3.9,4.8 7.3,8.9 10,12.3 2.7,3.4 4,4.9 4,4.6 -0.1,-0.4 -2.6,2.6 -7.8,9 -5.9,7.3 -14.9,17.7 -27.1,31.5 -12.3,13.8 -21.3,24.2 -27,31.2 -8.2,-9 -28.8,-33 -61.8,-71.7 10.2,-13.5 20.3,-26.5 30.3,-38.9 h 61.6 z m -41.1,84.3 c -0.3,-0.7 -5,-15.2 -14.2,-43.5 -2,0 -5.3,0 -9.9,0 -4.3,0 -7.4,0 -9.3,0 12.4,16.8 22.1,29.8 29.1,38.9 2,2.6 3.5,4.2 4.3,4.6 z m -21,-56.2 c 3.6,0.1 6.4,-0.1 8.3,-0.4 -0.6,-0.7 -2.1,-2.4 -4.3,-5.2 -1.7,-2.2 -3.2,-3.9 -4.3,-5.2 -0.8,1.3 -2.2,3.1 -4.2,5.4 -1.9,2.3 -3.3,4.1 -4.2,5.4 1,-0.1 4,0 8.7,0 z m 20.1,-13.5 c 1.9,-2.4 3.2,-4.3 4,-5.7 h -16.7 c 2.3,3.9 5.1,7.7 8.6,11.4 0.8,-1.4 2.2,-3.3 4.1,-5.7 z m 11.4,80.8 c 1.2,-6 3.2,-15 5.9,-27.2 2.6,-11.9 4.6,-20.9 5.9,-27.1 -5.8,-0.3 -13,-0.4 -21.7,-0.3 3.8,22.5 7.1,40.7 9.9,54.6 z m 8.6,-65.2 c -0.7,-1.3 -3.5,-4.8 -8.3,-10.5 -0.7,1 -2.1,2.8 -4.2,5.2 -1.8,2.2 -3.2,3.9 -4.2,5.2 h 16.7 z M 163,108.2 c 1.9,-2.4 3.2,-4.3 4,-5.7 -1,0.1 -3.9,0 -8.7,-0.1 -3.6,-0.1 -6.4,0.1 -8.3,0.4 0.8,0.8 2.2,2.7 4.4,5.7 1.7,2.4 3.3,4.2 4.6,5.4 0.8,-1.3 2.1,-3.2 4,-5.7 z m -9.8,70.3 c 3.3,-4.4 9,-11.7 17.2,-22 7.4,-9.4 13.1,-16.7 17,-22.1 -1.5,0 -4.2,0 -8.1,0 -4.2,0 -7.1,0 -8.9,0 -4.7,10.4 -10.4,25.1 -17.2,44.1 z M 171,116.3 c -1.8,2.1 -3.1,3.9 -3.9,5.3 h 16.7 c -2.4,-4.1 -5.3,-7.6 -8.6,-10.5 -0.8,1 -2.2,2.7 -4.2,5.2 z"
   id="path342"
   inkscape:connector-curvature="0"
   style="fill:#ffffff" />
</g>
</svg>